SplineFontDB: 3.0
FontName: Parastoo
FullName: Parastoo
FamilyName: Parastoo
Weight: Regular
Copyright: Copyright (c) 2003 by Bitstream, Inc. All Rights Reserved.\nDejaVu changes are in public domain\nCopyright (c) 2015 by Saber Rastikerdar. All Rights Reserved.
Version: 0.4.1
ItalicAngle: 0
UnderlinePosition: -100
UnderlineWidth: 100
Ascent: 1536
Descent: 512
LayerCount: 2
Layer: 0 1 "Back"  1
Layer: 1 1 "Fore"  0
XUID: [1021 502 1027637223 7335572]
UniqueID: 4193122
UseUniqueID: 1
FSType: 0
OS2Version: 1
OS2_WeightWidthSlopeOnly: 0
OS2_UseTypoMetrics: 1
CreationTime: 1431850356
ModificationTime: 1448965992
PfmFamily: 17
TTFWeight: 400
TTFWidth: 5
LineGap: 0
VLineGap: 0
Panose: 2 11 6 3 3 8 4 2 2 4
OS2TypoAscent: 2000
OS2TypoAOffset: 0
OS2TypoDescent: -1000
OS2TypoDOffset: 0
OS2TypoLinegap: 0
OS2WinAscent: 2000
OS2WinAOffset: 0
OS2WinDescent: 1000
OS2WinDOffset: 0
HheadAscent: 2000
HheadAOffset: 0
HheadDescent: -1000
HheadDOffset: 0
OS2SubXSize: 1331
OS2SubYSize: 1433
OS2SubXOff: 0
OS2SubYOff: 286
OS2SupXSize: 1331
OS2SupYSize: 1433
OS2SupXOff: 0
OS2SupYOff: 983
OS2StrikeYSize: 102
OS2StrikeYPos: 530
OS2Vendor: 'PfEd'
OS2CodePages: 600001ff.dfff0000
Lookup: 1 0 0 "'case' Case-Sensitive Forms in Latin lookup 0"  {"'case' Case-Sensitive Forms in Latin lookup 0 subtable"  } ['case' ('DFLT' <'dflt' > 'latn' <'CAT ' 'ESP ' 'GAL ' 'dflt' > ) ]
Lookup: 6 1 0 "'ccmp' Glyph Composition/Decomposition lookup 2"  {"'ccmp' Glyph Composition/Decomposition lookup 2 subtable"  } ['ccmp' ('arab' <'KUR ' 'SND ' 'URD ' 'dflt' > 'hebr' <'dflt' > 'nko ' <'dflt' > ) ]
Lookup: 6 0 0 "'ccmp' Glyph Composition/Decomposition lookup 3"  {"'ccmp' Glyph Composition/Decomposition lookup 3 subtable"  } ['ccmp' ('cyrl' <'MKD ' 'SRB ' 'dflt' > 'grek' <'dflt' > 'latn' <'ISM ' 'KSM ' 'LSM ' 'MOL ' 'NSM ' 'ROM ' 'SKS ' 'SSM ' 'dflt' > ) ]

StartChar: afii57388
Encoding: 1548 1548 2
Width: 679
VWidth: 2156
GlyphClass: 2
Flags: W
LayerCount: 2
Fore
SplineSet
370.644 255.717 m 5,0,-1
 398.88 255.717 l 6,1,2
 483.655 255.717 483.655 255.717 483.655 153.489 c 6,3,-1
 483.655 99.2354 l 6,4,5
 483.655 0 483.655 0 399.761 0 c 6,6,-1
 324.991 0 l 6,7,8
 236.979 -0.928711 236.979 -0.928711 236.979 95.2773 c 6,9,-1
 236.979 214.389 l 4,10,11
 256.719 427.968 256.719 427.968 456.892 598.183 c 5,12,-1
 518.212 567.554 l 5,13,14
 372.219 406.968 372.219 406.968 370.644 255.717 c 5,0,-1
EndSplineSet
EndChar

StartChar: uni0615
Encoding: 1557 1557 3
Width: 0
VWidth: 2186
GlyphClass: 4
Flags: W
AnchorPoint: "Anchor-10" 547.84 1279.5 mark 0
AnchorPoint: "Anchor-9" 547.84 1279.5 mark 0
AnchorPoint: "Anchor-1" 547.84 1975 basemark 0
AnchorPoint: "Anchor-1" 547.84 1279.5 mark 0
LayerCount: 2
Fore
SplineSet
466.096 1456.96 m 1,0,-1
 552.12 1456.96 l 2,1,2
 639.138 1456.96 639.138 1456.96 665.862 1472.75 c 0,3,4
 697.288 1492.32 697.288 1492.32 713.059 1508.3 c 128,-1,5
 728.83 1524.27 728.83 1524.27 728.83 1541.65 c 0,6,7
 728.83 1583.09 728.83 1583.09 689.03 1604.94 c 1,8,9
 681.399 1607.6 681.399 1607.6 672.751 1605.46 c 128,-1,10
 664.102 1603.31 664.102 1603.31 640.309 1592.64 c 128,-1,11
 616.515 1581.97 616.515 1581.97 601.865 1576.19 c 0,12,13
 543.049 1552.44 543.049 1552.44 483.147 1478.12 c 2,14,-1
 466.096 1456.96 l 1,0,-1
576.73 1374.89 m 2,15,-1
 282.64 1374.89 l 1,16,-1
 282.64 1456.96 l 1,17,-1
 369.31 1456.96 l 1,18,-1
 369.31 1883.89 l 1,19,-1
 452.45 1883.89 l 1,20,-1
 452.45 1497.67 l 1,21,-1
 477.109 1547.67 l 2,22,23
 513.381 1621.22 513.381 1621.22 619.878 1662.18 c 0,24,25
 682.718 1686.12 682.718 1686.12 752.956 1660.03 c 0,26,27
 814.11 1636.51 814.11 1636.51 814.11 1557.7 c 0,28,29
 814.11 1466.67 814.11 1466.67 750.648 1417.09 c 0,30,31
 696.384 1374.89 696.384 1374.89 576.73 1374.89 c 2,15,-1
EndSplineSet
EndChar

StartChar: uni061B
Encoding: 1563 1563 4
Width: 666
VWidth: 2156
GlyphClass: 2
Flags: W
LayerCount: 2
Fore
SplineSet
448.866 193.914 m 2,0,-1
 448.866 22.7432 l 2,1,2
 448.866 8.79395 448.866 8.79395 445.368 4.39648 c 128,-1,3
 441.872 0 441.872 0 433.305 0 c 2,4,-1
 263.331 0 l 2,5,6
 252.438 0 252.438 0 248.309 4.60156 c 128,-1,7
 244.179 9.20312 244.179 9.20312 244.179 22.7432 c 2,8,-1
 244.179 192.717 l 2,9,10
 244.179 204.8 244.179 204.8 248.161 208.933 c 128,-1,11
 252.143 213.066 252.143 213.066 263.331 213.066 c 2,12,-1
 429.714 213.066 l 2,13,14
 441.051 213.066 441.051 213.066 444.958 209.158 c 128,-1,15
 448.866 205.251 448.866 205.251 448.866 193.914 c 2,0,-1
351.803 699.773 m 1,16,-1
 380.039 699.773 l 2,17,18
 464.815 699.773 464.815 699.773 464.815 597.546 c 2,19,-1
 464.815 543.292 l 2,20,21
 464.815 444.057 464.815 444.057 380.92 444.057 c 2,22,-1
 306.15 444.057 l 2,23,24
 218.139 444.057 218.139 444.057 218.139 539.334 c 2,25,-1
 218.139 658.445 l 0,26,27
 237.878 872.023 237.878 872.023 438.052 1042.24 c 1,28,-1
 499.371 1011.61 l 1,29,30
 353.378 851.023 353.378 851.023 351.803 699.773 c 1,16,-1
EndSplineSet
EndChar

StartChar: uni061F
Encoding: 1567 1567 5
Width: 1123
VWidth: 2150
GlyphClass: 2
Flags: W
LayerCount: 2
Fore
SplineSet
729.014 193.914 m 6,0,-1
 729.014 22.7432 l 6,1,2
 729.014 8.79395 729.014 8.79395 725.517 4.39648 c 132,-1,3
 722.021 0 722.021 0 713.453 0 c 6,4,-1
 543.479 0 l 6,5,6
 532.586 0 532.586 0 528.457 4.60156 c 132,-1,7
 524.327 9.20312 524.327 9.20312 524.327 22.7432 c 6,8,-1
 524.327 192.717 l 6,9,10
 524.327 204.8 524.327 204.8 528.31 208.933 c 132,-1,11
 532.291 213.066 532.291 213.066 543.479 213.066 c 6,12,-1
 709.862 213.066 l 6,13,14
 721.199 213.066 721.199 213.066 725.106 209.158 c 132,-1,15
 729.014 205.251 729.014 205.251 729.014 193.914 c 6,0,-1
535.799 444.15 m 1,16,-1
 535.799 497.7 l 2,17,18
 535.799 552.828 535.799 552.828 532.596 584.845 c 0,19,20
 529.353 617.281 529.353 617.281 522.749 640.393 c 0,21,22
 513.774 668.438 513.774 668.438 492.28 697.648 c 0,23,24
 468.355 730.158 468.355 730.158 421.336 776.109 c 2,25,-1
 328.894 866.452 l 1,26,27
 235.594 955.604 235.594 955.604 198.593 1026.01 c 0,28,29
 161.998 1095.64 161.998 1095.64 161.998 1172.85 c 0,30,31
 161.998 1335.01 161.998 1335.01 275.465 1433.73 c 0,32,33
 389.571 1533 389.571 1533 578.849 1533 c 0,34,35
 695.065 1533 695.065 1533 785.397 1504.02 c 0,36,37
 883.06 1472.69 883.06 1472.69 961.002 1426.95 c 1,38,-1
 909.206 1290.15 l 1,39,40
 735.192 1380.76 735.192 1380.76 615.599 1381.8 c 0,41,42
 498.372 1381.8 498.372 1381.8 426.671 1321.59 c 0,43,44
 354.148 1260.69 354.148 1260.69 354.148 1162.35 c 0,45,46
 354.148 1108.23 354.148 1108.23 382.194 1056.54 c 0,47,48
 409.788 1005.68 409.788 1005.68 470.78 948.97 c 1,49,-1
 565.229 855.57 l 1,50,51
 658.252 766.68 658.252 766.68 686.805 700.396 c 128,-1,52
 715.349 634.137 715.349 634.137 715.349 530.25 c 2,53,-1
 715.349 444.15 l 1,54,-1
 535.799 444.15 l 1,16,-1
EndSplineSet
EndChar

StartChar: uni0621
Encoding: 1569 1569 6
Width: 760
VWidth: 2382
GlyphClass: 2
Flags: W
AnchorPoint: "Anchor-7" 374.066 -266.187 basechar 0
AnchorPoint: "Anchor-10" 321.199 1059.95 basechar 0
LayerCount: 2
Fore
SplineSet
79.3115 -44.5488 m 1,0,-1
 79.3115 92.2148 l 1,1,2
 248.811 139.502 248.811 139.502 348.639 196.191 c 5,3,4
 83.3154 241.034 83.3154 241.034 83.3154 467.742 c 0,5,6
 83.3154 650.072 83.3154 650.072 224.01 736.77 c 128,-1,7
 364.708 823.467 364.708 823.467 582.23 775.33 c 1,8,-1
 582.23 631.488 l 1,9,10
 496.375 655.723 496.375 655.723 434.1 653.943 c 0,11,12
 382.073 652.965 382.073 652.965 330.573 627.217 c 0,13,14
 230.138 576.999 230.138 576.999 230.138 458.395 c 0,15,16
 230.138 315.488 230.138 315.488 408.312 282.984 c 0,17,18
 474.356 270.744 474.356 270.744 536.307 285.784 c 0,19,20
 643.537 314.794 643.537 314.794 659.401 323.525 c 1,21,-1
 659.401 181.542 l 1,22,23
 572.367 125.89 572.367 125.89 385.169 52.8369 c 0,24,25
 183.586 -25.7051 183.586 -25.7051 79.3115 -44.5488 c 1,0,-1
EndSplineSet
EndChar

StartChar: uni0627
Encoding: 1575 1575 12
Width: 431
VWidth: 2359
GlyphClass: 2
Flags: W
AnchorPoint: "Anchor-10" 212.835 1596.03 basechar 0
AnchorPoint: "Anchor-7" 187.025 -317.251 basechar 0
LayerCount: 2
Fore
SplineSet
300.139 1477.39 m 1,0,-1
 277.039 179.55 l 2,1,2
 273.631 -11.9199 273.631 -11.9199 192.297 -20.4746 c 6,3,4
 181.476 -21.6133 l 5,5,-1
 130.654 1369.88 l 1,6,-1
 300.139 1477.39 l 1,0,-1
EndSplineSet
Substitution2: "'fina' Terminal Forms in Arabic lookup 9 subtable" uniFE8E
EndChar

StartChar: uni062D
Encoding: 1581 1581 18
Width: 1420
VWidth: 2380
GlyphClass: 2
Flags: W
AnchorPoint: "Anchor-10" 544.174 1314.83 basechar 0
AnchorPoint: "Anchor-7" 380.327 -855.84 basechar 0
LayerCount: 2
Fore
SplineSet
441.022 303.434 m 0,0,1
 235.325 143.911 235.325 143.911 239.518 -111.865 c 0,2,3
 242.956 -322.328 242.956 -322.328 413.262 -429.393 c 0,4,5
 587.451 -538.898 587.451 -538.898 930.305 -505.813 c 0,6,7
 1175.53 -482.149 1175.53 -482.149 1329.03 -371.502 c 1,8,-1
 1325.15 -400.813 l 2,9,10
 1283.45 -716.008 1283.45 -716.008 749 -706 c 0,11,12
 462.972 -699.346 462.972 -699.346 293.128 -576 c 0,13,14
 121.189 -452.444 121.189 -452.444 91.251 -206.644 c 0,15,16
 44.6113 176.264 44.6113 176.264 407.422 431.55 c 0,17,18
 619.253 579.818 619.253 579.818 1044.1 674.664 c 1,19,20
 982.391 681.178 982.391 681.178 853.355 748.115 c 0,21,22
 690.759 833.046 690.759 833.046 577.998 823.545 c 0,23,24
 447.43 812.542 447.43 812.542 336.924 593.935 c 1,25,-1
 322.456 594.756 l 2,26,27
 291.903 596.49 291.903 596.49 322.503 735.279 c 0,28,29
 331.813 777.508 331.813 777.508 364.42 844.717 c 0,30,31
 429.646 979.508 429.646 979.508 576.521 983.316 c 0,32,33
 710.634 987.515 710.634 987.515 957.978 846.06 c 0,34,35
 1077.63 777.637 1077.63 777.637 1310.44 752.05 c 1,36,-1
 1285.96 601.123 l 1,37,38
 710.538 511.401 710.538 511.401 441.022 303.434 c 0,0,1
EndSplineSet
Substitution2: "'fina' Terminal Forms in Arabic lookup 9 subtable" uniFEA2
Substitution2: "'medi' Medial Forms in Arabic lookup 11 subtable" uniFEA4
Substitution2: "'init' Initial Forms in Arabic lookup 13 subtable" uniFEA3
EndChar

StartChar: uni062F
Encoding: 1583 1583 20
Width: 906
VWidth: 2378
GlyphClass: 2
Flags: W
AnchorPoint: "Anchor-10" 177.838 1179.94 basechar 0
AnchorPoint: "Anchor-7" 232.512 -279.465 basechar 0
LayerCount: 2
Fore
SplineSet
689.106 338.948 m 5,0,1
 615.664 542.22 615.664 542.22 352.682 718.038 c 5,2,-1
 431.856 934.299 l 5,3,4
 700.005 704.227 700.005 704.227 773.106 494.349 c 4,5,6
 825.251 344.64 825.251 344.64 814.122 257.11 c 4,7,8
 806.131 194.264 806.131 194.264 783.182 145.324 c 5,9,10
 709.729 -45.0977 709.729 -45.0977 326.588 -17.3252 c 4,11,-1
 292.275 -13.459 l 4,12,13
 90.7451 15.6562 90.7451 15.6562 91.1982 192.286 c 6,14,-1
 91.5518 330.015 l 5,15,16
 104.2 336.362 104.2 336.362 119.377 330.015 c 5,17,18
 137.643 185.546 137.643 185.546 342.918 173.109 c 4,19,20
 567.381 159.844 567.381 159.844 643.688 200.55 c 4,21,22
 717.052 238.399 717.052 238.399 689.106 338.948 c 5,0,1
EndSplineSet
Substitution2: "'fina' Terminal Forms in Arabic lookup 9 subtable" uniFEAA
EndChar

StartChar: uni0631
Encoding: 1585 1585 22
Width: 856
VWidth: 2383
GlyphClass: 2
Flags: W
AnchorPoint: "Anchor-7" 561.116 -792.422 basechar 0
AnchorPoint: "Anchor-10" 469.638 958.896 basechar 0
LayerCount: 2
Fore
SplineSet
538.938 385.937 m 1,0,1
 612.438 486.737 612.438 486.737 668.068 508.036 c 1,2,3
 769.421 314.127 769.421 314.127 765.22 45.3271 c 1,4,5
 718.144 -441.975 718.144 -441.975 343.301 -486.15 c 0,6,7
 169.993 -506.574 169.993 -506.574 20.5908 -368.454 c 1,8,9
 660.4 -296.788 660.4 -296.788 663.551 121.083 c 1,10,11
 663.551 208.114 663.551 208.114 538.938 385.937 c 1,0,1
EndSplineSet
PairPos2: "'kern' Horizontal Kerning lookup 15-1" uni06CC dx=-148 dy=0 dh=-148 dv=0 dx=0 dy=0 dh=0 dv=0
PairPos2: "'kern' Horizontal Kerning lookup 15-1" uniFEEB dx=-224 dy=0 dh=-224 dv=0 dx=0 dy=0 dh=0 dv=0
PairPos2: "'kern' Horizontal Kerning lookup 15-1" uniFB7C dx=-148 dy=0 dh=-148 dv=0 dx=0 dy=0 dh=0 dv=0
PairPos2: "'kern' Horizontal Kerning lookup 15-1" uniFB58 dx=63 dy=0 dh=63 dv=0 dx=0 dy=0 dh=0 dv=0
PairPos2: "'kern' Horizontal Kerning lookup 15-1" uniFEF3 dx=63 dy=0 dh=63 dv=0 dx=0 dy=0 dh=0 dv=0
PairPos2: "'kern' Horizontal Kerning lookup 15-1" uniFBFE dx=63 dy=0 dh=63 dv=0 dx=0 dy=0 dh=0 dv=0
PairPos2: "'kern' Horizontal Kerning lookup 15-1" uniFEDF dx=-224 dy=0 dh=-224 dv=0 dx=0 dy=0 dh=0 dv=0
PairPos2: "'kern' Horizontal Kerning lookup 15-1" uniFB90 dx=-224 dy=0 dh=-224 dv=0 dx=0 dy=0 dh=0 dv=0
PairPos2: "'kern' Horizontal Kerning lookup 15-1" uni06A9 dx=-224 dy=0 dh=-224 dv=0 dx=0 dy=0 dh=0 dv=0
PairPos2: "'kern' Horizontal Kerning lookup 15-1" uni0649 dx=-148 dy=0 dh=-148 dv=0 dx=0 dy=0 dh=0 dv=0
PairPos2: "'kern' Horizontal Kerning lookup 15-1" uni0647 dx=-224 dy=0 dh=-224 dv=0 dx=0 dy=0 dh=0 dv=0
PairPos2: "'kern' Horizontal Kerning lookup 15-1" uniFEE7 dx=-224 dy=0 dh=-224 dv=0 dx=0 dy=0 dh=0 dv=0
PairPos2: "'kern' Horizontal Kerning lookup 15-1" uniFEE3 dx=-224 dy=0 dh=-224 dv=0 dx=0 dy=0 dh=0 dv=0
PairPos2: "'kern' Horizontal Kerning lookup 15-1" uni0645 dx=-224 dy=0 dh=-224 dv=0 dx=0 dy=0 dh=0 dv=0
PairPos2: "'kern' Horizontal Kerning lookup 15-1" uni0644 dx=-148 dy=0 dh=-148 dv=0 dx=0 dy=0 dh=0 dv=0
PairPos2: "'kern' Horizontal Kerning lookup 15-1" uniFEDB dx=-224 dy=0 dh=-224 dv=0 dx=0 dy=0 dh=0 dv=0
PairPos2: "'kern' Horizontal Kerning lookup 15-1" uniFED7 dx=-224 dy=0 dh=-224 dv=0 dx=0 dy=0 dh=0 dv=0
PairPos2: "'kern' Horizontal Kerning lookup 15-1" uni0642 dx=-148 dy=0 dh=-148 dv=0 dx=0 dy=0 dh=0 dv=0
PairPos2: "'kern' Horizontal Kerning lookup 15-1" uniFED3 dx=-224 dy=0 dh=-224 dv=0 dx=0 dy=0 dh=0 dv=0
PairPos2: "'kern' Horizontal Kerning lookup 15-1" uni0641 dx=-224 dy=0 dh=-224 dv=0 dx=0 dy=0 dh=0 dv=0
PairPos2: "'kern' Horizontal Kerning lookup 15-1" uniFECF dx=-224 dy=0 dh=-224 dv=0 dx=0 dy=0 dh=0 dv=0
PairPos2: "'kern' Horizontal Kerning lookup 15-1" uniFECB dx=-224 dy=0 dh=-224 dv=0 dx=0 dy=0 dh=0 dv=0
PairPos2: "'kern' Horizontal Kerning lookup 15-1" uniFEC7 dx=-224 dy=0 dh=-224 dv=0 dx=0 dy=0 dh=0 dv=0
PairPos2: "'kern' Horizontal Kerning lookup 15-1" uni0638 dx=-224 dy=0 dh=-224 dv=0 dx=0 dy=0 dh=0 dv=0
PairPos2: "'kern' Horizontal Kerning lookup 15-1" uniFEC3 dx=-224 dy=0 dh=-224 dv=0 dx=0 dy=0 dh=0 dv=0
PairPos2: "'kern' Horizontal Kerning lookup 15-1" uni0637 dx=-224 dy=0 dh=-224 dv=0 dx=0 dy=0 dh=0 dv=0
PairPos2: "'kern' Horizontal Kerning lookup 15-1" uniFEBF dx=-224 dy=0 dh=-224 dv=0 dx=0 dy=0 dh=0 dv=0
PairPos2: "'kern' Horizontal Kerning lookup 15-1" uni0636 dx=-224 dy=0 dh=-224 dv=0 dx=0 dy=0 dh=0 dv=0
PairPos2: "'kern' Horizontal Kerning lookup 15-1" uniFEBB dx=-224 dy=0 dh=-224 dv=0 dx=0 dy=0 dh=0 dv=0
PairPos2: "'kern' Horizontal Kerning lookup 15-1" uni0635 dx=-224 dy=0 dh=-224 dv=0 dx=0 dy=0 dh=0 dv=0
PairPos2: "'kern' Horizontal Kerning lookup 15-1" uniFEB7 dx=-224 dy=0 dh=-224 dv=0 dx=0 dy=0 dh=0 dv=0
PairPos2: "'kern' Horizontal Kerning lookup 15-1" uni0634 dx=-224 dy=0 dh=-224 dv=0 dx=0 dy=0 dh=0 dv=0
PairPos2: "'kern' Horizontal Kerning lookup 15-1" uniFEB3 dx=-224 dy=0 dh=-224 dv=0 dx=0 dy=0 dh=0 dv=0
PairPos2: "'kern' Horizontal Kerning lookup 15-1" uni0633 dx=-224 dy=0 dh=-224 dv=0 dx=0 dy=0 dh=0 dv=0
PairPos2: "'kern' Horizontal Kerning lookup 15-1" uni0630 dx=-224 dy=0 dh=-224 dv=0 dx=0 dy=0 dh=0 dv=0
PairPos2: "'kern' Horizontal Kerning lookup 15-1" uni062F dx=-224 dy=0 dh=-224 dv=0 dx=0 dy=0 dh=0 dv=0
PairPos2: "'kern' Horizontal Kerning lookup 15-1" uniFEA7 dx=-224 dy=0 dh=-224 dv=0 dx=0 dy=0 dh=0 dv=0
PairPos2: "'kern' Horizontal Kerning lookup 15-1" uniFEA3 dx=-224 dy=0 dh=-224 dv=0 dx=0 dy=0 dh=0 dv=0
PairPos2: "'kern' Horizontal Kerning lookup 15-1" uniFE9F dx=-224 dy=0 dh=-224 dv=0 dx=0 dy=0 dh=0 dv=0
PairPos2: "'kern' Horizontal Kerning lookup 15-1" uniFE9B dx=-224 dy=0 dh=-224 dv=0 dx=0 dy=0 dh=0 dv=0
PairPos2: "'kern' Horizontal Kerning lookup 15-1" uni062B dx=-224 dy=0 dh=-224 dv=0 dx=0 dy=0 dh=0 dv=0
PairPos2: "'kern' Horizontal Kerning lookup 15-1" uniFE97 dx=-224 dy=0 dh=-224 dv=0 dx=0 dy=0 dh=0 dv=0
PairPos2: "'kern' Horizontal Kerning lookup 15-1" uni062A dx=-224 dy=0 dh=-224 dv=0 dx=0 dy=0 dh=0 dv=0
PairPos2: "'kern' Horizontal Kerning lookup 15-1" uni0629 dx=-104 dy=0 dh=-104 dv=0 dx=0 dy=0 dh=0 dv=0
PairPos2: "'kern' Horizontal Kerning lookup 15-1" uniFE91 dx=-104 dy=0 dh=-104 dv=0 dx=0 dy=0 dh=0 dv=0
PairPos2: "'kern' Horizontal Kerning lookup 15-1" uni0628 dx=-224 dy=0 dh=-224 dv=0 dx=0 dy=0 dh=0 dv=0
PairPos2: "'kern' Horizontal Kerning lookup 15-1" uni0627 dx=-253 dy=0 dh=-253 dv=0 dx=0 dy=0 dh=0 dv=0
PairPos2: "'kern' Horizontal Kerning lookup 15-1" uni0622 dx=-253 dy=0 dh=-253 dv=0 dx=0 dy=0 dh=0 dv=0
PairPos2: "'kern' Horizontal Kerning lookup 15-1" uniFB94 dx=-224 dy=0 dh=-224 dv=0 dx=0 dy=0 dh=0 dv=0
PairPos2: "'kern' Horizontal Kerning lookup 15-1" afii57509 dx=-224 dy=0 dh=-224 dv=0 dx=0 dy=0 dh=0 dv=0
PairPos2: "'kern' Horizontal Kerning lookup 15-1" uniFB56 dx=-224 dy=0 dh=-224 dv=0 dx=0 dy=0 dh=0 dv=0
PairPos2: "'kern' Horizontal Kerning lookup 15-1" afii57506 dx=-224 dy=0 dh=-224 dv=0 dx=0 dy=0 dh=0 dv=0
Substitution2: "'fina' Terminal Forms in Arabic lookup 9 subtable" uniFEAE
EndChar

StartChar: uni0633
Encoding: 1587 1587 24
Width: 2288
VWidth: 2383
GlyphClass: 2
Flags: W
AnchorPoint: "Anchor-7" 302.282 -766.888 basechar 0
AnchorPoint: "Anchor-10" 515.988 914.333 basechar 0
LayerCount: 2
Fore
SplineSet
1483.9 -21 m 0,0,1
 1355.93 -24.25 1355.93 -24.25 1312.51 66.2637 c 1,2,3
 1323.01 17.9639 1323.01 17.9639 1320.91 -21 c 1,4,5
 1236.88 -516.014 1236.88 -516.014 691.438 -526.43 c 0,6,7
 309.4 -533.429 309.4 -533.429 162.882 -322.946 c 0,8,9
 48.6445 -157.518 48.6445 -157.518 110.897 91.7666 c 0,10,11
 127.308 157.476 127.308 157.476 164.18 266.019 c 0,12,13
 187.183 333.734 187.183 333.734 207.3 377.063 c 1,14,-1
 279.173 329.814 l 1,15,16
 170.276 21.9365 170.276 21.9365 240.037 -126.32 c 0,17,18
 347.204 -354.072 347.204 -354.072 686.994 -348.395 c 0,19,20
 1178.89 -340.025 1178.89 -340.025 1204.36 -21 c 1,21,-1
 1065.76 407.514 l 1,22,-1
 1223 556.283 l 1,23,24
 1267.72 317.501 1267.72 317.501 1297.13 255.565 c 0,25,26
 1346.38 151.854 1346.38 151.854 1452.02 156.861 c 2,27,-1
 1487.46 158.542 l 0,28,29
 1597.55 156.939 1597.55 156.939 1641.18 294.562 c 0,30,31
 1658.69 349.56 1658.69 349.56 1660.46 431.986 c 1,32,33
 1665.71 490.373 1665.71 490.373 1700.88 490.667 c 0,34,35
 1744.43 491.053 1744.43 491.053 1748.66 437.762 c 1,36,-1
 1749.83 413.848 l 2,37,38
 1761.7 172.551 1761.7 172.551 1928.61 167.624 c 1,39,40
 2080.9 167.624 2080.9 167.624 2074.65 339.675 c 0,41,42
 2073.16 386.43 2073.16 386.43 1946.03 617.001 c 1,43,-1
 2096.72 753.729 l 1,44,45
 2185.38 567.688 2185.38 567.688 2196.57 390.195 c 0,46,47
 2207.77 205.458 2207.77 205.458 2118.25 84.1377 c 0,48,49
 2037.04 -25.9287 2037.04 -25.9287 1922.1 -20.4492 c 0,50,51
 1849.39 -16.9834 1849.39 -16.9834 1821.31 -3.72363 c 0,52,53
 1720.58 44.6035 1720.58 44.6035 1681.29 158.039 c 1,54,55
 1620.09 -16.4814 1620.09 -16.4814 1483.9 -21 c 0,0,1
EndSplineSet
Substitution2: "'fina' Terminal Forms in Arabic lookup 9 subtable" uniFEB2
Substitution2: "'medi' Medial Forms in Arabic lookup 11 subtable" uniFEB4
Substitution2: "'init' Initial Forms in Arabic lookup 13 subtable" uniFEB3
EndChar

StartChar: uni0635
Encoding: 1589 1589 26
Width: 2446
VWidth: 2384
GlyphClass: 2
Flags: W
AnchorPoint: "Anchor-10" 395.818 915.73 basechar 0
AnchorPoint: "Anchor-7" 356.863 -807.193 basechar 0
LayerCount: 2
Fore
SplineSet
1529.69 -21 m 6,0,1
 1375.61 -20.6016 1375.61 -20.6016 1311.61 66.2637 c 5,2,3
 1322.11 17.9639 1322.11 17.9639 1320.01 -21 c 5,4,5
 1235.98 -516.014 1235.98 -516.014 690.538 -526.43 c 4,6,7
 308.5 -533.429 308.5 -533.429 161.981 -322.946 c 4,8,9
 47.7441 -157.518 47.7441 -157.518 109.997 91.7666 c 4,10,11
 126.408 157.476 126.408 157.476 163.279 266.019 c 4,12,13
 191.299 348.502 191.299 348.502 204.3 377.063 c 5,14,-1
 273.431 320.989 l 5,15,16
 171.125 18.2188 171.125 18.2188 239.137 -126.32 c 4,17,18
 346.304 -354.072 346.304 -354.072 686.095 -348.395 c 4,19,20
 1177.99 -340.025 1177.99 -340.025 1203.46 -21 c 5,21,-1
 1064.86 407.514 l 5,22,-1
 1222.1 556.283 l 5,23,24
 1270.61 297.249 1270.61 297.249 1296.23 255.565 c 12,25,26
 1350.23 170.446 1350.23 170.446 1441.56 189.739 c 5,27,28
 1642.98 474.858 1642.98 474.858 1737.66 567.739 c 4,29,30
 1926.32 749.443 1926.32 749.443 2095.49 737.655 c 4,31,32
 2339.52 721.155 2339.52 721.155 2354.77 440.06 c 4,33,34
 2370.26 165.071 2370.26 165.071 2159.47 58.9082 c 4,35,36
 1998.4 -22.2139 1998.4 -22.2139 1817.95 -21.7461 c 6,37,-1
 1529.69 -21 l 6,0,1
1554.66 167.054 m 5,38,-1
 1753.64 167.054 l 6,39,40
 1953.02 167.054 1953.02 167.054 2107.93 218.532 c 4,41,42
 2236.17 259.713 2236.17 259.713 2229.89 412.155 c 4,43,44
 2222.48 614.295 2222.48 614.295 2033.26 571.565 c 4,45,46
 1943.46 551.285 1943.46 551.285 1804.55 424.292 c 4,47,48
 1657.57 289.909 1657.57 289.909 1554.66 167.054 c 5,38,-1
EndSplineSet
Substitution2: "'fina' Terminal Forms in Arabic lookup 9 subtable" uniFEBA
Substitution2: "'medi' Medial Forms in Arabic lookup 11 subtable" uniFEBC
Substitution2: "'init' Initial Forms in Arabic lookup 13 subtable" uniFEBB
EndChar

StartChar: uni0637
Encoding: 1591 1591 28
Width: 1316
VWidth: 2384
GlyphClass: 2
Flags: W
AnchorPoint: "Anchor-10" 303.669 1578.79 basechar 0
AnchorPoint: "Anchor-7" 678.855 -354.486 basechar 0
LayerCount: 2
Fore
SplineSet
292.058 167.443 m 1,0,1
 328.808 216.794 328.808 216.794 349.282 242.519 c 1,2,3
 353.153 244.244 353.153 244.244 345.273 492.816 c 2,4,5
 340.906 765.551 340.906 765.551 328.242 1030.03 c 0,6,7
 315.928 1287.24 315.928 1287.24 302.811 1371.04 c 1,8,-1
 468.282 1478.4 l 1,9,-1
 467.607 402.441 l 1,10,11
 554.805 520.175 554.805 520.175 606.367 568.366 c 0,12,13
 795.035 750.071 795.035 750.071 964.196 738.282 c 0,14,15
 1209.29 721.782 1209.29 721.782 1224.53 440.685 c 0,16,17
 1239.99 165.7 1239.99 165.7 1028.18 59.5352 c 0,18,19
 868.43 -20.9287 868.43 -20.9287 686.663 -21.1201 c 2,20,-1
 398.406 -21.4238 l 2,21,-1
 215.331 -20.8516 l 2,22,23
 55.7314 -20.3525 55.7314 -20.3525 55.7314 151.2 c 2,24,-1
 55.7314 166.906 l 1,25,-1
 292.058 167.443 l 1,0,1
423.376 167.68 m 1,26,-1
 622.351 167.68 l 2,27,28
 816.339 167.68 816.339 167.68 976.641 219.159 c 0,29,30
 1104.87 260.339 1104.87 260.339 1098.59 412.782 c 0,31,32
 1091.2 614.922 1091.2 614.922 901.977 572.191 c 0,33,34
 812.165 551.911 812.165 551.911 673.27 424.919 c 0,35,36
 526.286 290.535 526.286 290.535 423.376 167.68 c 1,26,-1
EndSplineSet
Substitution2: "'fina' Terminal Forms in Arabic lookup 9 subtable" uniFEC2
Substitution2: "'medi' Medial Forms in Arabic lookup 11 subtable" uniFEC4
Substitution2: "'init' Initial Forms in Arabic lookup 13 subtable" uniFEC3
EndChar

StartChar: uni0639
Encoding: 1593 1593 30
Width: 1432
VWidth: 2380
GlyphClass: 2
Flags: W
AnchorPoint: "Anchor-10" 404.018 1497.09 basechar 0
AnchorPoint: "Anchor-7" 301.7 -816.038 basechar 0
LayerCount: 2
Fore
SplineSet
91.251 -219.693 m 0,0,1
 53.5332 196.821 53.5332 196.821 407.422 440.55 c 1,2,3
 131.667 572.471 131.667 572.471 196.438 858.819 c 0,4,5
 235.511 1033.54 235.511 1033.54 413.787 1089.82 c 0,6,7
 562.251 1136.86 562.251 1136.86 699.387 1089.82 c 0,8,9
 772.263 1064.91 772.263 1064.91 805.438 1027.66 c 1,10,11
 833.523 864.742 l 1,12,13
 717.261 963.989 717.261 963.989 536.088 942.137 c 4,14,15
 349.329 919.964 349.329 919.964 329.778 768.58 c 0,16,17
 311.353 619 311.353 619 502.972 510.9 c 1,18,19
 740.057 578.757 740.057 578.757 944.562 595.558 c 1,20,21
 915.162 429.657 l 1,22,23
 594.278 414.576 594.278 414.576 432.072 290.383 c 0,24,25
 225.338 130.859 225.338 130.859 229.518 -124.915 c 0,26,27
 233.049 -343.761 233.049 -343.761 413.262 -445.592 c 0,28,29
 572.717 -536.201 572.717 -536.201 887.871 -511.617 c 0,30,31
 1155.71 -490.603 1155.71 -490.603 1340.56 -356.084 c 1,32,-1
 1335.68 -385.396 l 2,33,34
 1291.45 -651.237 1291.45 -651.237 952.588 -705 c 0,35,36
 733.823 -739.709 733.823 -739.709 534.85 -696.6 c 0,37,38
 125.789 -608.325 125.789 -608.325 91.251 -219.693 c 0,0,1
EndSplineSet
Substitution2: "'fina' Terminal Forms in Arabic lookup 9 subtable" uniFECA
Substitution2: "'medi' Medial Forms in Arabic lookup 11 subtable" uniFECC
Substitution2: "'init' Initial Forms in Arabic lookup 13 subtable" uniFECB
EndChar

StartChar: afii57440
Encoding: 1600 1600 32
Width: 694
VWidth: 2400
GlyphClass: 2
Flags: W
AnchorPoint: "Anchor-10" 337.05 1397.45 basechar 0
AnchorPoint: "Anchor-7" 337.05 -150.738 basechar 0
LayerCount: 2
Fore
SplineSet
-11.4072 -21.0732 m 1,0,-1
 -11.4072 167.001 l 1,1,-1
 705.457 167.001 l 1,2,-1
 705.457 -21.0732 l 5,3,-1
 -11.4072 -21.0732 l 1,0,-1
EndSplineSet
EndChar

StartChar: uni0643
Encoding: 1603 1603 35
Width: 1819
VWidth: 2359
GlyphClass: 2
Flags: W
AnchorPoint: "Anchor-10" 493.275 1488.25 basechar 0
AnchorPoint: "Anchor-7" 528.054 -316.15 basechar 0
LayerCount: 2
Fore
SplineSet
1502.88 1360.48 m 1,0,1
 1672.36 1467.99 l 1,2,-1
 1672.36 430.601 l 2,3,-1
 1669.42 370.145 l 0,4,5
 1664.27 297.537 1664.27 297.537 1650.6 261.45 c 0,6,7
 1620.43 181.835 1620.43 181.835 1537.2 122.85 c 0,8,9
 1390.13 18.625 1390.13 18.625 1232.7 2.30957 c 0,10,11
 1017.14 -20.0322 1017.14 -20.0322 973.803 -21.5908 c 20,12,13
 484.457 -39.1904 484.457 -39.1904 289.551 62.6592 c 0,14,15
 89.1641 167.371 89.1641 167.371 95.8682 479.429 c 0,16,17
 98.7002 612.312 98.7002 612.312 153.041 718.361 c 1,18,19
 217.102 718.2 l 1,20,21
 200.741 643.413 200.741 643.413 194.001 582.75 c 0,22,23
 188.521 533.422 188.521 533.422 190.553 476.252 c 0,24,25
 199.089 236.158 199.089 236.158 577.132 182.419 c 0,26,27
 680.273 167.758 680.273 167.758 1011.43 167.131 c 0,28,29
 1120.19 166.996 1120.19 166.996 1203.3 180.809 c 0,30,31
 1524.64 236.232 1524.64 236.232 1540.26 408.298 c 0,32,-1
 1542.19 467.566 l 2,33,34
 1546.22 591.328 1546.22 591.328 1528.31 1019.48 c 0,35,36
 1515.99 1276.68 1515.99 1276.68 1502.88 1360.48 c 1,0,1
1059.07 1295.91 m 1,37,-1
 1059.07 1238.1 l 1,38,39
 981.506 1232.38 981.506 1232.38 938.689 1216.6 c 0,40,41
 830.412 1176.01 830.412 1176.01 830.412 1122.83 c 0,42,43
 830.412 1082.6 830.412 1082.6 851.197 1055.88 c 0,44,45
 870.332 1030.37 870.332 1030.37 959.478 1017.25 c 0,46,47
 1014.45 1009.17 1014.45 1009.17 1042.21 983.826 c 0,48,49
 1069.39 958.991 1069.39 958.991 1069.39 914.412 c 0,50,51
 1069.39 807.454 1069.39 807.454 970.104 751.306 c 0,52,53
 893.453 707.958 893.453 707.958 788.519 706.982 c 0,54,55
 721.808 706.982 721.808 706.982 663.261 716.763 c 1,56,-1
 663.261 781.819 l 1,57,58
 730.885 772.906 730.885 772.906 777.8 772.906 c 0,59,60
 861.062 772.906 861.062 772.906 914.743 794.04 c 0,61,62
 1008.63 830.096 1008.63 830.096 1008.63 890.594 c 0,63,64
 1008.63 959.123 1008.63 959.123 899.624 975.733 c 0,65,66
 836.409 985.365 836.409 985.365 802.182 1020.37 c 128,-1,67
 767.871 1055.46 767.871 1055.46 769.246 1118.76 c 0,68,69
 771.335 1203.25 771.335 1203.25 849.962 1243.09 c 0,70,71
 939.342 1288.32 939.342 1288.32 1059.07 1295.91 c 1,37,-1
EndSplineSet
Substitution2: "'fina' Terminal Forms in Arabic lookup 9 subtable" uniFEDA
Substitution2: "'medi' Medial Forms in Arabic lookup 11 subtable" uniFEDC
Substitution2: "'init' Initial Forms in Arabic lookup 13 subtable" uniFEDB
EndChar

StartChar: uni0644
Encoding: 1604 1604 36
Width: 1454
VWidth: 2359
GlyphClass: 2
Flags: W
AnchorPoint: "Anchor-10" 597.331 1037.46 basechar 0
AnchorPoint: "Anchor-7" 410.396 -646.678 basechar 0
LayerCount: 2
Fore
SplineSet
1211.53 152.764 m 2,0,1
 1214.12 208.364 1214.12 208.364 1179.82 1028.43 c 0,2,3
 1167.51 1285.64 1167.51 1285.64 1154.39 1369.44 c 1,4,-1
 1323.87 1476.95 l 1,5,-1
 1323.87 387.963 l 2,6,7
 1323.87 12.7158 1323.87 12.7158 1320.43 -17.498 c 17,8,9
 1236.28 -513.589 1236.28 -513.589 691.32 -523.575 c 0,10,11
 309.283 -530.573 309.283 -530.573 162.765 -320.092 c 0,12,13
 48.5264 -154.662 48.5264 -154.662 110.78 94.6211 c 0,14,15
 127.19 160.331 127.19 160.331 164.062 268.873 c 0,16,17
 187.064 336.59 187.064 336.59 207.182 379.919 c 1,18,-1
 280.047 338.1 l 1,19,20
 168.462 27.0664 168.462 27.0664 239.919 -123.464 c 0,21,22
 347.087 -351.217 347.087 -351.217 686.876 -345.538 c 0,23,24
 1176.5 -337.249 1176.5 -337.249 1203.17 -10.8486 c 9,25,26
 1205.76 23.5156 1205.76 23.5156 1206.8 51.2354 c 0,27,28
 1211.07 151.199 1211.07 151.199 1211.53 152.764 c 2,0,1
EndSplineSet
Substitution2: "'fina' Terminal Forms in Arabic lookup 9 subtable" uniFEDE
Substitution2: "'medi' Medial Forms in Arabic lookup 11 subtable" uniFEE0
Substitution2: "'init' Initial Forms in Arabic lookup 13 subtable" uniFEDF
EndChar

StartChar: uni0645
Encoding: 1605 1605 37
Width: 1142
VWidth: 2402
GlyphClass: 2
Flags: W
AnchorPoint: "Anchor-10" 624.073 1095.72 basechar 0
AnchorPoint: "Anchor-7" 218.1 -770.589 basechar 0
LayerCount: 2
Fore
SplineSet
833.753 301.696 m 1,0,1
 931.035 294.991 931.035 294.991 911.514 357 c 0,2,3
 859.306 523.017 859.306 523.017 727.362 594.05 c 0,4,5
 612.499 654.73 612.499 654.73 534.824 559.32 c 2,6,-1
 534.693 559.16 l 1,7,8
 476.152 475.536 476.152 475.536 490.315 314.297 c 1,9,-1
 833.753 301.696 l 1,0,1
436.532 147.101 m 0,10,11
 279.39 147.101 279.39 147.101 236.278 63.3428 c 0,12,13
 194.525 -18.0898 194.525 -18.0898 212.152 -144.554 c 0,14,15
 241.026 -351.704 241.026 -351.704 282.435 -578.494 c 0,16,17
 145.053 -690.506 l 1,18,-1
 91.5029 -107.777 l 2,19,20
 77.667 42.7783 77.667 42.7783 137.39 156.45 c 0,21,22
 194.914 265.94 194.914 265.94 345.102 291.872 c 2,23,-1
 349.955 292.71 l 1,24,-1
 349.711 297.63 l 2,25,26
 337.433 545.647 337.433 545.647 463.859 683.016 c 0,27,28
 626.206 857.921 626.206 857.921 843.978 691.62 c 24,29,30
 1025.34 553.776 1025.34 553.776 1050.58 309.796 c 0,31,32
 1060.03 218.446 1060.03 218.446 977.662 145.95 c 0,33,34
 962.554 133.502 962.554 133.502 741.072 140.419 c 0,35,36
 541.788 147.101 541.788 147.101 436.532 147.101 c 0,10,11
EndSplineSet
Substitution2: "'init' Initial Forms in Arabic lookup 13 subtable" uniFEE3
Substitution2: "'medi' Medial Forms in Arabic lookup 11 subtable" uniFEE4
Substitution2: "'fina' Terminal Forms in Arabic lookup 9 subtable" uniFEE2
EndChar

StartChar: uni0647
Encoding: 1607 1607 39
Width: 895
VWidth: 2379
GlyphClass: 2
Flags: W
AnchorPoint: "Anchor-10" 345.269 1233.46 basechar 0
AnchorPoint: "Anchor-7" 305.919 -250.102 basechar 0
LayerCount: 2
Fore
SplineSet
233.672 340.406 m 0,0,1
 195.761 202.985 195.761 202.985 340.541 156.735 c 0,2,3
 451.513 120.55 451.513 120.55 550.201 152.917 c 0,4,5
 694.947 199.434 694.947 199.434 627.301 360.555 c 0,6,7
 571.213 494.045 571.213 494.045 424.072 616.893 c 1,8,9
 258.426 433.568 258.426 433.568 233.672 340.406 c 0,0,1
151.331 468.359 m 24,10,11
 220.005 594.86 220.005 594.86 356.4 715.454 c 1,12,13
 325.965 740.318 l 1,14,15
 405.095 885.374 l 1,16,17
 700.805 628.58 700.805 628.58 774.993 426.97 c 0,18,19
 865.044 183.054 865.044 183.054 703.378 45.9404 c 0,20,21
 622.338 -22.792 622.338 -22.792 457.36 -21.2461 c 0,22,23
 293.765 -19.749 293.765 -19.749 223.051 22.4541 c 0,24,25
 109.465 88.627 109.465 88.627 91.2285 188.404 c 0,26,27
 67.416 316.362 67.416 316.362 151.331 468.359 c 24,10,11
EndSplineSet
Substitution2: "'fina' Terminal Forms in Arabic lookup 9 subtable" uniFEEA
Substitution2: "'medi' Medial Forms in Arabic lookup 11 subtable" uniFEEC
Substitution2: "'init' Initial Forms in Arabic lookup 13 subtable" uniFEEB
EndChar

StartChar: uni0648
Encoding: 1608 1608 40
Width: 839
VWidth: 2401
GlyphClass: 2
Flags: W
AnchorPoint: "Anchor-10" 398.726 1076.28 basechar 0
AnchorPoint: "Anchor-7" 316.389 -770.803 basechar 0
LayerCount: 2
Fore
SplineSet
458.704 430.641 m 0,0,1
 344.276 428.307 344.276 428.307 321.154 284.691 c 0,2,3
 305.79 192.435 305.79 192.435 379.868 162.402 c 0,4,5
 481.282 121.289 481.282 121.289 636.153 170.239 c 1,6,7
 637.778 252.801 637.778 252.801 607.804 318.706 c 0,8,9
 557.235 431.631 557.235 431.631 458.704 430.641 c 0,0,1
626.881 -11.8076 m 1,10,11
 542.933 -33.9531 542.933 -33.9531 441.904 -23.0684 c 0,12,13
 317.912 -9.70898 317.912 -9.70898 260.031 80.5107 c 0,14,15
 208.586 160.825 208.586 160.825 221.182 279.382 c 0,16,17
 239.935 467.267 239.935 467.267 341.104 565.041 c 0,18,19
 396.988 619.049 396.988 619.049 496.504 610.606 c 0,20,21
 568.441 604.142 568.441 604.142 639.304 524.507 c 0,22,23
 724.84 429.946 724.84 429.946 746.071 255.694 c 0,24,25
 767.682 69.085 767.682 69.085 747.631 -24.4072 c 24,26,27
 655.423 -461.913 655.423 -461.913 345.062 -489.116 c 0,28,29
 166.388 -505.338 166.388 -505.338 20.4834 -369.935 c 1,30,31
 540.545 -311.915 540.545 -311.915 626.881 -11.8076 c 1,10,11
EndSplineSet
Substitution2: "'fina' Terminal Forms in Arabic lookup 9 subtable" uniFEEE
EndChar

StartChar: uni0649
Encoding: 1609 1609 41
Width: 1502
VWidth: 2398
GlyphClass: 2
Flags: W
AnchorPoint: "Anchor-10" 439.439 1051.17 basechar 0
AnchorPoint: "Anchor-7" 211.907 -627.29 basechar 0
LayerCount: 2
Fore
SplineSet
1354.95 -148.75 m 4,0,1
 1141.08 -398.746 1141.08 -398.746 731.991 -421.05 c 4,2,3
 161.239 -452.168 161.239 -452.168 91.6719 -99.75 c 5,4,5
 61.0615 63.084 61.0615 63.084 115.608 256.592 c 4,6,7
 140.371 344.434 140.371 344.434 215.083 531.092 c 4,8,9
 236.738 585.195 236.738 585.195 263.383 632.942 c 5,10,11
 338.531 596.192 l 5,12,13
 279.793 446.659 279.793 446.659 266.922 407.072 c 4,14,15
 250.311 355.978 250.311 355.978 231.147 267.993 c 4,16,17
 182.611 46.5186 182.611 46.5186 262.174 -83.9824 c 4,18,19
 378.587 -274.927 378.587 -274.927 794.991 -241.5 c 4,20,21
 1060.95 -220.15 1060.95 -220.15 1193.25 -140.7 c 4,22,23
 1239.44 -112.511 1239.44 -112.511 1265.92 -82.3525 c 4,24,25
 1284.85 -60.7109 1284.85 -60.7109 1290.6 -44.0967 c 4,26,27
 1297.24 -24.8506 1297.24 -24.8506 1280.79 -3.85059 c 4,28,29
 1250.59 34.2451 1250.59 34.2451 1123.84 23.2344 c 4,30,31
 950.057 8.58691 950.057 8.58691 862.211 80.665 c 4,32,33
 750.189 170.77 750.189 170.77 829.95 371.7 c 4,34,35
 961.111 701.28 961.111 701.28 1196.83 722.572 c 4,36,37
 1363.68 738.225 1363.68 738.225 1376.3 574.187 c 6,38,-1
 1378.17 549.898 l 5,39,40
 1141.36 576.731 1141.36 576.731 1031.42 451.5 c 4,41,42
 941.473 349.655 941.473 349.655 949.602 233.407 c 4,43,44
 954.977 161.782 954.977 161.782 1123.23 163.289 c 4,45,46
 1246.76 165.087 1246.76 165.087 1316.49 129.898 c 4,47,48
 1406.23 83.6934 1406.23 83.6934 1410.44 -0.423828 c 4,49,50
 1411.58 -23.1924 1411.58 -23.1924 1408.02 -38.3252 c 4,51,52
 1394.67 -99.5303 1394.67 -99.5303 1354.95 -148.75 c 4,0,1
EndSplineSet
Substitution2: "'fina' Terminal Forms in Arabic lookup 9 subtable" uniFEF0
Substitution2: "'medi' Medial Forms in Arabic lookup 11 subtable" uniFBE9
Substitution2: "'init' Initial Forms in Arabic lookup 13 subtable" uniFBE8
EndChar

StartChar: uni064B
Encoding: 1611 1611 43
Width: 0
VWidth: 2186
GlyphClass: 4
Flags: W
AnchorPoint: "Anchor-10" 547.84 1041.5 mark 0
AnchorPoint: "Anchor-9" 547.84 1041.5 mark 0
AnchorPoint: "Anchor-1" 547.84 1576.5 basemark 0
AnchorPoint: "Anchor-1" 547.84 1041.5 mark 0
LayerCount: 2
Fore
SplineSet
269.4 977.41 m 5,0,-1
 269.4 1104.48 l 5,1,-1
 827.28 1332.79 l 5,2,-1
 827.28 1205.72 l 5,3,-1
 269.4 977.41 l 5,0,-1
269.4 1234.21 m 5,4,-1
 269.4 1361.28 l 5,5,-1
 827.28 1589.59 l 5,6,-1
 827.28 1462.52 l 5,7,-1
 269.4 1234.21 l 5,4,-1
EndSplineSet
EndChar

StartChar: uni064C
Encoding: 1612 1612 44
Width: 0
VWidth: 2186
GlyphClass: 4
Flags: W
AnchorPoint: "Anchor-10" 554.386 1155.44 mark 0
AnchorPoint: "Anchor-9" 554.386 1155.44 mark 0
AnchorPoint: "Anchor-1" 546.386 1810.94 basemark 0
AnchorPoint: "Anchor-1" 554.386 1155.44 mark 0
LayerCount: 2
Fore
SplineSet
567.219 1298.72 m 0,0,1
 608.391 1338.78 608.391 1338.78 631.845 1385.69 c 2,2,-1
 639.364 1400.73 l 1,3,-1
 622.913 1404.22 l 2,4,5
 589.558 1411.29 589.558 1411.29 566.532 1424.31 c 0,6,7
 457.736 1481.73 457.736 1481.73 457.736 1574.47 c 0,8,9
 457.736 1661.08 457.736 1661.08 526.365 1712.8 c 0,10,11
 552.86 1732.67 552.86 1732.67 615.937 1732.67 c 0,12,13
 688.759 1732.67 688.759 1732.67 727.738 1694.66 c 0,14,15
 782.696 1640.71 782.696 1640.71 782.696 1561.63 c 0,16,17
 782.696 1521.9 782.696 1521.9 770.46 1483.15 c 2,18,-1
 765.402 1467.14 l 1,19,-1
 782.175 1466.26 l 2,20,21
 802.247 1465.2 802.247 1465.2 817.806 1465.17 c 0,22,23
 831.205 1464.45 831.205 1464.45 845.826 1464.2 c 1,24,-1
 845.826 1372.44 l 1,25,26
 806.232 1372.69 806.232 1372.69 788.381 1374.48 c 2,27,-1
 723.27 1380.74 l 1,28,-1
 719.537 1371.99 l 2,29,30
 692.652 1308.91 692.652 1308.91 614.12 1227.24 c 1,31,32
 527.043 1139.14 527.043 1139.14 431.896 1139.14 c 0,33,34
 319.02 1139.14 319.02 1139.14 262.205 1295.39 c 0,35,36
 247.89 1334.51 247.89 1334.51 246.994 1442.7 c 1,37,-1
 317.299 1442.7 l 1,38,39
 318.143 1347.11 318.143 1347.11 331.307 1318.59 c 0,40,41
 372.26 1230.84 372.26 1230.84 431.896 1230.84 c 0,42,43
 497.076 1230.84 497.076 1230.84 567.219 1298.72 c 0,0,1
669.292 1482.64 m 1,44,-1
 680.316 1508.36 l 2,45,46
 690.996 1533.28 690.996 1533.28 690.996 1561.63 c 0,47,48
 690.996 1604.15 690.996 1604.15 668.07 1623.02 c 0,49,50
 646.28 1640.97 646.28 1640.97 620.217 1640.97 c 0,51,52
 591.787 1640.97 591.787 1640.97 575.875 1628.63 c 0,53,54
 551.576 1610.34 551.576 1610.34 551.576 1574.47 c 0,55,56
 551.576 1526.08 551.576 1526.08 607.898 1503.55 c 0,57,58
 629.803 1494.79 629.803 1494.79 658.123 1486.08 c 2,59,-1
 669.292 1482.64 l 1,44,-1
EndSplineSet
EndChar

StartChar: uni064D
Encoding: 1613 1613 45
Width: 0
VWidth: 2186
GlyphClass: 4
Flags: W
AnchorPoint: "Anchor-7" 531.84 75.5 mark 0
AnchorPoint: "Anchor-6" 531.84 75.5 mark 0
AnchorPoint: "Anchor-0" 547.84 -439.5 basemark 0
AnchorPoint: "Anchor-0" 531.84 75.5 mark 0
LayerCount: 2
Fore
SplineSet
270.96 -512.18 m 5,0,-1
 270.96 -385.109 l 5,1,-1
 828.84 -156.8 l 5,2,-1
 828.84 -283.87 l 5,3,-1
 270.96 -512.18 l 5,0,-1
270.96 -255.38 m 5,4,-1
 270.96 -128.31 l 5,5,-1
 828.84 100 l 5,6,-1
 828.84 -27.0703 l 5,7,-1
 270.96 -255.38 l 5,4,-1
EndSplineSet
EndChar

StartChar: uni064E
Encoding: 1614 1614 46
Width: 0
VWidth: 2186
GlyphClass: 4
Flags: W
AnchorPoint: "Anchor-10" 517.84 1279.5 mark 0
AnchorPoint: "Anchor-9" 517.84 1279.5 mark 0
AnchorPoint: "Anchor-1" 517.84 1600.5 basemark 0
AnchorPoint: "Anchor-1" 517.84 1279.5 mark 0
LayerCount: 2
Fore
SplineSet
237.4 1237.41 m 1,0,-1
 237.4 1364.48 l 1,1,-1
 795.28 1592.79 l 5,2,-1
 795.28 1465.72 l 1,3,-1
 237.4 1237.41 l 1,0,-1
EndSplineSet
EndChar

StartChar: uni064F
Encoding: 1615 1615 47
Width: 0
VWidth: 2186
GlyphClass: 4
Flags: W
AnchorPoint: "Anchor-10" 531.84 1205.5 mark 0
AnchorPoint: "Anchor-9" 531.84 1205.5 mark 0
AnchorPoint: "Anchor-1" 547.84 1825 basemark 0
AnchorPoint: "Anchor-1" 531.84 1205.5 mark 0
LayerCount: 2
Fore
SplineSet
594.529 1426.81 m 6,0,1
 586.598 1428.57 586.598 1428.57 567.734 1438.5 c 4,2,3
 459.19 1494.78 459.19 1494.78 459.19 1588.53 c 4,4,5
 459.19 1675.14 459.19 1675.14 527.819 1726.86 c 4,6,7
 554.314 1746.73 554.314 1746.73 617.39 1746.73 c 4,8,9
 690.212 1746.73 690.212 1746.73 729.192 1708.72 c 4,10,11
 784.15 1654.77 784.15 1654.77 784.15 1575.69 c 4,12,13
 784.15 1543.43 784.15 1543.43 769.757 1497.16 c 6,14,-1
 764.821 1481.3 l 5,15,-1
 781.407 1480.32 l 6,16,17
 799.81 1479.24 799.81 1479.24 819.259 1478.7 c 4,18,19
 832.229 1478.34 832.229 1478.34 847.28 1478.21 c 5,20,-1
 847.28 1386.53 l 5,21,22
 817.029 1386.85 817.029 1386.85 789.455 1388.57 c 4,23,24
 757.6 1390.7 757.6 1390.7 727.915 1393.88 c 6,25,-1
 720.312 1394.69 l 5,26,-1
 715.905 1388.44 l 6,27,28
 671.45 1325.37 671.45 1325.37 599.88 1281.81 c 4,29,30
 398.294 1157.85 398.294 1157.85 248.4 1152.36 c 5,31,-1
 248.4 1244.01 l 5,32,33
 408.671 1248.65 408.671 1248.65 554.781 1363.22 c 4,34,35
 580.142 1383.07 580.142 1383.07 601.135 1405.16 c 6,36,-1
 616.962 1421.83 l 5,37,-1
 594.529 1426.81 l 6,0,1
670.746 1496.7 m 5,38,-1
 681.77 1522.42 l 6,39,40
 692.45 1547.34 692.45 1547.34 692.45 1575.69 c 4,41,42
 692.45 1618.21 692.45 1618.21 669.524 1637.08 c 4,43,44
 647.734 1655.03 647.734 1655.03 621.67 1655.03 c 4,45,46
 593.241 1655.03 593.241 1655.03 577.329 1642.69 c 4,47,48
 553.03 1624.4 553.03 1624.4 553.03 1588.53 c 4,49,50
 553.03 1540.14 553.03 1540.14 609.352 1517.61 c 4,51,52
 631.256 1508.85 631.256 1508.85 659.577 1500.14 c 6,53,-1
 670.746 1496.7 l 5,38,-1
EndSplineSet
EndChar

StartChar: uni0650
Encoding: 1616 1616 48
Width: 0
VWidth: 2186
GlyphClass: 4
Flags: W
AnchorPoint: "Anchor-7" 467.84 -12.5 mark 0
AnchorPoint: "Anchor-6" 467.84 -12.5 mark 0
AnchorPoint: "Anchor-0" 556.84 -311.5 basemark 0
AnchorPoint: "Anchor-0" 467.84 -12.5 mark 0
LayerCount: 2
Fore
SplineSet
267.96 -356.836 m 1,0,-1
 267.96 -229.766 l 1,1,-1
 825.84 -1.45605 l 1,2,-1
 825.84 -128.526 l 1,3,-1
 267.96 -356.836 l 1,0,-1
EndSplineSet
EndChar

StartChar: uni0651
Encoding: 1617 1617 49
Width: 0
VWidth: 2186
GlyphClass: 4
Flags: W
AnchorPoint: "Anchor-10" 547.84 1316.5 mark 0
AnchorPoint: "Anchor-9" 547.84 1316.5 mark 0
AnchorPoint: "Anchor-1" 535.84 1818.5 basemark 0
AnchorPoint: "Anchor-1" 547.84 1316.5 mark 0
LayerCount: 2
Fore
SplineSet
398.84 1305.99 m 4,0,1
 306.498 1302.93 306.498 1302.93 261.261 1355.91 c 4,2,3
 227 1396.24 227 1396.24 227 1486.07 c 4,4,5
 227 1527.41 227 1527.41 242.222 1626.56 c 5,6,-1
 320.73 1626.56 l 5,7,8
 307.674 1502.98 307.674 1502.98 307.674 1479 c 4,9,10
 307.674 1394.91 307.674 1394.91 398.84 1393.09 c 4,11,12
 497.128 1391.16 497.128 1391.16 506.266 1518.54 c 4,13,14
 508.184 1545.08 508.184 1545.08 508.4 1680.83 c 5,15,-1
 589.06 1680.83 l 5,16,17
 588.775 1624.49 588.775 1624.49 589.34 1597.53 c 4,18,19
 594.84 1448.99 594.84 1448.99 700.84 1452.09 c 4,20,21
 790.089 1453.28 790.089 1453.28 783.674 1604 c 4,22,23
 779.218 1710.94 779.218 1710.94 774.521 1770.1 c 5,24,-1
 857.705 1770.1 l 5,25,26
 868.68 1694.87 868.68 1694.87 868.68 1580.87 c 4,27,28
 868.68 1504.29 868.68 1504.29 843.84 1449.99 c 4,29,30
 804.992 1364.89 804.992 1364.89 713.84 1360.49 c 4,31,32
 611.451 1355.49 611.451 1355.49 554.84 1431.09 c 5,33,34
 519.173 1310.01 519.173 1310.01 398.84 1305.99 c 4,0,1
EndSplineSet
EndChar

StartChar: uni0652
Encoding: 1618 1618 50
Width: 0
VWidth: 2186
GlyphClass: 4
Flags: W
AnchorPoint: "Anchor-10" 565.84 1128.5 mark 0
AnchorPoint: "Anchor-9" 565.84 1128.5 mark 0
AnchorPoint: "Anchor-1" 551.84 1702 basemark 0
AnchorPoint: "Anchor-1" 565.84 1128.5 mark 0
LayerCount: 2
Fore
SplineSet
674.569 1383.62 m 0,0,1
 674.569 1428.15 674.569 1428.15 643.439 1459.28 c 128,-1,2
 612.312 1490.41 612.312 1490.41 567.126 1490.41 c 0,3,4
 521.285 1490.41 521.285 1490.41 490.485 1459.61 c 128,-1,5
 459.685 1428.81 459.685 1428.81 459.685 1383.62 c 0,6,7
 459.685 1337.78 459.685 1337.78 490.485 1306.98 c 128,-1,8
 521.285 1276.18 521.285 1276.18 567.126 1276.18 c 0,9,10
 612.314 1276.18 612.314 1276.18 643.439 1307.31 c 128,-1,11
 674.569 1338.44 674.569 1338.44 674.569 1383.62 c 0,0,1
750.396 1383.73 m 128,-1,13
 750.396 1306.88 750.396 1306.88 697.316 1253.46 c 128,-1,14
 644.259 1200.07 644.259 1200.07 567.436 1200.07 c 128,-1,15
 490.613 1200.07 490.613 1200.07 437.557 1253.46 c 128,-1,16
 384.476 1306.88 384.476 1306.88 384.476 1383.73 c 128,-1,17
 384.476 1460.56 384.476 1460.56 437.537 1513.63 c 128,-1,18
 490.596 1566.69 490.596 1566.69 567.436 1566.69 c 128,-1,19
 644.276 1566.69 644.276 1566.69 697.335 1513.63 c 128,-1,12
 750.396 1460.56 750.396 1460.56 750.396 1383.73 c 128,-1,13
EndSplineSet
EndChar

StartChar: uni0653
Encoding: 1619 1619 51
Width: 0
VWidth: 2186
GlyphClass: 4
Flags: W
AnchorPoint: "Anchor-10" 442.84 1264.52 mark 0
AnchorPoint: "Anchor-9" 442.84 1264.52 mark 0
AnchorPoint: "Anchor-1" 442.84 1600.5 basemark 0
AnchorPoint: "Anchor-1" 442.84 1264.52 mark 0
LayerCount: 2
Fore
SplineSet
199.483 1394 m 0,0,1
 252.229 1436.43 252.229 1436.43 336.912 1417.1 c 0,2,3
 433.642 1395.02 433.642 1395.02 528.483 1416 c 0,4,5
 598.038 1431.38 598.038 1431.38 620.704 1466.43 c 2,6,-1
 627.747 1477.32 l 1,7,-1
 633.219 1443.81 l 2,8,9
 638.573 1411.02 638.573 1411.02 614.483 1374 c 4,10,11
 597.163 1348.37 597.163 1348.37 562.483 1332 c 0,12,13
 500.242 1304.01 500.242 1304.01 297.66 1326.58 c 0,14,15
 245.85 1332.42 245.85 1332.42 186.455 1251.19 c 2,16,-1
 181.227 1244.04 l 1,17,-1
 175.195 1258.45 l 2,18,19
 138.865 1345.24 138.865 1345.24 199.483 1394 c 0,0,1
EndSplineSet
EndChar

StartChar: uni0657
Encoding: 1623 1623 54
Width: 0
VWidth: 2186
GlyphClass: 4
Flags: W
AnchorPoint: "Anchor-10" 547.84 1279.5 mark 0
AnchorPoint: "Anchor-9" 547.84 1279.5 mark 0
AnchorPoint: "Anchor-1" 547.84 1975 basemark 0
AnchorPoint: "Anchor-1" 547.84 1279.5 mark 0
LayerCount: 2
Fore
SplineSet
501.148 1675.55 m 2,0,1
 509.083 1673.79 509.083 1673.79 527.945 1663.86 c 0,2,3
 636.49 1607.58 636.49 1607.58 636.49 1513.83 c 0,4,5
 636.49 1427.22 636.49 1427.22 567.86 1375.5 c 0,6,7
 541.366 1355.63 541.366 1355.63 478.29 1355.63 c 0,8,9
 405.468 1355.63 405.468 1355.63 366.487 1393.64 c 0,10,11
 311.53 1447.59 311.53 1447.59 311.53 1526.67 c 0,12,13
 311.53 1558.94 311.53 1558.94 325.923 1605.2 c 2,14,-1
 330.858 1621.06 l 1,15,-1
 314.272 1622.04 l 2,16,17
 295.871 1623.12 295.871 1623.12 276.421 1623.66 c 0,18,19
 263.452 1624.02 263.452 1624.02 248.4 1624.15 c 1,20,-1
 248.4 1715.83 l 1,21,22
 278.631 1715.51 278.631 1715.51 306.226 1713.79 c 0,23,24
 338.082 1711.66 338.082 1711.66 367.766 1708.48 c 2,25,-1
 375.369 1707.67 l 1,26,-1
 379.775 1713.92 l 2,27,28
 424.231 1776.99 424.231 1776.99 495.801 1820.55 c 0,29,30
 697.387 1944.51 697.387 1944.51 847.28 1950 c 1,31,-1
 847.28 1858.35 l 1,32,33
 687.009 1853.71 687.009 1853.71 540.898 1739.14 c 0,34,35
 515.54 1719.29 515.54 1719.29 494.545 1697.2 c 2,36,-1
 478.72 1680.54 l 1,37,-1
 501.148 1675.55 l 2,0,1
424.935 1605.66 m 1,38,-1
 413.911 1579.94 l 2,39,40
 403.23 1555.02 403.23 1555.02 403.23 1526.67 c 0,41,42
 403.23 1484.16 403.23 1484.16 426.155 1465.28 c 0,43,44
 447.946 1447.33 447.946 1447.33 474.01 1447.33 c 0,45,46
 502.438 1447.33 502.438 1447.33 518.352 1459.67 c 0,47,48
 542.65 1477.96 542.65 1477.96 542.65 1513.83 c 0,49,50
 542.65 1562.22 542.65 1562.22 486.328 1584.75 c 0,51,52
 464.442 1593.51 464.442 1593.51 436.104 1602.22 c 2,53,-1
 424.935 1605.66 l 1,38,-1
EndSplineSet
EndChar

StartChar: uni065A
Encoding: 1626 1626 55
Width: 1149
VWidth: 2295
GlyphClass: 4
Flags: W
AnchorPoint: "Anchor-10" 575.232 1343.47 mark 0
AnchorPoint: "Anchor-9" 575.232 1343.47 mark 0
AnchorPoint: "Anchor-1" 572.985 1849.05 basemark 0
AnchorPoint: "Anchor-1" 575.232 1343.47 mark 0
LayerCount: 2
Fore
SplineSet
499.834 1426.78 m 1,0,-1
 297.081 1765.74 l 1,1,-1
 421.872 1765.74 l 1,2,-1
 575.232 1535.7 l 1,3,-1
 728.591 1765.74 l 1,4,-1
 853.383 1765.74 l 1,5,-1
 650.628 1426.78 l 1,6,-1
 499.834 1426.78 l 1,0,-1
EndSplineSet
EndChar

StartChar: afii57392
Encoding: 1632 1632 56
Width: 1255
VWidth: 2266
GlyphClass: 2
Flags: W
LayerCount: 2
Fore
SplineSet
519.142 560.393 m 128,-1,1
 519.142 515.217 519.142 515.217 551.517 482.842 c 128,-1,2
 583.892 450.467 583.892 450.467 629.067 450.467 c 128,-1,3
 674.244 450.467 674.244 450.467 706.618 482.842 c 128,-1,4
 738.994 515.217 738.994 515.217 738.994 560.393 c 128,-1,5
 738.994 605.565 738.994 605.565 706.618 637.942 c 128,-1,6
 674.244 670.319 674.244 670.319 629.067 670.319 c 128,-1,7
 583.894 670.319 583.894 670.319 551.517 637.942 c 128,-1,0
 519.142 605.565 519.142 605.565 519.142 560.393 c 128,-1,1
366.95 557.09 m 128,-1,9
 366.95 667.333 366.95 667.333 444.778 745.613 c 128,-1,10
 522.554 823.847 522.554 823.847 632.044 823.847 c 128,-1,11
 741.54 823.847 741.54 823.847 819.312 745.613 c 128,-1,12
 897.139 667.332 897.139 667.332 897.139 557.09 c 128,-1,13
 897.139 446.84 897.139 446.84 819.312 368.566 c 128,-1,14
 741.531 290.336 741.531 290.336 632.044 290.336 c 128,-1,15
 522.553 290.336 522.553 290.336 444.778 368.566 c 128,-1,8
 366.95 446.847 366.95 446.847 366.95 557.09 c 128,-1,9
EndSplineSet
EndChar

StartChar: afii57393
Encoding: 1633 1633 57
Width: 1255
VWidth: 2264
GlyphClass: 2
Flags: W
LayerCount: 2
Fore
SplineSet
670.055 -35.4697 m 6,0,-1
 649.613 -42.2451 l 5,1,2
 608.766 727.566 608.766 727.566 413.212 1255.22 c 1,3,-1
 543.312 1414.51 l 1,4,5
 755.431 980.416 755.431 980.416 753.869 194.885 c 4,6,7
 753.473 -7.82049 753.473 -7.82049 670.055 -35.4697 c 6,0,-1
EndSplineSet
EndChar

StartChar: afii57394
Encoding: 1634 1634 58
Width: 1255
VWidth: 2121
GlyphClass: 2
Flags: W
LayerCount: 2
Fore
SplineSet
292.279 1415.62 m 1,0,1
 337.494 1304.59 337.494 1304.59 372.326 1237.03 c 0,2,3
 454.426 1078.9 454.426 1078.9 606.916 1062.42 c 0,4,5
 858.831 1034.71 858.831 1034.71 919.797 1259.09 c 0,6,7
 939.005 1329.78 939.005 1329.78 954.469 1412.69 c 1,8,9
 1069.56 1375.85 l 1,10,11
 1069.12 1314.61 1069.12 1314.61 1038.36 1198.56 c 0,12,13
 955.011 884.073 955.011 884.073 659.158 870.688 c 0,14,15
 563.669 866.364 563.669 866.364 504.497 885.286 c 1,16,17
 589.211 634.986 589.211 634.986 588.311 239.688 c 0,18,19
 587.754 -11.4336 587.754 -11.4336 507.563 -32.5693 c 2,20,-1
 472.658 -41.7686 l 5,21,22
 464.352 409.363 464.352 409.363 354.247 807.606 c 0,23,24
 317.569 939.531 317.569 939.531 154.07 1310.98 c 0,25,-1
 292.279 1415.62 l 1,0,1
EndSplineSet
EndChar

StartChar: afii57395
Encoding: 1635 1635 59
Width: 1255
VWidth: 2121
GlyphClass: 2
Flags: W
LayerCount: 2
Fore
SplineSet
453.555 887.659 m 1,0,1
 539.292 637.216 539.292 637.216 538.391 241.039 c 0,2,3
 537.832 -11.8213 537.832 -11.8213 455.586 -33.4971 c 2,4,-1
 420.682 -42.6973 l 1,5,6
 412.354 408.431 412.354 408.431 302.269 807.7 c 0,7,8
 265.594 939.624 265.594 939.624 102.092 1311.07 c 0,9,-1
 240.302 1415.71 l 5,10,11
 273.629 1333.88 273.629 1333.88 320.348 1237.11 c 8,12,13
 394.423 1083.68 394.423 1083.68 503.104 1066.04 c 0,14,15
 586.52 1052.5 586.52 1052.5 636.002 1094.12 c 0,16,17
 697.648 1145.97 697.648 1145.97 697.648 1341.68 c 1,18,-1
 793.797 1366.29 l 1,19,20
 796.124 1185.3 796.124 1185.3 810.365 1148.65 c 0,21,22
 843.251 1063.24 843.251 1063.24 926.28 1062.43 c 24,23,24
 1040.37 1062.71 1040.37 1062.71 1067.63 1196.4 c 0,25,26
 1086.17 1286.58 1086.17 1286.58 1083.99 1423.6 c 1,27,-1
 1209.53 1398.35 l 1,28,29
 1212.27 1257.21 1212.27 1257.21 1184.15 1132.02 c 0,30,31
 1131.44 895.59 1131.44 895.59 960.307 883.633 c 0,32,33
 819.898 873.177 819.898 873.177 752.729 1004.42 c 1,34,35
 705.51 887.328 705.51 887.328 552.76 872.764 c 0,36,37
 518.519 869.501 518.519 869.501 453.555 887.659 c 1,0,1
EndSplineSet
EndChar

StartChar: afii57396
Encoding: 1636 1636 60
Width: 1255
VWidth: 2261
GlyphClass: 2
Flags: W
LayerCount: 2
Fore
SplineSet
799.494 1223.31 m 5,1,2
 656.398 1262.15 656.398 1262.15 556.232 1229.45 c 5,3,4
 420.058 1174.29 420.058 1174.29 430.169 1037.84 c 4,5,6
 438.747 921.115 438.747 921.115 592.106 863.052 c 4,7,8
 634.131 847.14 634.131 847.14 783.541 832.082 c 5,9,10
 819.058 773.527 819.058 773.527 817.014 685.628 c 5,11,12
 648.443 658.359 648.443 658.359 518.66 580.82 c 4,13,14
 382.422 499.423 382.422 499.423 376.824 400.335 c 4,15,16
 359.007 114.124 359.007 114.124 812.312 176.085 c 4,17,18
 901.789 188.41 901.789 188.41 1035.92 252.275 c 5,19,-1
 1023.42 175.83 l 6,20,21
 1005.08 63.5771 1005.08 63.5771 850.403 23.2891 c 4,22,23
 793.675 8.51172 793.675 8.51172 724.886 4.03027 c 4,24,25
 285.696 -24.5908 285.696 -24.5908 223.848 273.126 c 4,26,27
 186.052 457.753 186.052 457.753 297.844 592.943 c 4,28,29
 391.018 705.622 391.018 705.622 548.016 753.583 c 5,30,31
 295.625 806.639 295.625 806.639 270.041 1004.58 c 4,32,33
 237.284 1251.13 237.284 1251.13 445.844 1342.07 c 4,34,35
 512.768 1371.25 512.768 1371.25 588.061 1374.57 c 4,36,37
 691.942 1378.63 691.942 1378.63 778.172 1356.16 c 5,38,39
 793.505 1331.85 793.505 1331.85 799.494 1223.31 c 5,1,2
EndSplineSet
EndChar

StartChar: afii57397
Encoding: 1637 1637 61
Width: 1255
VWidth: 2263
GlyphClass: 2
Flags: W
LayerCount: 2
Fore
SplineSet
380.201 772.493 m 4,0,1
 300.273 638.926 300.273 638.926 293.54 497.976 c 4,2,3
 285.363 326.904 285.363 326.904 382.61 249.188 c 4,4,5
 472.737 177.148 472.737 177.148 650.146 176.363 c 4,6,7
 848.431 175.483 848.431 175.483 916.432 288.552 c 4,8,9
 973.76 385.45 973.76 385.45 961.726 529.033 c 4,10,11
 948.561 694.636 948.561 694.636 819.578 848.248 c 4,12,13
 717.356 970.213 717.356 970.213 602.514 1030.46 c 5,14,15
 468.364 922.812 468.364 922.812 380.201 772.493 c 4,0,1
523.532 1297.67 m 5,16,17
 630.376 1237.11 630.376 1237.11 763.486 1118.93 c 4,18,19
 903.908 994.259 903.908 994.259 982.041 864.943 c 4,20,21
 1080.89 705.073 1080.89 705.073 1088.82 513.716 c 4,22,23
 1099.93 267.264 1099.93 267.264 998.928 154.124 c 4,24,25
 879.583 19.1016 879.583 19.1016 629.501 20.1289 c 5,26,27
 375.753 20.1289 375.753 20.1289 260.171 154.01 c 4,28,29
 140.881 293.119 140.881 293.119 166.34 513.343 c 4,30,31
 186.941 689.604 186.941 689.604 269.389 840.329 c 4,32,33
 363.559 1013.18 363.559 1013.18 484.833 1119.4 c 5,34,-1
 450.224 1141.25 l 21,35,36
 523.532 1297.67 l 5,16,17
EndSplineSet
EndChar

StartChar: afii57398
Encoding: 1638 1638 62
Width: 1255
VWidth: 2263
GlyphClass: 2
Flags: W
LayerCount: 2
Fore
SplineSet
929.203 1348.28 m 1,0,1
 930.272 1068.64 930.272 1068.64 972.146 686.531 c 0,2,3
 1006.46 373.415 1006.46 373.415 1108.62 -40.2646 c 5,4,-1
 1072.11 -40.2646 l 2,5,6
 924.19 -40.2646 924.19 -40.2646 882.722 180.137 c 0,7,8
 831.452 447.754 831.452 447.754 809.092 690.386 c 0,9,10
 775.482 1047.94 775.482 1047.94 774.397 1126.02 c 2,11,-1
 774.041 1151.64 l 1,12,-1
 749.438 1144.47 l 2,13,14
 650.409 1115.61 650.409 1115.61 491.769 1115.61 c 0,15,16
 371.856 1115.61 371.856 1115.61 258.728 1131.97 c 0,17,18
 98.5391 1154.53 98.5391 1154.53 98.5391 1293.46 c 2,19,-1
 98.5391 1347.45 l 1,20,21
 296.927 1295.46 296.927 1295.46 478.989 1295.46 c 0,22,23
 699.109 1295.46 699.109 1295.46 929.203 1348.28 c 1,0,1
EndSplineSet
EndChar

StartChar: afii57399
Encoding: 1639 1639 63
Width: 1255
VWidth: 2264
GlyphClass: 2
Flags: W
LayerCount: 2
Fore
SplineSet
963.705 1370.58 m 5,0,1
 1077.15 1229.78 l 5,2,3
 903.685 974.703 903.685 974.703 829.295 657.336 c 4,4,5
 719.503 183.036 719.503 183.036 689.554 -32.6084 c 5,6,-1
 553.042 -32.6084 l 5,7,8
 551.365 116.053 551.365 116.053 420.233 636.9 c 4,9,10
 341.748 948.639 341.748 948.639 149.08 1229.78 c 5,11,12
 271.735 1370.58 l 5,13,14
 424.127 1181.45 424.127 1181.45 541.085 759.056 c 4,15,16
 605.738 525.562 605.738 525.562 620.784 369.101 c 5,17,18
 629.732 481.952 629.732 481.952 703.574 759.547 c 4,19,20
 813.963 1174.52 813.963 1174.52 963.705 1370.58 c 5,0,1
EndSplineSet
EndChar

StartChar: afii57400
Encoding: 1640 1640 64
Width: 1255
VWidth: 2264
GlyphClass: 2
Flags: W
LayerCount: 2
Fore
SplineSet
963.705 -31.6084 m 5,0,1
 812.027 166.972 812.027 166.972 703.574 579.416 c 4,2,3
 630.955 857.011 630.955 857.011 620.784 980.362 c 5,4,5
 601.666 800.387 601.666 800.387 541.085 579.907 c 4,6,7
 424.127 157.512 424.127 157.512 271.735 -31.6084 c 5,8,-1
 149.08 109.178 l 5,9,10
 341.748 390.324 341.748 390.324 420.233 702.062 c 4,11,12
 551.498 1223.87 551.498 1223.87 553.042 1371.58 c 5,13,-1
 689.554 1371.58 l 5,14,15
 727.918 1106.92 727.918 1106.92 829.295 681.627 c 4,16,17
 905.626 361.406 905.626 361.406 1077.15 109.178 c 5,18,-1
 963.705 -31.6084 l 5,0,1
EndSplineSet
EndChar

StartChar: afii57401
Encoding: 1641 1641 65
Width: 1255
VWidth: 2264
GlyphClass: 2
Flags: W
LayerCount: 2
Fore
SplineSet
604.854 618.48 m 0,0,1
 329.112 635.471 329.112 635.471 220.694 761.96 c 0,2,3
 132.924 865.552 132.924 865.552 132.924 984.25 c 0,4,5
 132.924 1152.86 132.924 1152.86 234.086 1263.81 c 0,6,7
 350.169 1391.13 350.169 1391.13 538.878 1391.13 c 0,8,9
 707.79 1391.13 707.79 1391.13 793.815 1308.18 c 0,10,11
 922.505 1183.01 922.505 1183.01 937.542 981.104 c 0,12,13
 949.451 820.325 949.451 820.325 970.091 649.812 c 0,14,15
 1010.85 303.697 1010.85 303.697 1100.28 -42.4473 c 5,16,-1
 1078.59 -42.4473 l 6,17,18
 938.573 -42.4473 938.573 -42.4473 888.486 209.391 c 0,19,20
 863.376 335.642 863.376 335.642 823.84 619.576 c 1,21,22
 717.623 611.474 717.623 611.474 604.854 618.48 c 0,0,1
805.696 792.106 m 1,23,-1
 798.541 897.297 l 2,24,25
 788.75 1041.24 788.75 1041.24 746.51 1105.09 c 1,26,27
 663.054 1222.3 663.054 1222.3 538.542 1222.3 c 0,28,29
 439.09 1222.3 439.09 1222.3 367.342 1153.09 c 0,30,31
 300.833 1088.95 300.833 1088.95 296.457 994.133 c 0,32,33
 292.152 907.899 292.152 907.899 364.145 845.256 c 0,34,35
 401.394 812.843 401.394 812.843 496.51 796.166 c 0,36,37
 630.021 772.755 630.021 772.755 805.696 792.106 c 1,23,-1
EndSplineSet
EndChar

StartChar: afii57381
Encoding: 1642 1642 66
Width: 1177
VWidth: 2186
GlyphClass: 2
Flags: W
LayerCount: 2
Fore
SplineSet
459.39 1287.05 m 2,0,-1
 459.39 1158.05 l 2,1,2
 459.39 1121.05 459.39 1121.05 429.39 1121.04 c 2,3,-1
 302.391 1121.05 l 2,4,5
 268.39 1121.05 268.39 1121.05 268.39 1159.05 c 2,6,-1
 268.39 1287.05 l 2,7,8
 268.39 1319.05 268.39 1319.05 306.39 1319.05 c 2,9,-1
 421.39 1319.05 l 2,10,11
 459.39 1319.05 459.39 1319.05 459.39 1287.05 c 2,0,-1
911.192 233.849 m 2,12,-1
 911.192 104.849 l 2,13,14
 911.192 67.8477 911.192 67.8477 881.192 67.8477 c 2,15,-1
 754.192 67.8477 l 2,16,17
 720.192 67.8477 720.192 67.8477 720.192 105.848 c 2,18,-1
 720.192 233.849 l 2,19,20
 720.192 265.848 720.192 265.848 758.192 265.848 c 2,21,-1
 873.192 265.848 l 2,22,23
 911.192 265.848 911.192 265.848 911.192 233.849 c 2,12,-1
871.394 1373.5 m 1,24,-1
 983.001 1316 l 1,25,-1
 301 0 l 1,26,-1
 190 61 l 1,27,-1
 871.394 1373.5 l 1,24,-1
EndSplineSet
EndChar

StartChar: uni066B
Encoding: 1643 1643 67
Width: 711
VWidth: 2186
GlyphClass: 2
Flags: W
LayerCount: 2
Fore
SplineSet
443.218 502.139 m 1,0,-1
 568.799 501.203 l 1,1,2
 342.799 113.203 342.799 113.203 130 -230.265 c 1,3,-1
 1.59766 -228.502 l 1,4,5
 94.7988 -78.7969 94.7988 -78.7969 443.218 502.139 c 1,0,-1
EndSplineSet
EndChar

StartChar: uni066C
Encoding: 1644 1644 68
Width: 696
VWidth: 2186
GlyphClass: 2
Flags: W
LayerCount: 2
Fore
SplineSet
291.2 1580.01 m 1,0,-1
 490.97 1580.01 l 1,1,-1
 490.97 1433.52 l 1,2,-1
 320.557 1102.04 l 1,3,-1
 207.225 1102.04 l 1,4,-1
 291.2 1428.73 l 1,5,-1
 291.2 1580.01 l 1,0,-1
EndSplineSet
EndChar

StartChar: afii63167
Encoding: 1645 1645 69
Width: 1194
VWidth: 2186
GlyphClass: 2
Flags: W
LayerCount: 2
Fore
SplineSet
132.901 794.63 m 1,0,-1
 486.633 794.63 l 1,1,-1
 597.061 1130.84 l 1,2,-1
 707.487 794.63 l 1,3,-1
 1061.22 794.63 l 1,4,-1
 775.453 585.725 l 1,5,-1
 884.797 249.809 l 1,6,-1
 597.061 457.729 l 1,7,-1
 309.323 249.809 l 1,8,-1
 418.667 585.725 l 1,9,-1
 132.901 794.63 l 1,0,-1
EndSplineSet
EndChar

StartChar: uni066E
Encoding: 1646 1646 70
Width: 1698
VWidth: 2383
GlyphClass: 2
Flags: W
AnchorPoint: "Anchor-10" 717.642 1126.35 basechar 0
AnchorPoint: "Anchor-7" 461.653 -276.595 basechar 0
LayerCount: 2
Fore
SplineSet
1379.43 653.781 m 1,0,1
 1530.12 790.511 l 1,2,3
 1595.73 593.214 1595.73 593.214 1606.87 415.212 c 0,4,5
 1621.77 177.131 1621.77 177.131 1498.47 104.201 c 0,6,7
 1369.38 27.4697 1369.38 27.4697 1137.78 -3.44043 c 0,8,9
 1029.74 -17.8594 1029.74 -17.8594 972.042 -19.5811 c 16,10,11
 481.332 -39.4961 481.332 -39.4961 285.551 62.6592 c 0,12,13
 85.1641 167.371 85.1641 167.371 91.8682 479.429 c 0,14,15
 94.7002 612.312 94.7002 612.312 149.041 718.361 c 1,16,-1
 207.463 688.384 l 1,17,18
 196.963 650.54 196.963 650.54 190.001 582.75 c 0,19,20
 185.561 521.747 185.561 521.747 186.553 476.252 c 0,21,22
 195.704 218.856 195.704 218.856 573.132 182.419 c 0,23,24
 722.487 168 722.487 168 1011.24 170.69 c 1,25,26
 1163.02 176.188 1163.02 176.188 1247.6 192.964 c 0,27,28
 1383.06 219.832 1383.06 219.832 1466.35 265.227 c 0,29,30
 1527.65 299.333 1527.65 299.333 1492.25 391.65 c 1,31,-1
 1379.43 653.781 l 1,0,1
EndSplineSet
Substitution2: "'init' Initial Forms in Arabic lookup 13 subtable" uni066E.init
Substitution2: "'medi' Medial Forms in Arabic lookup 11 subtable" uni066E.medi
Substitution2: "'fina' Terminal Forms in Arabic lookup 9 subtable" uni066E.fina
EndChar

StartChar: uni066F
Encoding: 1647 1647 71
Width: 1435
VWidth: 2401
GlyphClass: 2
Flags: W
AnchorPoint: "Anchor-10" 325.138 1129.65 basechar 0
AnchorPoint: "Anchor-7" 463.151 -705.124 basechar 0
LayerCount: 2
Fore
SplineSet
1051.69 529.2 m 0,0,1
 939.535 526.911 939.535 526.911 914.145 383.25 c 0,2,3
 897.062 283.386 897.062 283.386 974.781 257.479 c 0,4,5
 1085.03 220.729 1085.03 220.729 1229.14 268.798 c 1,6,7
 1230.77 351.358 1230.77 351.358 1200.79 417.266 c 0,8,9
 1150.22 530.19 1150.22 530.19 1051.69 529.2 c 0,0,1
1326.32 -30.3115 m 24,10,11
 1218.84 -463.249 1218.84 -463.249 663.923 -474.524 c 0,12,13
 307.287 -481.433 307.287 -481.433 162.065 -279.141 c 0,14,15
 42.5518 -113.787 42.5518 -113.787 110.08 166.021 c 0,16,17
 133.749 264.097 133.749 264.097 159.162 340.274 c 0,18,19
 180.55 403.335 180.55 403.335 207.308 471.585 c 1,20,-1
 289.57 425.25 l 1,21,22
 162.694 108.25 162.694 108.25 239.22 -82.5117 c 0,23,24
 321.086 -289.407 321.086 -289.407 647.327 -296.188 c 0,25,26
 1178.86 -307.233 1178.86 -307.233 1219.87 86.751 c 1,27,28
 1139.37 65.5156 1139.37 65.5156 1034.89 75.4902 c 0,29,30
 911.938 87.2305 911.938 87.2305 853.021 179.069 c 0,31,32
 801.574 259.384 801.574 259.384 814.17 377.94 c 0,33,34
 834.271 567.127 834.271 567.127 934.094 663.6 c 0,35,36
 989.977 717.607 989.977 717.607 1089.49 709.166 c 0,37,38
 1161.43 702.7 1161.43 702.7 1232.29 623.065 c 0,39,40
 1317.83 528.505 1317.83 528.505 1339.06 354.252 c 0,41,42
 1366.29 130.718 1366.29 130.718 1326.32 -30.3115 c 24,10,11
EndSplineSet
Substitution2: "'init' Initial Forms in Arabic lookup 13 subtable" uni066F.init
Substitution2: "'medi' Medial Forms in Arabic lookup 11 subtable" uni066F.medi
Substitution2: "'fina' Terminal Forms in Arabic lookup 9 subtable" uni066F.fina
EndChar

StartChar: uni0670
Encoding: 1648 1648 72
Width: 0
VWidth: 2186
GlyphClass: 4
Flags: W
AnchorPoint: "Anchor-10" 547.84 1279.5 mark 0
AnchorPoint: "Anchor-9" 547.84 1279.5 mark 0
AnchorPoint: "Anchor-1" 547.84 1884 basemark 0
AnchorPoint: "Anchor-1" 547.84 1279.5 mark 0
LayerCount: 2
Fore
SplineSet
525.99 1327.81 m 5,0,-1
 501.99 1781.69 l 5,1,-1
 593.69 1835.69 l 5,2,-1
 593.69 1327.81 l 5,3,-1
 525.99 1327.81 l 5,0,-1
EndSplineSet
EndChar

StartChar: uni0674
Encoding: 1652 1652 73
Width: 639
VWidth: 2186
GlyphClass: 2
Flags: W
LayerCount: 2
Fore
SplineSet
143.54 1515.26 m 1,0,-1
 254.306 1540.82 l 1,1,2
 145.68 1590.21 145.68 1590.21 145.68 1692.52 c 0,3,4
 145.68 1765.8 145.68 1765.8 206 1819 c 0,5,6
 256.995 1863.48 256.995 1863.48 343 1864 c 0,7,8
 410.823 1864 410.823 1864 462.08 1833.81 c 1,9,-1
 462.08 1756.8 l 1,10,11
 392.61 1790.01 392.61 1790.01 337.045 1784.3 c 4,12,13
 226.549 1773.03 226.549 1773.03 220.26 1701.08 c 0,14,15
 212.646 1612.93 212.646 1612.93 330.161 1577.33 c 0,16,17
 366.368 1566.36 366.368 1566.36 484.55 1593.69 c 1,18,-1
 484.55 1511.4 l 1,19,-1
 143.54 1434.84 l 1,20,-1
 143.54 1515.26 l 1,0,-1
EndSplineSet
EndChar

StartChar: uni06A1
Encoding: 1697 1697 77
Width: 1731
VWidth: 2401
GlyphClass: 2
Flags: W
AnchorPoint: "Anchor-10" 506.587 1313.37 basechar 0
AnchorPoint: "Anchor-7" 625.678 -220.525 basechar 0
LayerCount: 2
Fore
SplineSet
1350.48 812.255 m 4,0,1
 1238.33 809.966 1238.33 809.966 1212.93 666.306 c 4,2,3
 1197.46 575.896 1197.46 575.896 1273.57 540.535 c 4,4,5
 1378.57 493.285 1378.57 493.285 1527.93 551.854 c 5,6,7
 1529.56 634.415 1529.56 634.415 1499.58 700.321 c 4,8,9
 1449.01 813.246 1449.01 813.246 1350.48 812.255 c 4,0,1
1528.11 369.807 m 5,10,11
 1439.52 347.145 1439.52 347.145 1333.68 358.547 c 4,12,13
 1209.68 371.903 1209.68 371.903 1151.81 462.125 c 4,14,15
 1100.36 542.439 1100.36 542.439 1112.96 660.997 c 4,16,17
 1131.71 848.88 1131.71 848.88 1232.88 946.654 c 4,18,19
 1288.77 1000.66 1288.77 1000.66 1388.28 992.222 c 4,20,21
 1460.21 985.756 1460.21 985.756 1531.08 906.122 c 4,22,23
 1616.61 811.561 1616.61 811.561 1637.85 637.308 c 4,24,25
 1657.25 469.833 1657.25 469.833 1639.41 357.207 c 28,26,27
 1605.8 144.96 1605.8 144.96 1441.18 52.2881 c 4,28,29
 1326.48 -12.2588 1326.48 -12.2588 972.042 -21.6807 c 28,30,31
 451.322 -35.4805 451.322 -35.4805 286.501 51.6943 c 4,32,33
 84.9443 157.867 84.9443 157.867 91.8682 479.429 c 4,34,35
 94.7002 612.312 94.7002 612.312 149.041 718.361 c 5,36,-1
 207.05 688.384 l 5,37,38
 197.6 654.538 197.6 654.538 190.001 582.75 c 4,39,40
 184.521 533.422 184.521 533.422 186.553 476.252 c 4,41,42
 195.523 230.801 195.523 230.801 551.102 178.743 c 4,43,44
 638.3 165.979 638.3 165.979 1007.43 166.081 c 5,45,46
 1281.48 172.24 1281.48 172.24 1371.88 203.488 c 4,47,48
 1524.08 255.684 1524.08 255.684 1528.11 369.807 c 5,10,11
EndSplineSet
Substitution2: "'init' Initial Forms in Arabic lookup 13 subtable" uni06A1.init
Substitution2: "'medi' Medial Forms in Arabic lookup 11 subtable" uni06A1.medi
Substitution2: "'fina' Terminal Forms in Arabic lookup 9 subtable" uni06A1.fina
EndChar

StartChar: uni06A9
Encoding: 1705 1705 78
Width: 1855
VWidth: 2384
GlyphClass: 2
Flags: W
AnchorPoint: "Anchor-10" 278.21 1271.47 basechar 0
AnchorPoint: "Anchor-7" 407.316 -329.053 basechar 0
LayerCount: 2
Fore
SplineSet
972.042 -21.6807 m 24,0,1
 463.11 -41.7158 463.11 -41.7158 286.501 51.6943 c 0,2,3
 84.9443 157.867 84.9443 157.867 91.8682 479.429 c 0,4,5
 94.7002 612.312 94.7002 612.312 149.041 718.361 c 1,6,-1
 206.307 688.384 l 1,7,8
 198.169 656.262 198.169 656.262 190.001 582.75 c 0,9,10
 184.521 533.422 184.521 533.422 186.553 476.252 c 0,11,12
 195.523 230.801 195.523 230.801 551.102 178.743 c 0,13,14
 730.561 152.473 730.561 152.473 1006.9 166.081 c 0,15,16
 1362.94 183.612 1362.94 183.612 1441.73 315.018 c 0,17,18
 1512.45 432.956 1512.45 432.956 1379.15 537.387 c 2,19,-1
 1089.14 764.592 l 2,20,21
 986.7 844.851 986.7 844.851 980.721 914.413 c 0,22,23
 970.648 1031.91 970.648 1031.91 1099.99 1099.68 c 2,24,-1
 1814.08 1473.83 l 1,25,26
 1789.4 1349.06 1789.4 1349.06 1749.06 1263.07 c 1,27,-1
 1115.65 944.958 l 1,28,29
 1475.18 645.585 l 1,30,31
 1595.65 532.145 1595.65 532.145 1579.75 355.968 c 0,32,33
 1563.91 180.206 1563.91 180.206 1403.93 91.3672 c 0,34,35
 1216.37 -12.0625 1216.37 -12.0625 972.042 -21.6807 c 24,0,1
EndSplineSet
Substitution2: "'init' Initial Forms in Arabic lookup 13 subtable" uniFB90
Substitution2: "'medi' Medial Forms in Arabic lookup 11 subtable" uniFB91
Substitution2: "'fina' Terminal Forms in Arabic lookup 9 subtable" uniFB8F
EndChar

StartChar: afii57514
Encoding: 1722 1722 80
Width: 1426
VWidth: 2384
GlyphClass: 2
Flags: W
AnchorPoint: "Anchor-10" 617.359 1025.84 basechar 0
AnchorPoint: "Anchor-7" 321.13 -816.362 basechar 0
LayerCount: 2
Fore
SplineSet
217.35 377.063 m 5,0,1
 289.237 329.813 l 5,2,3
 181.271 22.166 181.271 22.166 251.137 -126.32 c 4,4,5
 358.304 -354.072 358.304 -354.072 698.095 -348.395 c 4,6,7
 1189.99 -340.025 1189.99 -340.025 1215.46 -21 c 5,8,-1
 1076.86 407.514 l 1,9,-1
 1215.3 547.163 l 1,10,11
 1335 203.814 1335 203.814 1332.01 -21 c 5,12,13
 1247.98 -516.014 1247.98 -516.014 702.538 -526.43 c 4,14,15
 320.5 -533.429 320.5 -533.429 173.981 -322.946 c 4,16,17
 59.7441 -157.518 59.7441 -157.518 121.997 91.7666 c 4,18,19
 138.408 157.476 138.408 157.476 175.279 266.019 c 4,20,21
 198.283 333.734 198.283 333.734 217.35 377.063 c 5,0,1
EndSplineSet
Substitution2: "'init' Initial Forms in Arabic lookup 13 subtable" uni06BA.init
Substitution2: "'medi' Medial Forms in Arabic lookup 11 subtable" uni06BA.medi
Substitution2: "'fina' Terminal Forms in Arabic lookup 9 subtable" uniFB9F
EndChar

StartChar: uni06F4
Encoding: 1780 1780 87
Width: 1255
VWidth: 2068
GlyphClass: 2
Flags: W
LayerCount: 2
Fore
SplineSet
392.595 1048.39 m 1,0,1
 418.112 1277.27 418.112 1277.27 607.242 1374.28 c 4,2,3
 765.619 1455.97 765.619 1455.97 960.334 1377.25 c 1,4,5
 981.889 1349.12 981.889 1349.12 1000.93 1221.61 c 1,6,7
 906.645 1286.69 906.645 1286.69 791.716 1280.79 c 0,8,9
 688.645 1275.51 688.645 1275.51 624.64 1213.97 c 0,10,11
 508.242 1102.05 508.242 1102.05 544.517 934.024 c 1,12,13
 782.146 843.6 782.146 843.6 1025.1 948.767 c 1,14,15
 1050.69 903.921 1050.69 903.921 1060.49 804.289 c 1,16,17
 750.664 677.507 750.664 677.507 467.858 789.547 c 1,18,19
 526.451 548.873 526.451 548.873 525.533 227.748 c 0,20,21
 524.999 -13.7186 524.999 -13.7186 447.893 -34.0391 c 2,22,-1
 414.331 -42.8838 l 1,23,24
 406.221 395.4 406.221 395.4 300.473 775.788 c 0,25,26
 265.207 902.638 265.207 902.638 107.994 1259.8 c 0,27,-1
 240.889 1360.42 l 1,28,29
 316.741 1204.41 316.741 1204.41 392.595 1048.39 c 1,0,1
EndSplineSet
EndChar

StartChar: uni06F5
Encoding: 1781 1781 88
Width: 1255
VWidth: 2121
GlyphClass: 2
Flags: W
LayerCount: 2
Fore
SplineSet
641.697 303.938 m 4,0,1
 724.334 144.453 724.334 144.453 867.683 138.932 c 4,2,3
 1073.17 131.072 1073.17 131.072 1015.31 435.454 c 5,4,5
 930.033 767.122 930.033 767.122 596.492 1033.54 c 5,6,7
 340.527 758.305 340.527 758.305 252.557 487.216 c 4,8,9
 140.4 149.82 140.4 149.82 388.571 139.564 c 4,10,11
 522.154 134.042 522.154 134.042 611.246 303.793 c 4,12,13
 626.608 333.061 626.608 333.061 641.697 303.938 c 4,0,1
393.325 -43.2002 m 4,14,15
 108.546 -43.1963 108.546 -43.1963 86.0508 236.822 c 4,16,17
 55.8721 618.624 55.8721 618.624 481.582 1134.93 c 5,18,19
 450.066 1162.29 450.066 1162.29 449.939 1162.99 c 4,20,21
 509.711 1334.19 l 5,22,23
 578.598 1284.53 578.598 1284.53 616.969 1249.74 c 4,24,25
 1208.9 720.009 1208.9 720.009 1156.05 240.962 c 4,26,27
 1123.28 -51.8525 1123.28 -51.8525 861.753 -42.6816 c 5,28,29
 683.078 -38.0361 683.078 -38.0361 630.457 108.004 c 6,30,-1
 625.592 121.504 l 5,31,-1
 620.723 108.007 l 6,32,33
 566.17 -43.1963 566.17 -43.1963 393.325 -43.2002 c 4,14,15
EndSplineSet
EndChar

StartChar: uni06F6
Encoding: 1782 1782 89
Width: 1255
VWidth: 2264
GlyphClass: 2
Flags: W
LayerCount: 2
Fore
SplineSet
196.227 -41.6504 m 1,0,1
 226.887 101.669 226.887 101.669 365.513 344.604 c 0,2,3
 506.463 591.611 506.463 591.611 558.943 636.006 c 1,4,5
 250.52 717.653 250.52 717.653 253.128 1023.78 c 0,6,7
 254.012 1148.75 254.012 1148.75 329.067 1252.09 c 4,8,9
 435.13 1396.21 435.13 1396.21 631.203 1389.72 c 0,10,11
 777.807 1384.87 777.807 1384.87 844.878 1310.02 c 1,12,13
 876.063 1150.63 l 1,14,15
 775.951 1226.19 775.951 1226.19 672.49 1225.29 c 0,16,17
 447.156 1223.33 447.156 1223.33 419.44 1058.34 c 0,18,19
 369.51 760.896 369.51 760.896 744.457 760.896 c 0,20,21
 752.65 760.896 752.65 760.896 1056.26 889.332 c 1,22,23
 1071.23 818.498 1071.23 818.498 1066.96 737.561 c 1,24,25
 700.56 622.41 700.56 622.41 473.604 233.901 c 0,26,27
 313.615 -39.9733 313.615 -39.9733 241.75 -41 c 2,28,-1
 196.227 -41.6504 l 1,0,1
EndSplineSet
EndChar

StartChar: uniFB8F
Encoding: 64399 64399 104
Width: 2045
VWidth: 2384
GlyphClass: 2
Flags: W
AnchorPoint: "Anchor-10" 350.693 1239.9 basechar 0
AnchorPoint: "Anchor-7" 438.621 -303.27 basechar 0
LayerCount: 2
Fore
SplineSet
1007.48 166.081 m 4,0,1
 1417.56 166.003 1417.56 166.003 1432.7 319.498 c 4,2,3
 1438.68 380.047 1438.68 380.047 1316.05 491.537 c 6,4,-1
 1074.37 711.264 l 6,5,6
 975.324 801.312 975.324 801.312 971.363 898.414 c 4,7,8
 965.44 1025.68 965.44 1025.68 1102.47 1097.48 c 6,9,-1
 1816.55 1471.64 l 5,10,11
 1798 1355.69 1798 1355.69 1751.53 1260.86 c 5,12,-1
 1096.07 927.008 l 5,13,-1
 1785.16 266.816 l 6,14,15
 1890.47 165.914 1890.47 165.914 2020.2 166.258 c 6,16,-1
 2057.4 166.356 l 5,17,-1
 2057.4 -21.6074 l 5,18,-1
 1986.46 -21.6074 l 6,19,20
 1795.68 -21.6074 1795.68 -21.6074 1576.28 269.414 c 5,21,22
 1497.87 -17.9209 1497.87 -17.9209 972.092 -25.8809 c 20,23,24
 447.998 -33.8447 447.998 -33.8447 286.552 51.6943 c 4,25,26
 84.9941 157.867 84.9941 157.867 91.918 479.429 c 4,27,28
 94.75 612.312 94.75 612.312 149.091 718.361 c 5,29,-1
 207.1 688.384 l 5,30,31
 197.029 649.706 197.029 649.706 190.051 582.75 c 4,32,33
 184.57 533.422 184.57 533.422 186.603 476.252 c 4,34,35
 195.573 230.801 195.573 230.801 551.151 178.743 c 4,36,37
 638.35 165.979 638.35 165.979 1007.48 166.081 c 4,0,1
EndSplineSet
EndChar

StartChar: uniFB9F
Encoding: 64415 64415 112
Width: 1476
VWidth: 2384
GlyphClass: 2
Flags: W
AnchorPoint: "Anchor-10" 342.574 769.934 basechar 0
AnchorPoint: "Anchor-7" 237.53 -802.24 basechar 0
LayerCount: 2
Fore
SplineSet
205.35 377.063 m 5,0,1
 270.012 326.663 l 5,2,3
 167.813 25.2568 167.813 25.2568 239.137 -126.32 c 4,4,5
 346.304 -354.072 346.304 -354.072 686.095 -348.395 c 4,6,7
 1177.99 -340.025 1177.99 -340.025 1203.46 -21 c 5,8,-1
 1064.86 407.514 l 5,9,-1
 1222.1 556.283 l 5,10,11
 1268.58 311.841 1268.58 311.841 1295.18 255.565 c 4,12,13
 1338.27 166.608 1338.27 166.608 1441.32 166.608 c 6,14,-1
 1488.33 166.608 l 5,15,-1
 1488.33 -21.3545 l 5,16,-1
 1443.71 -21.3545 l 6,17,18
 1365.19 -21.3545 1365.19 -21.3545 1311.61 66.2637 c 5,19,20
 1322.11 17.9639 1322.11 17.9639 1320.01 -21 c 5,21,22
 1235.98 -516.014 1235.98 -516.014 690.538 -526.43 c 4,23,24
 308.5 -533.429 308.5 -533.429 161.981 -322.946 c 4,25,26
 47.7441 -157.518 47.7441 -157.518 109.997 91.7666 c 4,27,28
 126.408 157.476 126.408 157.476 163.279 266.019 c 4,29,30
 186.283 333.734 186.283 333.734 205.35 377.063 c 5,0,1
EndSplineSet
EndChar

StartChar: uniFBE8
Encoding: 64488 64488 115
Width: 542
VWidth: 2383
GlyphClass: 2
Flags: W
AnchorPoint: "Anchor-10" 215.123 1088.12 basechar 0
AnchorPoint: "Anchor-7" 241.521 -248.252 basechar 0
LayerCount: 2
Fore
SplineSet
39.7119 -21.1885 m 0,0,1
 -31.6172 -21.1885 l 1,2,-1
 -31.6172 166.885 l 1,3,-1
 46.2275 166.885 l 2,4,5
 335.027 166.887 335.027 166.887 328.766 338.936 c 0,6,7
 327.272 385.69 327.272 385.69 200.141 616.262 c 1,8,9
 350.833 752.99 l 1,10,11
 440.613 564.615 440.613 564.615 450.68 389.457 c 0,12,13
 461.595 199.53 461.595 199.53 370.543 93.3984 c 0,14,15
 269.052 -25.6992 269.052 -25.6992 39.7119 -21.1885 c 0,0,1
EndSplineSet
EndChar

StartChar: uniFBE9
Encoding: 64489 64489 116
Width: 697
VWidth: 2383
GlyphClass: 2
Flags: W
AnchorPoint: "Anchor-10" 331.725 1034.33 basechar 0
AnchorPoint: "Anchor-7" 311.69 -173.276 basechar 0
LayerCount: 2
Fore
SplineSet
331.937 486.412 m 17,0,1
 337.18 544.799 337.18 544.799 372.361 545.093 c 0,2,3
 415.904 545.479 415.904 545.479 420.137 492.188 c 1,4,-1
 424.959 421.107 l 2,5,6
 434.082 286.634 434.082 286.634 483.46 231 c 0,7,8
 538.519 166.766 538.519 166.766 695.69 166.766 c 2,9,-1
 708.438 166.766 l 1,10,-1
 708.438 -21.3096 l 1,11,-1
 696.667 -21.6484 l 5,12,-1
 691.341 -21.2598 l 2,13,14
 456.351 -4.11161 456.351 -4.11161 384.962 139.226 c 1,15,16
 276.341 -17.1416 276.341 -17.1416 61.4004 -20.2598 c 2,17,-1
 -10.9648 -21.3096 l 1,18,-1
 -10.9648 166.766 l 1,19,-1
 49.1562 166.766 l 2,20,21
 141.085 166.766 141.085 166.766 200.687 192.412 c 0,22,23
 323.504 245.317 323.504 245.317 327.212 351.326 c 2,24,-1
 331.937 486.412 l 17,0,1
EndSplineSet
EndChar

StartChar: uniFE73
Encoding: 65139 65139 124
Width: 573
VWidth: 2186
GlyphClass: 2
Flags: W
AnchorPoint: "Anchor-10" 210.79 1279.5 basechar 0
AnchorPoint: "Anchor-7" 210.79 -111.5 basechar 0
LayerCount: 2
Fore
SplineSet
296.23 350.74 m 2,0,1
 296.23 286.506 296.23 286.506 352.468 230.268 c 0,2,3
 403.354 179.38 403.354 179.38 514.67 179.38 c 2,4,-1
 581.92 179.38 l 1,5,-1
 581.92 8.5 l 1,6,-1
 455.82 8.5 l 2,7,8
 309.266 8.5 309.266 8.5 214.633 103.133 c 0,9,10
 125.35 192.415 125.35 192.415 125.35 337.9 c 2,11,-1
 125.35 370.91 l 1,12,-1
 296.23 370.91 l 1,13,-1
 296.23 350.74 l 2,0,1
EndSplineSet
EndChar

StartChar: uniFE8E
Encoding: 65166 65166 150
Width: 572
VWidth: 2359
GlyphClass: 2
Flags: W
AnchorPoint: "Anchor-10" 155.67 1578.88 basechar 0
AnchorPoint: "Anchor-7" 253.362 -297.141 basechar 0
LayerCount: 2
Fore
SplineSet
297.339 1477.39 m 5,0,-1
 297.925 442.771 l 2,1,2
 298.008 295.606 298.008 295.606 356.681 233.768 c 0,3,4
 420.848 165.969 420.848 165.969 547.061 165.969 c 2,5,-1
 582.955 165.969 l 1,6,-1
 582.955 -21.1055 l 1,7,-1
 524.968 -21.1055 l 2,8,9
 367.51 -21.1055 367.51 -21.1055 272.454 82.9502 c 0,10,11
 179.515 184.69 179.515 184.69 174.804 382.2 c 0,12,13
 163.636 948.851 163.636 948.851 161.154 995.4 c 0,14,15
 147.798 1245.91 147.798 1245.91 129.954 1369.88 c 1,16,-1
 297.339 1477.39 l 5,0,-1
EndSplineSet
EndChar

StartChar: uniFEA2
Encoding: 65186 65186 170
Width: 1447
VWidth: 2380
GlyphClass: 2
Flags: W
AnchorPoint: "Anchor-10" 607.149 1235.41 basechar 0
AnchorPoint: "Anchor-7" 339.128 -949.878 basechar 0
LayerCount: 2
Fore
SplineSet
99.2842 -305.596 m 0,0,1
 52.5107 76.1572 52.5107 76.1572 415.422 333.9 c 0,2,3
 622.636 482.863 622.636 482.863 1052.1 578.063 c 1,4,5
 990.391 584.578 990.391 584.578 861.355 651.516 c 0,6,7
 698.759 736.446 698.759 736.446 585.998 726.945 c 0,8,9
 455.43 715.942 455.43 715.942 344.924 497.335 c 1,10,-1
 330.456 498.155 l 2,11,12
 299.904 499.89 299.904 499.89 330.503 638.68 c 0,13,14
 339.813 680.908 339.813 680.908 372.42 748.116 c 0,15,16
 437.646 882.908 437.646 882.908 584.521 886.717 c 0,17,18
 718.634 890.914 718.634 890.914 965.978 749.46 c 0,19,20
 1085.63 681.036 1085.63 681.036 1318.44 655.45 c 1,21,-1
 1293.96 504.522 l 1,22,23
 1202.45 490.255 1202.45 490.255 1118.67 472.995 c 1,24,25
 1167.48 167.343 1167.48 167.343 1445.1 167.343 c 2,26,-1
 1513.18 167.343 l 1,27,-1
 1513.18 -21.6709 l 1,28,-1
 1452.2 -21.6709 l 2,29,30
 1113.04 -21.6709 1113.04 -21.6709 1032.92 454.067 c 1,31,32
 653.195 364.382 653.195 364.382 449.022 206.833 c 0,33,34
 243.324 47.3105 243.324 47.3105 247.551 -210.817 c 0,35,36
 250.989 -421.28 250.989 -421.28 421.295 -528.345 c 0,37,38
 595.484 -637.851 595.484 -637.851 938.338 -604.766 c 0,39,40
 1183.56 -581.102 1183.56 -581.102 1337.06 -470.454 c 1,41,-1
 1333.18 -499.766 l 2,42,43
 1291.48 -814.961 1291.48 -814.961 757.033 -804.952 c 0,44,45
 471.005 -798.299 471.005 -798.299 301.161 -674.952 c 0,46,47
 129.223 -551.396 129.223 -551.396 99.2842 -305.596 c 0,0,1
EndSplineSet
EndChar

StartChar: uniFEA3
Encoding: 65187 65187 171
Width: 1250
VWidth: 2384
GlyphClass: 2
Flags: W
AnchorPoint: "Anchor-10" 302.027 1129.23 basechar 0
AnchorPoint: "Anchor-7" 519.062 -274.52 basechar 0
LayerCount: 2
Fore
SplineSet
675.355 130.097 m 0,0,1
 426.718 -21.458 426.718 -21.458 16.2695 -21.458 c 2,2,-1
 -20.9785 -21.458 l 1,3,-1
 -20.9785 166.666 l 5,4,-1
 6.42578 166.666 l 2,5,6
 355.912 166.666 355.912 166.666 642.888 275.085 c 0,7,8
 917.521 377.976 917.521 377.976 918.912 396.99 c 1,9,10
 817.023 411.871 817.023 411.871 625.08 501.612 c 0,11,12
 435.386 590.302 435.386 590.302 349.723 577.04 c 0,13,14
 214.104 556.045 214.104 556.045 108.648 347.432 c 1,15,16
 94.1797 348.251 l 2,17,18
 61.7242 350.089 61.7242 350.089 94.2285 488.775 c 0,19,20
 111.354 561.849 111.354 561.849 125.396 590.625 c 0,21,22
 196.85 735.04 196.85 735.04 350.7 750.75 c 0,23,24
 473.717 762.599 473.717 762.599 745.453 613.206 c 0,25,26
 892.271 532.489 892.271 532.489 1155.87 484.476 c 1,27,-1
 1131.39 336.889 l 1,28,29
 1038.75 351.334 1038.75 351.334 675.355 130.097 c 0,0,1
EndSplineSet
EndChar

StartChar: uniFEA4
Encoding: 65188 65188 172
Width: 1275
VWidth: 2384
GlyphClass: 2
Flags: W
AnchorPoint: "Anchor-10" 382.436 1152.01 basechar 0
AnchorPoint: "Anchor-7" 569.419 -282.859 basechar 0
LayerCount: 2
Fore
SplineSet
888.584 254.517 m 1,0,1
 900.025 166.132 900.025 166.132 1069.51 166.132 c 2,2,-1
 1286.78 166.132 l 1,3,-1
 1286.78 -21.9453 l 5,4,-1
 1045.69 -21.9453 l 2,5,6
 863.904 -21.9453 863.904 -21.9453 793.548 202.709 c 1,7,8
 734.453 166.403 734.453 166.403 675.355 130.097 c 0,9,10
 426.718 -21.458 426.718 -21.458 16.2695 -21.458 c 2,11,-1
 -20.9785 -21.458 l 1,12,-1
 -20.9785 166.666 l 1,13,-1
 17.9766 166.666 l 2,14,15
 355.912 166.666 355.912 166.666 642.888 275.085 c 0,16,17
 917.521 377.976 917.521 377.976 918.912 396.99 c 1,18,19
 789.072 415.953 789.072 415.953 625.08 501.612 c 0,20,21
 462.484 586.542 462.484 586.542 349.723 577.04 c 0,22,23
 219.155 566.038 219.155 566.038 108.648 347.432 c 1,24,-1
 94.1797 348.251 l 2,25,26
 63.5268 349.987 63.5268 349.987 94.2285 488.775 c 0,27,28
 109.965 559.912 109.965 559.912 137.299 602.611 c 0,29,30
 223.201 736.802 223.201 736.802 365.149 742.262 c 0,31,32
 473.019 745.876 473.019 745.876 729.703 610.057 c 0,33,34
 887.115 526.764 887.115 526.764 1169.52 484.476 c 1,35,-1
 1145.04 336.889 l 1,36,37
 1067.12 345.379 1067.12 345.379 888.584 254.517 c 1,0,1
EndSplineSet
EndChar

StartChar: uniFEAA
Encoding: 65194 65194 178
Width: 1060
VWidth: 2378
GlyphClass: 2
Flags: W
AnchorPoint: "Anchor-10" 441.287 1208.7 basechar 0
AnchorPoint: "Anchor-7" 341.685 -311.271 basechar 0
LayerCount: 2
Fore
SplineSet
120.427 322.665 m 5,0,1
 137.275 177.524 137.275 177.524 341.867 174.159 c 4,2,3
 619.653 169.211 619.653 169.211 661.878 227.115 c 4,4,5
 692.365 268.752 692.365 268.752 679.885 332.299 c 4,6,7
 675.525 355.273 675.525 355.273 671.025 359.055 c 4,8,-1
 458.05 737.515 l 21,9,-1
 548.431 914.8 l 5,10,-1
 797.182 428.763 l 5,11,12
 945.867 170.691 945.867 170.691 1040.54 166.638 c 6,13,-1
 1051.57 166.166 l 5,14,-1
 1071.55 166.166 l 5,15,-1
 1071.55 -21.7979 l 5,16,-1
 1057.27 -21.7979 l 6,17,18
 916.434 -21.7979 916.434 -21.7979 781.777 158.671 c 5,19,20
 698.431 -48.0654 698.431 -48.0654 320.976 -17.8496 c 4,21,-1
 291.225 -14.5098 l 4,22,23
 90.7432 9.97363 90.7432 9.97363 91.1982 185.986 c 6,24,-1
 91.5518 322.665 l 5,25,26
 106.3 328.877 106.3 328.877 120.427 322.665 c 5,0,1
EndSplineSet
EndChar

StartChar: uniFEAE
Encoding: 65198 65198 182
Width: 922
VWidth: 2383
GlyphClass: 2
Flags: W
AnchorPoint: "Anchor-10" 444.985 887.022 basechar 0
AnchorPoint: "Anchor-7" 414.852 -715.197 basechar 0
LayerCount: 2
Fore
SplineSet
751.875 15.0615 m 1,0,1
 686.573 -458.278 686.573 -458.278 332.925 -492.417 c 0,2,3
 157.7 -509.332 157.7 -509.332 12.1914 -374.755 c 1,4,5
 639.524 -309.717 639.524 -309.717 655.15 114.783 c 1,6,7
 655.15 181.949 655.15 181.949 536.625 351.09 c 1,8,9
 591.225 443.489 591.225 443.489 659.669 501.736 c 1,10,11
 711.975 363.232 711.975 363.232 758.175 218.334 c 1,12,13
 806.946 166.763 806.946 166.763 899.563 166.763 c 2,14,-1
 941.358 166.763 l 5,15,-1
 941.358 -21.3096 l 1,16,17
 879.883 -21.3115 879.883 -21.3115 879.848 -21.3018 c 2,18,19
 781.186 -21.2881 781.186 -21.2881 751.875 15.0615 c 1,0,1
EndSplineSet
PairPos2: "'kern' Horizontal Kerning lookup 15-1" uni06CC dx=-148 dy=0 dh=-148 dv=0 dx=0 dy=0 dh=0 dv=0
PairPos2: "'kern' Horizontal Kerning lookup 15-1" uniFEEB dx=-224 dy=0 dh=-224 dv=0 dx=0 dy=0 dh=0 dv=0
PairPos2: "'kern' Horizontal Kerning lookup 15-1" uniFB58 dx=63 dy=0 dh=63 dv=0 dx=0 dy=0 dh=0 dv=0
PairPos2: "'kern' Horizontal Kerning lookup 15-1" uniFEF3 dx=63 dy=0 dh=63 dv=0 dx=0 dy=0 dh=0 dv=0
PairPos2: "'kern' Horizontal Kerning lookup 15-1" uniFBFE dx=63 dy=0 dh=63 dv=0 dx=0 dy=0 dh=0 dv=0
PairPos2: "'kern' Horizontal Kerning lookup 15-1" uniFEDF dx=-224 dy=0 dh=-224 dv=0 dx=0 dy=0 dh=0 dv=0
PairPos2: "'kern' Horizontal Kerning lookup 15-1" uniFB90 dx=-224 dy=0 dh=-224 dv=0 dx=0 dy=0 dh=0 dv=0
PairPos2: "'kern' Horizontal Kerning lookup 15-1" uni06A9 dx=-224 dy=0 dh=-224 dv=0 dx=0 dy=0 dh=0 dv=0
PairPos2: "'kern' Horizontal Kerning lookup 15-1" uni0649 dx=-148 dy=0 dh=-148 dv=0 dx=0 dy=0 dh=0 dv=0
PairPos2: "'kern' Horizontal Kerning lookup 15-1" uni0647 dx=-224 dy=0 dh=-224 dv=0 dx=0 dy=0 dh=0 dv=0
PairPos2: "'kern' Horizontal Kerning lookup 15-1" uniFEE7 dx=-224 dy=0 dh=-224 dv=0 dx=0 dy=0 dh=0 dv=0
PairPos2: "'kern' Horizontal Kerning lookup 15-1" uniFEE3 dx=-224 dy=0 dh=-224 dv=0 dx=0 dy=0 dh=0 dv=0
PairPos2: "'kern' Horizontal Kerning lookup 15-1" uni0645 dx=-224 dy=0 dh=-224 dv=0 dx=0 dy=0 dh=0 dv=0
PairPos2: "'kern' Horizontal Kerning lookup 15-1" uniFEDB dx=-224 dy=0 dh=-224 dv=0 dx=0 dy=0 dh=0 dv=0
PairPos2: "'kern' Horizontal Kerning lookup 15-1" uniFED7 dx=-224 dy=0 dh=-224 dv=0 dx=0 dy=0 dh=0 dv=0
PairPos2: "'kern' Horizontal Kerning lookup 15-1" uniFED3 dx=-224 dy=0 dh=-224 dv=0 dx=0 dy=0 dh=0 dv=0
PairPos2: "'kern' Horizontal Kerning lookup 15-1" uni0641 dx=-224 dy=0 dh=-224 dv=0 dx=0 dy=0 dh=0 dv=0
PairPos2: "'kern' Horizontal Kerning lookup 15-1" uniFECF dx=-224 dy=0 dh=-224 dv=0 dx=0 dy=0 dh=0 dv=0
PairPos2: "'kern' Horizontal Kerning lookup 15-1" uniFECB dx=-224 dy=0 dh=-224 dv=0 dx=0 dy=0 dh=0 dv=0
PairPos2: "'kern' Horizontal Kerning lookup 15-1" uniFEC7 dx=-224 dy=0 dh=-224 dv=0 dx=0 dy=0 dh=0 dv=0
PairPos2: "'kern' Horizontal Kerning lookup 15-1" uni0638 dx=-224 dy=0 dh=-224 dv=0 dx=0 dy=0 dh=0 dv=0
PairPos2: "'kern' Horizontal Kerning lookup 15-1" uniFEC3 dx=-224 dy=0 dh=-224 dv=0 dx=0 dy=0 dh=0 dv=0
PairPos2: "'kern' Horizontal Kerning lookup 15-1" uni0637 dx=-224 dy=0 dh=-224 dv=0 dx=0 dy=0 dh=0 dv=0
PairPos2: "'kern' Horizontal Kerning lookup 15-1" uniFEBF dx=-224 dy=0 dh=-224 dv=0 dx=0 dy=0 dh=0 dv=0
PairPos2: "'kern' Horizontal Kerning lookup 15-1" uni0636 dx=-224 dy=0 dh=-224 dv=0 dx=0 dy=0 dh=0 dv=0
PairPos2: "'kern' Horizontal Kerning lookup 15-1" uniFEBB dx=-224 dy=0 dh=-224 dv=0 dx=0 dy=0 dh=0 dv=0
PairPos2: "'kern' Horizontal Kerning lookup 15-1" uni0635 dx=-224 dy=0 dh=-224 dv=0 dx=0 dy=0 dh=0 dv=0
PairPos2: "'kern' Horizontal Kerning lookup 15-1" uniFEB7 dx=-224 dy=0 dh=-224 dv=0 dx=0 dy=0 dh=0 dv=0
PairPos2: "'kern' Horizontal Kerning lookup 15-1" uni0634 dx=-224 dy=0 dh=-224 dv=0 dx=0 dy=0 dh=0 dv=0
PairPos2: "'kern' Horizontal Kerning lookup 15-1" uniFEB3 dx=-224 dy=0 dh=-224 dv=0 dx=0 dy=0 dh=0 dv=0
PairPos2: "'kern' Horizontal Kerning lookup 15-1" uni0633 dx=-224 dy=0 dh=-224 dv=0 dx=0 dy=0 dh=0 dv=0
PairPos2: "'kern' Horizontal Kerning lookup 15-1" uni0630 dx=-224 dy=0 dh=-224 dv=0 dx=0 dy=0 dh=0 dv=0
PairPos2: "'kern' Horizontal Kerning lookup 15-1" uni062F dx=-224 dy=0 dh=-224 dv=0 dx=0 dy=0 dh=0 dv=0
PairPos2: "'kern' Horizontal Kerning lookup 15-1" uniFEA7 dx=-224 dy=0 dh=-224 dv=0 dx=0 dy=0 dh=0 dv=0
PairPos2: "'kern' Horizontal Kerning lookup 15-1" uniFEA3 dx=-224 dy=0 dh=-224 dv=0 dx=0 dy=0 dh=0 dv=0
PairPos2: "'kern' Horizontal Kerning lookup 15-1" uniFE9F dx=-224 dy=0 dh=-224 dv=0 dx=0 dy=0 dh=0 dv=0
PairPos2: "'kern' Horizontal Kerning lookup 15-1" uniFE9B dx=-224 dy=0 dh=-224 dv=0 dx=0 dy=0 dh=0 dv=0
PairPos2: "'kern' Horizontal Kerning lookup 15-1" uni062B dx=-224 dy=0 dh=-224 dv=0 dx=0 dy=0 dh=0 dv=0
PairPos2: "'kern' Horizontal Kerning lookup 15-1" uniFE97 dx=-224 dy=0 dh=-224 dv=0 dx=0 dy=0 dh=0 dv=0
PairPos2: "'kern' Horizontal Kerning lookup 15-1" uni062A dx=-224 dy=0 dh=-224 dv=0 dx=0 dy=0 dh=0 dv=0
PairPos2: "'kern' Horizontal Kerning lookup 15-1" uni0629 dx=-224 dy=0 dh=-224 dv=0 dx=0 dy=0 dh=0 dv=0
PairPos2: "'kern' Horizontal Kerning lookup 15-1" uni0628 dx=-224 dy=0 dh=-224 dv=0 dx=0 dy=0 dh=0 dv=0
PairPos2: "'kern' Horizontal Kerning lookup 15-1" uni0627 dx=-253 dy=0 dh=-253 dv=0 dx=0 dy=0 dh=0 dv=0
PairPos2: "'kern' Horizontal Kerning lookup 15-1" uni0622 dx=-253 dy=0 dh=-253 dv=0 dx=0 dy=0 dh=0 dv=0
PairPos2: "'kern' Horizontal Kerning lookup 15-1" uniFB94 dx=-224 dy=0 dh=-224 dv=0 dx=0 dy=0 dh=0 dv=0
PairPos2: "'kern' Horizontal Kerning lookup 15-1" afii57509 dx=-224 dy=0 dh=-224 dv=0 dx=0 dy=0 dh=0 dv=0
PairPos2: "'kern' Horizontal Kerning lookup 15-1" uniFB56 dx=-224 dy=0 dh=-224 dv=0 dx=0 dy=0 dh=0 dv=0
PairPos2: "'kern' Horizontal Kerning lookup 15-1" afii57506 dx=-224 dy=0 dh=-224 dv=0 dx=0 dy=0 dh=0 dv=0
EndChar

StartChar: uniFEB2
Encoding: 65202 65202 186
Width: 2431
VWidth: 2383
GlyphClass: 2
Flags: W
AnchorPoint: "Anchor-10" 572.561 956.887 basechar 0
AnchorPoint: "Anchor-7" 388.915 -804.992 basechar 0
LayerCount: 2
Fore
SplineSet
1482.21 158.542 m 4,0,1
 1595.44 156.939 1595.44 156.939 1639.08 294.562 c 4,2,3
 1656.59 349.56 1656.59 349.56 1658.36 431.986 c 5,4,5
 1663.61 490.373 1663.61 490.373 1698.78 490.667 c 4,6,7
 1742.33 491.053 1742.33 491.053 1746.56 437.762 c 5,8,-1
 1747.73 413.848 l 6,9,10
 1759.76 169.55 1759.76 169.55 1911.81 167.624 c 12,11,12
 2037.83 166.028 2037.83 166.028 2066.94 363.517 c 4,13,14
 2078.06 438.938 2078.06 438.938 2077.52 486.65 c 5,15,16
 2082.76 545.037 2082.76 545.037 2117.94 545.33 c 4,17,18
 2161.48 545.716 2161.48 545.716 2165.72 492.426 c 5,19,-1
 2169.84 417.308 l 6,20,21
 2177.18 283.771 2177.18 283.771 2204.49 239.333 c 4,22,23
 2248.34 166.723 2248.34 166.723 2402.41 166.723 c 6,24,-1
 2441.57 166.723 l 5,25,-1
 2441.57 -21.3525 l 5,26,-1
 2409.25 -21.3525 l 6,27,28
 2155.5 -21.3525 2155.5 -21.3525 2101.78 152.973 c 5,29,30
 2049 -12.5996 2049 -12.5996 1920 -20.4492 c 4,31,32
 1744.7 -31.0947 1744.7 -31.0947 1679.19 158.039 c 5,33,34
 1619.49 -15.0508 1619.49 -15.0508 1483.9 -21 c 4,35,36
 1366.69 -26.1436 1366.69 -26.1436 1312.51 66.2637 c 5,37,38
 1323.01 17.9639 1323.01 17.9639 1320.91 -21 c 5,39,40
 1236.88 -516.014 1236.88 -516.014 691.438 -526.43 c 4,41,42
 309.4 -533.429 309.4 -533.429 162.882 -322.946 c 4,43,44
 45.543 -153.026 45.543 -153.026 110.897 91.7666 c 4,45,46
 131.609 169.346 131.609 169.346 162.15 261.255 c 4,47,48
 191.106 350.506 191.106 350.506 201 377.063 c 4,49,-1
 271.43 329.813 l 5,50,51
 169.16 24.3076 169.16 24.3076 240.037 -126.32 c 4,52,53
 347.204 -354.072 347.204 -354.072 686.994 -348.395 c 4,54,55
 1178.89 -340.025 1178.89 -340.025 1204.36 -21 c 5,56,-1
 1065.76 407.514 l 5,57,-1
 1223 556.283 l 5,58,59
 1267.72 317.501 1267.72 317.501 1297.13 255.565 c 4,60,61
 1342.42 160.259 1342.42 160.259 1482.21 158.542 c 4,0,1
EndSplineSet
EndChar

StartChar: uniFEB3
Encoding: 65203 65203 187
Width: 1334
VWidth: 2383
GlyphClass: 2
Flags: W
AnchorPoint: "Anchor-10" 672.348 1017.99 basechar 0
AnchorPoint: "Anchor-7" 605.356 -254.73 basechar 0
LayerCount: 2
Fore
SplineSet
259.684 374.56 m 5,0,1
 264.928 432.945 264.928 432.945 300.109 433.238 c 4,2,3
 343.65 433.625 343.65 433.625 347.884 380.334 c 5,4,-1
 352.164 349.379 l 6,5,6
 378.347 159.966 378.347 159.966 532.933 158.339 c 4,7,8
 638.83 156.735 638.83 156.735 682.455 294.359 c 4,9,10
 699.97 349.357 699.97 349.357 701.734 431.784 c 5,11,12
 706.978 490.171 706.978 490.171 742.159 490.463 c 4,13,14
 785.7 490.85 785.7 490.85 789.934 437.56 c 5,15,-1
 791.104 413.645 l 6,16,17
 802.933 171.636 802.933 171.636 945.729 167.42 c 5,18,19
 1123.23 167.42 1123.23 167.42 1116.97 339.473 c 4,20,21
 1115.48 386.227 1115.48 386.227 988.344 616.799 c 5,22,-1
 1139.04 753.527 l 5,23,24
 1228.81 565.149 1228.81 565.149 1238.88 389.993 c 4,25,26
 1251.27 189.464 1251.27 189.464 1163.74 84.7588 c 4,27,28
 1074.81 -21.5938 1074.81 -21.5938 966.334 -20.2412 c 4,29,30
 894.804 -19.3486 894.804 -19.3486 862.577 -3.92578 c 4,31,32
 761.852 44.4004 761.852 44.4004 722.562 157.835 c 5,33,34
 651.005 -28.6416 651.005 -28.6416 510.474 -21.2031 c 4,35,36
 360.033 -12.1367 360.033 -12.1367 306.763 151.535 c 5,37,38
 231.994 -21.209 231.994 -21.209 61.8066 -21.209 c 6,39,-1
 -10.8613 -21.209 l 5,40,-1
 -10.8613 166.866 l 5,41,-1
 50.9053 166.866 l 6,42,43
 251.012 166.866 251.012 166.866 256.694 302.947 c 6,44,-1
 259.684 374.56 l 5,0,1
EndSplineSet
EndChar

StartChar: uniFEB4
Encoding: 65204 65204 188
Width: 1452
VWidth: 2383
GlyphClass: 2
Flags: W
AnchorPoint: "Anchor-10" 637.228 1017.32 basechar 0
LayerCount: 2
Fore
SplineSet
1185.99 490.122 m 1,0,1
 1189.06 431.804 l 2,2,3
 1196.73 286.468 1196.73 286.468 1225.81 239.129 c 0,4,5
 1269.65 166.521 1269.65 166.521 1405.88 166.521 c 2,6,-1
 1462.89 166.521 l 1,7,-1
 1462.89 -21.5557 l 1,8,-1
 1412.72 -21.5557 l 2,9,10
 1176.82 -21.5557 1176.82 -21.5557 1123.1 152.77 c 1,11,12
 1070.96 -20.3691 1070.96 -20.3691 930.765 -22.7627 c 0,13,14
 780.852 -26.0938 780.852 -26.0938 717.312 157.835 c 1,15,16
 667.718 -19.1787 667.718 -19.1787 506.273 -21.2031 c 0,17,18
 352.855 -23.7861 352.855 -23.7861 285.763 151.535 c 1,19,20
 211.729 -21.209 211.729 -21.209 63.9062 -21.209 c 2,21,-1
 -10.8613 -21.209 l 5,22,-1
 -10.8613 166.866 l 1,23,-1
 53.0059 166.866 l 2,24,25
 251.014 166.866 251.014 166.866 256.694 302.947 c 2,26,-1
 259.684 374.56 l 1,27,28
 264.928 432.945 264.928 432.945 300.109 433.238 c 0,29,30
 343.65 433.625 343.65 433.625 347.884 380.334 c 1,31,-1
 352.164 349.379 l 2,32,33
 378.385 159.751 378.385 159.751 512.982 158.339 c 0,34,35
 633.515 156.735 633.515 156.735 677.205 294.359 c 0,36,37
 694.72 349.357 694.72 349.357 696.484 431.784 c 1,38,39
 701.728 490.171 701.728 490.171 736.909 490.463 c 0,40,41
 780.45 490.85 780.45 490.85 784.684 437.56 c 1,42,-1
 786.903 386.345 l 2,43,44
 796.7 160.315 796.7 160.315 943.63 167.42 c 8,45,46
 1054.86 172.812 1054.86 172.812 1087.21 339.905 c 0,47,48
 1098.55 397.483 1098.55 397.483 1097.79 484.347 c 1,49,50
 1103.03 542.734 1103.03 542.734 1138.21 543.027 c 0,51,52
 1181.75 543.413 1181.75 543.413 1185.99 490.122 c 1,0,1
EndSplineSet
EndChar

StartChar: uniFEBA
Encoding: 65210 65210 194
Width: 2614
VWidth: 2384
GlyphClass: 2
Flags: W
AnchorPoint: "Anchor-10" 609.719 918.971 basechar 0
AnchorPoint: "Anchor-7" 367.4 -776.046 basechar 0
LayerCount: 2
Fore
SplineSet
1554.71 167.054 m 5,0,-1
 1753.69 167.054 l 6,1,2
 1953.07 167.054 1953.07 167.054 2107.98 218.532 c 4,3,4
 2236.22 259.713 2236.22 259.713 2229.94 412.155 c 4,5,6
 2222.53 614.295 2222.53 614.295 2033.31 571.565 c 4,7,8
 1943.51 551.285 1943.51 551.285 1804.6 424.292 c 4,9,10
 1657.62 289.909 1657.62 289.909 1554.71 167.054 c 5,0,-1
1441.61 189.739 m 5,11,12
 1643.03 474.858 1643.03 474.858 1737.71 567.739 c 4,13,14
 1926.37 749.445 1926.37 749.445 2095.54 737.655 c 4,15,16
 2340.63 721.155 2340.63 721.155 2355.87 440.06 c 4,17,18
 2361.21 346.853 2361.21 346.853 2342.32 273.416 c 5,19,20
 2427.83 165.984 2427.83 165.984 2577.9 165.984 c 6,21,-1
 2626.08 165.984 l 5,22,-1
 2626.08 -21.9795 l 5,23,-1
 2551.27 -18.7793 l 6,24,25
 2329.11 -9.27539 2329.11 -9.27539 2261 135.873 c 5,26,27
 2220.06 89.3955 2220.06 89.3955 2159.52 58.9082 c 4,28,29
 1998.45 -22.2139 1998.45 -22.2139 1818 -21.7461 c 6,30,-1
 1529.74 -21 l 6,31,32
 1375.66 -20.6016 1375.66 -20.6016 1311.66 66.2637 c 5,33,34
 1322.16 17.9639 1322.16 17.9639 1320.06 -21 c 5,35,36
 1236.03 -516.014 1236.03 -516.014 690.588 -526.43 c 4,37,38
 308.55 -533.429 308.55 -533.429 162.032 -322.946 c 4,39,40
 47.7939 -157.518 47.7939 -157.518 110.048 91.7666 c 4,41,42
 126.458 157.476 126.458 157.476 163.33 266.019 c 4,43,44
 186.333 333.734 186.333 333.734 205.4 377.063 c 5,45,-1
 278.9 329.813 l 5,46,47
 169.837 21.0908 169.837 21.0908 239.187 -126.32 c 4,48,49
 346.354 -354.072 346.354 -354.072 686.145 -348.395 c 4,50,51
 1178.04 -340.025 1178.04 -340.025 1203.51 -21 c 5,52,-1
 1064.91 407.514 l 5,53,-1
 1222.15 556.283 l 5,54,55
 1270.44 298.398 1270.44 298.398 1296.28 255.565 c 12,56,57
 1345.12 174.587 1345.12 174.587 1441.61 189.739 c 5,11,12
EndSplineSet
EndChar

StartChar: uniFEBB
Encoding: 65211 65211 195
Width: 1611
VWidth: 2384
GlyphClass: 2
Flags: W
AnchorPoint: "Anchor-10" 562.294 1148.56 basechar 0
AnchorPoint: "Anchor-7" 694.741 -323.71 basechar 0
LayerCount: 2
Fore
SplineSet
601.767 190.366 m 1,0,1
 803.19 475.485 803.19 475.485 897.866 568.366 c 0,2,3
 1086.53 750.071 1086.53 750.071 1255.7 738.282 c 0,4,5
 1500.79 721.782 1500.79 721.782 1516.03 440.685 c 4,6,7
 1531.49 165.698 1531.49 165.698 1319.68 59.5352 c 0,8,9
 1158.62 -21.5879 1158.62 -21.5879 978.162 -21.1201 c 2,10,-1
 689.905 -20.373 l 2,11,12
 443.203 -19.7344 443.203 -19.7344 337.134 152.717 c 1,13,14
 208.654 -21.1201 208.654 -21.1201 19.918 -21.1201 c 2,15,-1
 -10.8203 -21.1201 l 1,16,-1
 -10.8203 166.954 l 1,17,-1
 7.9668 166.954 l 2,18,19
 132.912 166.954 132.912 166.954 194.08 205.006 c 0,20,21
 251.428 241.26 251.428 241.26 260.763 314.026 c 0,22,-1
 273.347 434.419 l 1,23,24
 281.321 505.87 281.321 505.87 322.172 507.273 c 0,25,26
 365.712 507.659 365.712 507.659 369.946 454.368 c 1,27,-1
 378.187 384.223 l 2,28,29
 396.654 227.017 396.654 227.017 601.767 190.366 c 1,0,1
714.875 167.68 m 1,30,-1
 913.85 167.68 l 2,31,32
 1113.23 167.68 1113.23 167.68 1268.14 219.159 c 0,33,34
 1396.37 260.339 1396.37 260.339 1390.09 412.782 c 0,35,36
 1382.7 614.922 1382.7 614.922 1193.47 572.191 c 0,37,38
 1103.67 551.911 1103.67 551.911 964.769 424.919 c 0,39,40
 817.785 290.535 817.785 290.535 714.875 167.68 c 1,30,-1
EndSplineSet
EndChar

StartChar: uniFEBC
Encoding: 65212 65212 196
Width: 1775
VWidth: 2384
GlyphClass: 2
Flags: W
AnchorPoint: "Anchor-10" 591.337 1220.83 basechar 0
AnchorPoint: "Anchor-7" 687.055 -331.239 basechar 0
LayerCount: 2
Fore
SplineSet
714.875 167.68 m 1,0,-1
 913.85 167.68 l 2,1,2
 1113.23 167.68 1113.23 167.68 1268.14 219.159 c 0,3,4
 1396.37 260.339 1396.37 260.339 1390.09 412.782 c 0,5,6
 1382.7 614.922 1382.7 614.922 1193.47 572.191 c 0,7,8
 1103.67 551.911 1103.67 551.911 964.769 424.919 c 0,9,10
 817.785 290.535 817.785 290.535 714.875 167.68 c 1,0,-1
1502.49 274.043 m 1,11,12
 1587.99 166.611 1587.99 166.611 1738.05 166.611 c 2,13,-1
 1786.24 166.611 l 1,14,-1
 1786.24 -21.3525 l 1,15,-1
 1711.43 -18.1523 l 2,16,17
 1489.27 -8.64921 1489.27 -8.64921 1421.15 136.5 c 1,18,19
 1380.21 90.0225 1380.21 90.0225 1319.68 59.5352 c 0,20,21
 1158.62 -21.5878 1158.62 -21.5878 978.162 -21.1201 c 2,22,-1
 689.905 -20.373 l 2,23,24
 443.203 -19.7337 443.203 -19.7337 337.134 152.717 c 1,25,26
 208.654 -21.1201 208.654 -21.1201 19.918 -21.1201 c 2,27,-1
 -10.8203 -21.1201 l 5,28,-1
 -10.8203 165.954 l 1,29,-1
 7.9668 165.954 l 2,30,31
 131.305 165.954 131.305 165.954 194.08 205.006 c 0,32,33
 251.428 241.26 251.428 241.26 260.763 314.026 c 0,34,-1
 273.347 434.419 l 1,35,36
 281.438 506.913 281.438 506.913 322.172 507.273 c 0,37,38
 365.712 507.659 365.712 507.659 369.946 454.368 c 1,39,-1
 378.187 384.223 l 2,40,41
 396.654 227.017 396.654 227.017 601.767 190.366 c 1,42,43
 803.19 475.485 803.19 475.485 897.866 568.366 c 0,44,45
 1086.53 750.071 1086.53 750.071 1255.7 738.282 c 0,46,47
 1500.79 721.782 1500.79 721.782 1516.03 440.685 c 0,48,49
 1521.37 347.479 1521.37 347.479 1502.49 274.043 c 1,11,12
EndSplineSet
EndChar

StartChar: uniFEC2
Encoding: 65218 65218 202
Width: 1462
VWidth: 2384
GlyphClass: 2
Flags: W
AnchorPoint: "Anchor-7" 627.346 -317.759 basechar 0
AnchorPoint: "Anchor-10" 341.968 1563.57 basechar 0
LayerCount: 2
Fore
SplineSet
431.376 167.68 m 1,0,-1
 630.351 167.68 l 2,1,2
 824.339 167.68 824.339 167.68 984.641 219.159 c 0,3,4
 1112.87 260.339 1112.87 260.339 1106.59 412.782 c 0,5,6
 1099.2 614.922 1099.2 614.922 909.977 572.191 c 0,7,8
 820.165 551.911 820.165 551.911 681.27 424.919 c 0,9,10
 534.286 290.535 534.286 290.535 431.376 167.68 c 1,0,-1
1135.81 131.017 m 1,11,12
 1094.65 88.8418 1094.65 88.8418 1036.18 59.5352 c 0,13,14
 876.43 -20.9287 876.43 -20.9287 694.663 -21.1201 c 2,15,-1
 406.406 -21.4238 l 6,16,-1
 223.331 -20.8516 l 2,17,18
 63.7314 -20.3525 63.7314 -20.3525 63.7314 151.2 c 2,19,-1
 63.7314 166.906 l 1,20,-1
 300.058 167.443 l 1,21,22
 336.808 216.794 336.808 216.794 357.282 242.519 c 1,23,24
 361.153 244.244 361.153 244.244 353.273 492.816 c 2,25,26
 348.906 765.551 348.906 765.551 336.242 1030.03 c 0,27,28
 323.928 1287.24 323.928 1287.24 310.811 1371.04 c 1,29,-1
 476.282 1478.4 l 1,30,-1
 475.607 402.441 l 1,31,32
 562.805 520.175 562.805 520.175 614.367 568.366 c 0,33,34
 808.392 749.698 808.392 749.698 972.196 738.282 c 0,35,36
 1217.29 721.782 1217.29 721.782 1232.53 440.685 c 0,37,38
 1237.98 343.795 1237.98 343.795 1215.21 267.864 c 1,39,40
 1295.79 166.611 1295.79 166.611 1426.2 166.611 c 2,41,-1
 1474.39 166.611 l 1,42,-1
 1474.39 -21.3525 l 1,43,-1
 1399.58 -18.1523 l 2,44,45
 1201.83 -9.69336 1201.83 -9.69336 1135.81 131.017 c 1,11,12
EndSplineSet
EndChar

StartChar: uniFEC3
Encoding: 65219 65219 203
Width: 1109
VWidth: 2384
GlyphClass: 2
Flags: W
AnchorPoint: "Anchor-10" 137.393 1574.02 basechar 0
LayerCount: 2
Fore
SplineSet
80.2432 166.941 m 1,0,1
 118.407 216.794 118.407 216.794 138.883 242.519 c 1,2,3
 142.754 244.242 142.754 244.242 134.874 492.816 c 2,4,5
 130.507 765.551 130.507 765.551 117.843 1030.03 c 0,6,7
 105.528 1287.24 105.528 1287.24 92.4102 1371.04 c 1,8,-1
 257.882 1478.4 l 1,9,-1
 257.207 402.441 l 1,10,11
 344.404 520.175 344.404 520.175 395.968 568.366 c 0,12,13
 584.635 750.071 584.635 750.071 753.796 738.282 c 0,14,15
 998.886 721.782 998.886 721.782 1014.13 440.685 c 0,16,17
 1029.59 165.7 1029.59 165.7 817.782 59.5352 c 0,18,19
 658.029 -20.9287 658.029 -20.9287 476.264 -21.1201 c 2,20,-1
 188.007 -21.4238 l 6,21,-1
 -11.2139 -21.1338 l 1,22,-1
 -11.2139 166.94 l 1,23,-1
 80.2432 166.941 l 1,0,1
212.976 167.68 m 1,24,-1
 411.951 167.68 l 2,25,26
 605.939 167.68 605.939 167.68 766.24 219.159 c 0,27,28
 894.474 260.339 894.474 260.339 888.195 412.782 c 0,29,30
 880.803 614.922 880.803 614.922 691.576 572.191 c 0,31,32
 601.766 551.911 601.766 551.911 462.869 424.919 c 0,33,34
 315.886 290.535 315.886 290.535 212.976 167.68 c 1,24,-1
EndSplineSet
EndChar

StartChar: uniFEC4
Encoding: 65220 65220 204
Width: 1262
VWidth: 2384
GlyphClass: 2
Flags: W
AnchorPoint: "Anchor-10" 143.786 1577.89 basechar 0
AnchorPoint: "Anchor-7" 522.949 -301.063 basechar 0
LayerCount: 2
Fore
SplineSet
212.976 167.68 m 1,0,-1
 411.951 167.68 l 2,1,2
 605.939 167.68 605.939 167.68 766.24 219.159 c 0,3,4
 894.474 260.339 894.474 260.339 888.195 412.782 c 0,5,6
 880.803 614.922 880.803 614.922 691.576 572.191 c 0,7,8
 601.766 551.911 601.766 551.911 462.869 424.919 c 0,9,10
 315.886 290.535 315.886 290.535 212.976 167.68 c 1,0,-1
999.536 274.043 m 1,11,12
 1085.04 166.611 1085.04 166.611 1225.65 166.611 c 2,13,-1
 1273.84 166.611 l 1,14,-1
 1273.84 -21.3525 l 1,15,-1
 1199.03 -18.1523 l 2,16,17
 992.371 -9.3125 992.371 -9.3125 923.454 137.55 c 1,18,19
 880.863 91.1064 880.863 91.1064 817.782 59.5352 c 0,20,21
 658.029 -20.9287 658.029 -20.9287 476.264 -21.1201 c 2,22,-1
 188.007 -21.4238 l 6,23,-1
 -12.2637 -21.1338 l 1,24,-1
 -12.2637 166.94 l 1,25,-1
 80.2432 166.941 l 1,26,27
 118.407 216.794 118.407 216.794 138.883 242.519 c 1,28,29
 142.754 244.242 142.754 244.242 134.874 492.816 c 2,30,31
 130.507 765.551 130.507 765.551 117.843 1030.03 c 0,32,33
 105.528 1287.24 105.528 1287.24 92.4102 1371.04 c 1,34,-1
 257.882 1478.4 l 1,35,-1
 257.207 402.441 l 1,36,37
 344.404 520.175 344.404 520.175 395.968 568.366 c 0,38,39
 589.993 749.698 589.993 749.698 753.796 738.282 c 0,40,41
 998.886 721.782 998.886 721.782 1014.13 440.685 c 0,42,43
 1019.34 348.088 1019.34 348.088 999.536 274.043 c 1,11,12
EndSplineSet
EndChar

StartChar: uniFECA
Encoding: 65226 65226 210
Width: 1227
VWidth: 2382
GlyphClass: 2
Flags: W
AnchorPoint: "Anchor-10" 446.38 1150.38 basechar 0
AnchorPoint: "Anchor-7" 387.13 -874.657 basechar 0
LayerCount: 2
Fore
SplineSet
578.045 544.965 m 4,0,1
 560.607 544.965 560.607 544.965 546.589 542.602 c 4,2,3
 504.002 535.516 504.002 535.516 509.548 522.101 c 4,4,5
 513.165 513.69 513.165 513.69 531.612 501.878 c 4,6,7
 554.831 487.007 554.831 487.007 578.045 476.229 c 5,8,9
 597.897 484.732 597.897 484.732 623.109 502.449 c 4,10,11
 639.709 514.282 639.709 514.282 639.709 522.264 c 4,12,13
 639.709 538.37 639.709 538.37 609.41 542.616 c 4,14,15
 592.646 544.965 592.646 544.965 578.045 544.965 c 4,0,1
653.669 345.501 m 5,16,17
 856.153 166.069 856.153 166.069 1192.11 166.069 c 6,18,-1
 1238.32 166.069 l 5,19,-1
 1238.32 -21.9434 l 5,20,-1
 1201.5 -21.9434 l 6,21,22
 862.836 -21.9434 862.836 -21.9434 582.411 263.55 c 5,23,24
 460.873 195.679 460.873 195.679 405.386 136.694 c 4,25,26
 233.713 -41.9102 233.713 -41.9102 225.235 -209.311 c 4,27,28
 214.035 -424.59 214.035 -424.59 367.386 -532.306 c 4,29,30
 527.119 -645.215 527.119 -645.215 820.234 -609.36 c 4,31,32
 971.514 -590.924 971.514 -590.924 1153.4 -509.096 c 5,33,-1
 1146.1 -536.817 l 6,34,35
 1079.99 -787.951 1079.99 -787.951 676.386 -781.306 c 4,36,37
 361.851 -776.568 361.851 -776.568 213.152 -624.991 c 4,38,39
 55.0342 -463.884 55.0342 -463.884 91.1689 -184.314 c 4,40,41
 130.97 120.544 130.97 120.544 498.246 347.18 c 5,42,43
 406.504 388.995 406.504 388.995 338.49 447.13 c 4,44,45
 278.925 498.038 278.925 498.038 283.405 559.621 c 4,46,47
 287.82 622.289 287.82 622.289 377.099 665.511 c 4,48,49
 449.222 700.707 449.222 700.707 567.855 703.177 c 4,50,51
 626.701 704.374 626.701 704.374 679.565 698.75 c 4,52,53
 800.061 685.599 800.061 685.599 834.985 614.848 c 4,54,55
 853.991 576.022 853.991 576.022 843.748 532.409 c 4,56,57
 822.652 443.072 822.652 443.072 653.669 345.501 c 5,16,17
EndSplineSet
EndChar

StartChar: uniFECB
Encoding: 65227 65227 211
Width: 968
VWidth: 2380
GlyphClass: 2
Flags: W
AnchorPoint: "Anchor-10" 343.947 1307.41 basechar 0
AnchorPoint: "Anchor-7" 397.445 -349.498 basechar 0
LayerCount: 2
Fore
SplineSet
15.6846 167.018 m 2,0,1
 157.812 167.018 157.812 167.018 158.799 167.006 c 2,2,-1
 261.361 168.156 l 1,3,4
 63.6055 316.428 63.6055 316.428 97.9014 536.809 c 0,5,6
 134.754 772.855 134.754 772.855 385.81 811.876 c 0,7,8
 568.17 840.022 568.17 840.022 695.56 724.662 c 1,9,10
 727.059 646.962 727.059 646.962 734.41 559.876 c 1,11,12
 558.446 653.625 558.446 653.625 421.51 630.022 c 0,13,14
 255.294 601.702 255.294 601.702 240.485 466.459 c 128,-1,15
 225.678 331.217 225.678 331.217 392.958 214.689 c 0,16,17
 435.812 184.59 435.812 184.59 632.721 221.944 c 2,18,-1
 876.95 268.277 l 17,19,-1
 847.551 102.377 l 1,20,21
 499.084 -20.0537 499.084 -20.0537 90.2852 -21.0742 c 1,22,-1
 -21.332 -21.0566 l 1,23,-1
 -21.332 167.018 l 1,24,-1
 15.6846 167.018 l 2,0,1
EndSplineSet
EndChar

StartChar: uniFECC
Encoding: 65228 65228 212
Width: 1019
VWidth: 2382
GlyphClass: 2
Flags: W
AnchorPoint: "Anchor-10" 477.467 1144.67 basechar 0
AnchorPoint: "Anchor-7" 517.534 -267.729 basechar 0
LayerCount: 2
Fore
SplineSet
528.644 458.854 m 4,0,1
 511.206 458.854 511.206 458.854 497.187 456.491 c 4,2,3
 454.601 449.404 454.601 449.404 460.147 435.99 c 4,4,5
 463.763 427.579 463.763 427.579 482.21 415.767 c 4,6,7
 505.43 400.896 505.43 400.896 528.644 390.119 c 5,8,9
 548.496 398.623 548.496 398.623 573.708 416.338 c 4,10,11
 590.306 428.171 590.306 428.171 590.306 436.153 c 4,12,13
 590.306 452.259 590.306 452.259 560.011 456.505 c 4,14,15
 543.244 458.854 543.244 458.854 528.644 458.854 c 4,0,1
604.268 259.391 m 5,16,17
 749.73 163.248 749.73 163.248 986.619 165.552 c 2,18,-1
 1029.69 165.971 l 1,19,-1
 1029.69 -21.9668 l 1,20,-1
 960.395 -21.9668 l 2,21,22
 711.535 -21.9668 711.535 -21.9668 524.304 156.693 c 2,23,-1
 520.464 160.357 l 1,24,-1
 516.622 156.693 l 2,25,26
 328.713 -22.5225 328.713 -22.5225 68.1943 -22.5225 c 2,27,-1
 -11.4756 -22.5225 l 1,28,-1
 -11.4756 165.552 l 1,29,-1
 41.9951 165.552 l 2,30,31
 342.65 165.552 342.65 165.552 448.844 261.07 c 5,32,33
 357.104 302.885 357.104 302.885 289.089 361.019 c 4,34,35
 229.524 411.927 229.524 411.927 234.004 473.512 c 4,36,37
 238.419 536.179 238.419 536.179 327.697 579.4 c 4,38,39
 399.822 614.596 399.822 614.596 518.453 617.066 c 4,40,41
 577.299 618.264 577.299 618.264 630.164 612.639 c 4,42,43
 750.66 599.488 750.66 599.488 785.584 528.737 c 4,44,45
 804.589 489.912 804.589 489.912 794.347 446.298 c 4,46,47
 773.252 356.962 773.252 356.962 604.268 259.391 c 5,16,17
EndSplineSet
EndChar

StartChar: uniFEDA
Encoding: 65242 65242 226
Width: 1967
VWidth: 2359
GlyphClass: 2
Flags: W
AnchorPoint: "Anchor-10" 491.022 1499.9 basechar 0
AnchorPoint: "Anchor-7" 623.24 -321.654 basechar 0
LayerCount: 2
Fore
SplineSet
1540.26 408.298 m 0,0,-1
 1542.19 467.566 l 2,1,2
 1546.22 591.328 1546.22 591.328 1528.31 1019.48 c 0,3,4
 1515.99 1276.68 1515.99 1276.68 1502.88 1360.48 c 1,5,-1
 1672.36 1467.99 l 1,6,-1
 1672.36 430.601 l 2,7,8
 1672.36 166.337 1672.36 166.337 1906.89 166.337 c 2,9,-1
 1978.41 166.337 l 5,10,-1
 1978.41 -21.627 l 1,11,-1
 1928.54 -21.627 l 2,12,13
 1658 -21.627 1658 -21.627 1588.65 169.08 c 1,14,15
 1584.82 156.594 1584.82 156.594 1537.2 122.85 c 0,16,17
 1390.13 18.625 1390.13 18.625 1232.7 2.30957 c 0,18,19
 1017.14 -20.0322 1017.14 -20.0322 973.803 -21.5908 c 16,20,21
 484.457 -39.1904 484.457 -39.1904 289.551 62.6592 c 0,22,23
 89.1641 167.371 89.1641 167.371 95.8682 479.429 c 0,24,25
 98.7002 612.312 98.7002 612.312 153.041 718.361 c 1,26,-1
 217.102 718.2 l 1,27,28
 200.741 643.413 200.741 643.413 194.001 582.75 c 0,29,30
 188.521 533.422 188.521 533.422 190.553 476.252 c 0,31,32
 199.089 236.158 199.089 236.158 577.132 182.419 c 0,33,34
 680.273 167.758 680.273 167.758 1011.43 167.131 c 0,35,36
 1120.19 166.996 1120.19 166.996 1203.3 180.809 c 0,37,38
 1524.65 236.232 1524.65 236.232 1540.26 408.298 c 0,0,-1
1054.01 1292.4 m 1,39,-1
 1054.01 1234.59 l 1,40,41
 976.445 1228.88 976.445 1228.88 933.629 1213.1 c 0,42,43
 825.352 1172.5 825.352 1172.5 825.352 1119.32 c 0,44,45
 825.352 1079.1 825.352 1079.1 846.136 1052.37 c 0,46,47
 865.271 1026.86 865.271 1026.86 954.416 1013.75 c 0,48,49
 1009.39 1005.66 1009.39 1005.66 1037.15 980.318 c 0,50,51
 1064.33 955.483 1064.33 955.483 1064.33 910.905 c 0,52,53
 1064.33 803.947 1064.33 803.947 965.042 747.797 c 0,54,55
 888.393 704.451 888.393 704.451 783.457 703.478 c 0,56,57
 716.747 703.478 716.747 703.478 658.2 713.256 c 1,58,-1
 658.2 778.312 l 1,59,60
 725.824 769.399 725.824 769.399 772.739 769.399 c 0,61,62
 856.001 769.399 856.001 769.399 909.683 790.532 c 0,63,64
 1003.57 826.591 1003.57 826.591 1003.57 887.087 c 0,65,66
 1003.57 954.465 1003.57 954.465 894.563 972.227 c 0,67,68
 831.348 981.859 831.348 981.859 797.122 1016.86 c 128,-1,69
 762.811 1051.95 762.811 1051.95 764.185 1115.26 c 0,70,71
 766.275 1199.74 766.275 1199.74 844.901 1239.59 c 0,72,73
 934.281 1284.81 934.281 1284.81 1054.01 1292.4 c 1,39,-1
EndSplineSet
EndChar

StartChar: uniFEDB
Encoding: 65243 65243 227
Width: 869
VWidth: 2360
GlyphClass: 2
Flags: W
AnchorPoint: "Anchor-10" 222.818 1330.02 basechar 0
AnchorPoint: "Anchor-7" 341.171 -322.73 basechar 0
LayerCount: 2
Fore
SplineSet
-11 -21.0908 m 5,0,-1
 -11 165.983 l 5,1,-1
 82.4424 166.011 l 2,2,3
 500.386 166.133 500.386 166.133 525.446 326.462 c 0,4,5
 546.186 459.111 546.186 459.111 430.127 541.587 c 2,6,-1
 129.617 755.141 l 2,7,8
 27.8526 827.458 27.8526 827.458 21.1904 904.964 c 0,9,10
 11.1181 1022.46 11.1181 1022.46 140.452 1090.23 c 2,11,-1
 854.542 1464.38 l 1,12,13
 825.221 1322.92 825.221 1322.92 789.521 1253.62 c 1,14,-1
 156.113 935.508 l 1,15,-1
 167.718 927.129 l 2,16,17
 478.576 702.677 478.576 702.677 546.102 645.585 c 0,18,19
 706.878 509.653 706.878 509.653 674.987 284.484 c 0,20,21
 650.717 113.118 650.717 113.118 512.846 46.1113 c 0,22,23
 374.574 -21.0908 374.574 -21.0908 128.442 -21.0908 c 2,24,-1
 -11 -21.0908 l 5,0,-1
EndSplineSet
EndChar

StartChar: uniFEDC
Encoding: 65244 65244 228
Width: 1118
VWidth: 2360
GlyphClass: 2
Flags: W
AnchorPoint: "Anchor-10" 197.618 1362.57 basechar 0
AnchorPoint: "Anchor-7" 320.604 -312.174 basechar 0
LayerCount: 2
Fore
SplineSet
177.749 1091.84 m 2,0,-1
 891.84 1466 l 1,1,2
 878.721 1355.07 878.721 1355.07 826.818 1255.23 c 1,3,-1
 171.36 921.376 l 1,4,-1
 852.359 265.767 l 2,5,6
 956.095 165.899 956.095 165.899 1091.6 166.258 c 2,7,-1
 1128.81 166.356 l 1,8,-1
 1128.81 -21.6074 l 1,9,-1
 1057.86 -21.6074 l 2,10,11
 867.088 -21.6074 867.088 -21.6074 647.688 269.414 c 1,12,13
 592.04 -21.1631 592.04 -21.1631 93.0986 -21.1631 c 2,14,-1
 -11.3223 -21.1631 l 5,15,-1
 -11.3223 166.911 l 5,16,-1
 87.6377 167.078 l 2,17,18
 472.897 167.728 472.897 167.728 504.11 319.498 c 0,19,20
 515.629 375.506 515.629 375.506 373.671 507.197 c 2,21,-1
 145.772 718.613 l 2,22,23
 44.3662 812.685 44.3662 812.685 42.7725 905.764 c 0,24,25
 40.8311 1020.1 40.8311 1020.1 177.749 1091.84 c 2,0,-1
EndSplineSet
EndChar

StartChar: uniFEDE
Encoding: 65246 65246 230
Width: 1626
VWidth: 2359
GlyphClass: 2
Flags: W
AnchorPoint: "Anchor-10" 629.65 1223.83 basechar 0
AnchorPoint: "Anchor-7" 236.999 -602.393 basechar 0
LayerCount: 2
Fore
SplineSet
1205.23 151.714 m 2,0,1
 1204.06 383.933 1204.06 383.933 1179.82 1028.43 c 0,2,3
 1168.89 1285.64 1168.89 1285.64 1143.89 1358.94 c 1,4,-1
 1323.87 1476.95 l 1,5,-1
 1323.85 424.509 l 2,6,7
 1323.85 287.049 1323.85 287.049 1392.45 227.015 c 128,-1,8
 1461.06 166.964 1461.06 166.964 1576.12 166.964 c 2,9,-1
 1638 166.964 l 1,10,-1
 1638 -21 l 5,11,-1
 1591.87 -21 l 2,12,13
 1448.28 -21 1448.28 -21 1320.43 68.6016 c 1,14,15
 1297.06 -504.811 1297.06 -504.811 691.32 -524.625 c 0,16,17
 313.069 -537.062 313.069 -537.062 162.765 -321.142 c 0,18,19
 48.5264 -155.712 48.5264 -155.712 110.78 93.5713 c 0,20,21
 127.19 159.281 127.19 159.281 164.062 267.823 c 0,22,23
 187.064 335.54 187.064 335.54 207.182 378.869 c 1,24,-1
 279.61 338.1 l 1,25,26
 168.262 27.7705 168.262 27.7705 239.919 -124.515 c 0,27,28
 347.087 -352.267 347.087 -352.267 686.876 -346.588 c 0,29,30
 1176.5 -338.3 1176.5 -338.3 1203.17 -11.8984 c 9,31,32
 1204.71 22.4062 1204.71 22.4062 1205.75 50.1855 c 0,33,34
 1207.11 86.7666 1207.11 86.7666 1205.23 151.714 c 2,0,1
EndSplineSet
EndChar

StartChar: uniFEDF
Encoding: 65247 65247 231
Width: 556
VWidth: 2359
GlyphClass: 2
Flags: W
AnchorPoint: "Anchor-10" 319.632 1562.49 basechar 0
AnchorPoint: "Anchor-7" 245.061 -283.816 basechar 0
LayerCount: 2
Fore
SplineSet
256.371 1372.11 m 1,0,1
 425.855 1479.62 l 1,2,-1
 425.855 464.899 l 2,3,4
 425.855 241.275 425.855 241.275 358.454 139.65 c 0,5,6
 251.814 -21.1377 251.814 -21.1377 56.9297 -21.1377 c 2,7,-1
 -11.3477 -21.1377 l 1,8,-1
 -11.3477 166.938 l 1,9,-1
 2.55957 166.938 l 2,10,11
 183.789 166.938 183.789 166.938 254.502 255.954 c 0,12,13
 299.862 313.058 299.862 313.058 295.685 479.189 c 2,14,15
 303.2 519.93 303.2 519.93 281.805 1031.1 c 0,16,17
 269.489 1288.31 269.489 1288.31 256.371 1372.11 c 1,0,1
EndSplineSet
EndChar

StartChar: uniFEE0
Encoding: 65248 65248 232
Width: 664
VWidth: 2359
GlyphClass: 2
Flags: W
AnchorPoint: "Anchor-10" 289.727 1558.07 basechar 0
AnchorPoint: "Anchor-7" 251.885 -339.433 basechar 0
LayerCount: 2
Fore
SplineSet
223.821 1372.11 m 1,0,1
 387.047 1478.46 l 1,2,-1
 387.047 424.44 l 2,3,4
 387.047 271.854 387.047 271.854 453.494 225.685 c 0,5,6
 539.433 165.972 539.433 165.972 642.413 165.972 c 2,7,-1
 675.726 165.972 l 1,8,-1
 675.726 -21.1035 l 1,9,-1
 635.713 -20.0537 l 2,10,11
 437.013 -14.8405 437.013 -14.8405 330.186 101.425 c 2,12,-1
 315.241 117.689 l 1,13,-1
 300.506 101.234 l 2,14,15
 194.853 -16.7485 194.853 -16.7485 38.9316 -20.0537 c 2,16,-1
 -10.5928 -21.1035 l 5,17,-1
 -10.5928 165.972 l 1,18,-1
 2.55957 165.938 l 2,19,20
 145.248 165.567 145.248 165.567 216.702 255.954 c 0,21,22
 262.062 313.054 262.062 313.054 257.884 479.189 c 2,23,24
 262.374 503.529 262.374 503.529 244.004 1031.1 c 0,25,26
 236.265 1253.36 236.265 1253.36 223.821 1372.11 c 1,0,1
EndSplineSet
EndChar

StartChar: uniFEE2
Encoding: 65250 65250 234
Width: 1194
VWidth: 2407
GlyphClass: 2
Flags: W
AnchorPoint: "Anchor-10" 487.792 1093.3 basechar 0
AnchorPoint: "Anchor-7" 252.014 -773.194 basechar 0
LayerCount: 2
Fore
SplineSet
480.724 351.461 m 5,0,1
 485.299 151.928 485.299 151.928 561.573 64.8105 c 4,2,3
 622.169 -4.13281 622.169 -4.13281 712.772 9.4502 c 4,4,5
 854.999 31.0859 854.999 31.0859 832.474 162.774 c 4,6,7
 805.174 322.374 805.174 322.374 651.873 351.774 c 4,8,9
 567.699 369.013 567.699 369.013 480.724 351.461 c 5,0,1
980.547 248.666 m 5,10,11
 1034.79 167.048 1034.79 167.048 1172.88 166.543 c 6,12,-1
 1205.23 166.425 l 5,13,-1
 1205.23 -21.4443 l 5,14,-1
 1157.25 -21.4443 l 6,15,16
 1014.58 -21.4443 1014.58 -21.4443 951.123 75.3105 c 5,17,18
 944.46 -31.9404 944.46 -31.9404 867.153 -97.6504 c 4,19,20
 809.721 -146.466 809.721 -146.466 690.724 -152.226 c 4,21,22
 387.001 -166.926 387.001 -166.926 359.448 298.089 c 5,23,24
 279.225 274.848 279.225 274.848 244.474 189.237 c 4,25,26
 186.896 48.4639 186.896 48.4639 223.097 -120.732 c 6,27,-1
 322.174 -583.8 l 21,28,-1
 151.538 -692.652 l 5,29,-1
 91.1631 -54.6025 l 6,30,31
 48.667 394.506 48.667 394.506 359.974 449.424 c 5,32,33
 378.873 553.374 378.873 553.374 419.299 601.539 c 5,34,35
 478.976 547.568 478.976 547.568 703.323 493.153 c 4,36,37
 927.003 438.9 927.003 438.9 980.547 248.666 c 5,10,11
EndSplineSet
EndChar

StartChar: uniFEE3
Encoding: 65251 65251 235
Width: 913
VWidth: 2387
GlyphClass: 2
Flags: W
AnchorPoint: "Anchor-10" 398.95 1041.46 basechar 0
AnchorPoint: "Anchor-7" 358.884 -271.882 basechar 0
LayerCount: 2
Fore
SplineSet
738.006 8.6377 m 0,0,1
 643.464 -89.2139 643.464 -89.2139 473.312 -49.9492 c 0,2,3
 361.793 -24.2139 361.793 -24.2139 237.224 109.689 c 1,4,5
 123.44 -21.0684 123.44 -21.0684 11.9932 -21.0684 c 2,6,-1
 -10.7119 -21.0684 l 1,7,-1
 -10.7119 166.006 l 1,8,-1
 31.9619 166.006 l 2,9,10
 121.653 166.006 121.653 166.006 196.667 292.065 c 0,11,12
 398.103 632.69 398.103 632.69 580.527 611.165 c 0,13,14
 802.145 585.076 802.145 585.076 821.525 279.512 c 0,15,16
 832.353 106.286 832.353 106.286 738.006 8.6377 c 0,0,1
442.177 127.508 m 0,17,18
 549.848 74.5107 549.848 74.5107 622.266 118.058 c 0,19,20
 695.947 161.426 695.947 161.426 675.092 312.991 c 0,21,22
 659.533 422.513 659.533 422.513 603.363 447.477 c 0,23,24
 529.319 481.325 529.319 481.325 424.748 371.687 c 0,25,26
 352.414 296.693 352.414 296.693 308.194 222.082 c 1,27,28
 366.095 158.495 366.095 158.495 442.177 127.508 c 0,17,18
EndSplineSet
EndChar

StartChar: uniFEE4
Encoding: 65252 65252 236
Width: 1032
VWidth: 2387
GlyphClass: 2
Flags: W
AnchorPoint: "Anchor-10" 449.635 1003.62 basechar 0
AnchorPoint: "Anchor-7" 409.567 -281.898 basechar 0
LayerCount: 2
Fore
SplineSet
447.301 123.746 m 0,0,1
 553.747 71.8135 553.747 71.8135 624.612 117.114 c 0,2,3
 695.037 163.029 695.037 163.029 674.042 312.991 c 0,4,5
 660.581 409.14 660.581 409.14 602.562 446.359 c 0,6,7
 538.044 488.151 538.044 488.151 423.947 371.62 c 0,8,9
 348.463 294.526 348.463 294.526 308.194 222.082 c 1,10,11
 371.757 160.923 371.757 160.923 447.301 123.746 c 0,0,1
791.635 89.7754 m 1,12,13
 763.265 35.9482 763.265 35.9482 736.956 9.6875 c 0,14,15
 638.391 -88.8945 638.391 -88.8945 473.312 -49.9492 c 0,16,17
 361.793 -24.2139 361.793 -24.2139 237.224 109.689 c 1,18,19
 123.44 -21.0684 123.44 -21.0684 11.9932 -21.0684 c 2,20,-1
 -10.7119 -21.0684 l 1,21,-1
 -10.7119 166.006 l 1,22,-1
 31.9619 166.006 l 2,23,24
 121.653 166.006 121.653 166.006 196.667 292.065 c 0,25,26
 396.869 631.615 396.869 631.615 579.478 610.115 c 0,27,28
 801.094 585.101 801.094 585.101 820.476 279.512 c 0,29,30
 820.955 271.71 820.955 271.71 821.229 264.075 c 8,31,32
 824.729 166.288 824.729 166.288 999.222 166.288 c 2,33,-1
 1043.64 166.288 l 1,34,-1
 1043.64 -21.6748 l 5,35,-1
 1021.65 -21.6748 l 2,36,37
 867.294 -21.6748 867.294 -21.6748 791.635 89.7754 c 1,12,13
EndSplineSet
EndChar

StartChar: uniFEEA
Encoding: 65258 65258 242
Width: 1077
VWidth: 2376
GlyphClass: 2
Flags: W
AnchorPoint: "Anchor-10" 396.296 1226.56 basechar 0
AnchorPoint: "Anchor-7" 381.749 -257.976 basechar 0
LayerCount: 2
Fore
SplineSet
690.267 404.61 m 1,0,1
 653.351 693.899 l 1,2,3
 247.832 652.805 247.832 652.805 257.427 464.12 c 0,4,5
 264.416 312.003 264.416 312.003 690.267 404.61 c 1,0,1
708.964 246.926 m 1,6,7
 179.981 151.77 179.981 151.77 101.868 379.699 c 0,8,9
 93.8281 402.926 93.8281 402.926 91.1582 432.198 c 0,10,11
 71.4072 720.234 71.4072 720.234 631.803 818.95 c 1,12,13
 632.491 847.233 632.491 847.233 616.664 962.286 c 1,14,-1
 744.617 1001.25 l 17,15,-1
 810.536 453.449 l 0,16,17
 834.859 247.933 834.859 247.933 909.183 200.612 c 0,18,19
 962.533 166.645 962.533 166.645 1069.89 166.539 c 2,20,-1
 1088.77 166.521 l 5,21,-1
 1088.77 -21.5576 l 5,22,-1
 1061.26 -20.5078 l 2,23,24
 749.377 -8.60909 749.377 -8.60909 708.964 246.926 c 1,6,7
EndSplineSet
EndChar

StartChar: uniFEEB
Encoding: 65259 65259 243
Width: 1165
VWidth: 2380
GlyphClass: 2
Flags: W
AnchorPoint: "Anchor-10" 462.893 1294.42 basechar 0
AnchorPoint: "Anchor-7" 392.716 -303.949 basechar 0
LayerCount: 2
Fore
SplineSet
714 509.332 m 1,0,1
 743.155 401.713 743.155 401.713 701.543 316.044 c 0,2,3
 669.383 249.835 669.383 249.835 544.786 173.949 c 2,4,-1
 534.089 167.434 l 1,5,6
 901.361 41.5107 901.361 41.5107 934.5 209.032 c 0,7,8
 960.547 338.851 960.547 338.851 714 509.332 c 1,0,1
440.615 731.176 m 1,9,10
 408.674 747.707 408.674 747.707 376.732 764.238 c 1,11,12
 394.44 832.266 394.44 832.266 412.151 900.294 c 1,13,-1
 722.543 688.384 l 0,14,15
 1087.94 439.249 1087.94 439.249 1073.75 232.442 c 0,16,17
 1053.72 -43.1445 1053.72 -43.1445 741.956 -34.2568 c 0,18,19
 549.105 -28.7598 549.105 -28.7598 359.234 57.9297 c 2,20,-1
 357.116 58.8965 l 1,21,-1
 355.001 57.9297 l 2,22,23
 180.754 -21.7051 180.754 -21.7051 17.501 -21.7051 c 2,24,-1
 -11.4697 -21.7051 l 1,25,-1
 -11.4697 166.369 l 1,26,-1
 22.6963 166.369 l 2,27,28
 22.835 166.369 22.835 166.369 163.084 165.278 c 1,29,30
 109.68 249.49 109.68 249.49 114.112 352.263 c 0,31,32
 119.748 478.481 119.748 478.481 176.439 565.959 c 0,33,34
 251.791 683.242 251.791 683.242 353.612 714.847 c 0,35,36
 415.666 733.625 415.666 733.625 440.615 731.176 c 1,9,10
572.356 369.682 m 0,37,38
 645.802 505.997 645.802 505.997 551.854 587.465 c 128,-1,39
 457.906 668.932 457.906 668.932 332.956 563.932 c 0,40,41
 254.341 497.868 254.341 497.868 247.672 405.687 c 0,42,43
 220.737 231.324 220.737 231.324 350.546 195.563 c 1,44,45
 514.529 262.356 514.529 262.356 572.356 369.682 c 0,37,38
EndSplineSet
EndChar

StartChar: uniFEEC
Encoding: 65260 65260 244
Width: 890
VWidth: 2399
GlyphClass: 2
Flags: W
AnchorPoint: "Anchor-7" 226.456 -799.016 basechar 0
AnchorPoint: "Anchor-10" 206.142 1141.66 basechar 0
LayerCount: 2
Fore
SplineSet
262.576 166.852 m 1,0,-1
 307.116 169.188 l 2,1,2
 405.393 174.346 405.393 174.346 451.251 248.301 c 0,3,4
 513.396 348.523 513.396 348.523 513.396 484.034 c 0,5,6
 513.396 574.205 513.396 574.205 495.214 601.684 c 0,7,8
 465.756 646.203 465.756 646.203 417.304 646.203 c 0,9,10
 316.687 646.203 316.687 646.203 278.513 466.879 c 0,11,12
 240.938 286.567 240.938 286.567 262.576 166.852 c 1,0,-1
196.47 613.195 m 0,13,14
 276.028 797.097 276.028 797.097 418.418 795.907 c 0,15,16
 510.094 794.982 510.094 794.982 567.561 725.79 c 0,17,18
 638.235 640.691 638.235 640.691 638.235 462.647 c 4,19,20
 638.235 198.431 638.235 198.431 484.455 58.3076 c 0,21,22
 397.27 -21.1348 397.27 -21.1348 278.179 -21.1348 c 1,23,24
 267.717 -247.345 267.717 -247.345 385.027 -413.118 c 1,25,26
 430.258 -91.3848 430.258 -91.3848 656.599 76.8721 c 0,27,28
 772.483 163.775 772.483 163.775 879.557 166.115 c 1,29,-1
 901.467 166.374 l 1,30,-1
 901.467 -21.6689 l 1,31,-1
 875.859 -22.1846 l 2,32,33
 572.053 -28.3019 572.053 -28.3019 492.297 -557.889 c 1,34,35
 410.396 -605.139 l 1,36,37
 178.93 -496.361 178.93 -496.361 148.483 -21.1348 c 1,38,-1
 -11.375 -21.1348 l 1,39,-1
 -11.375 166.94 l 1,40,-1
 146.439 167.006 l 1,41,42
 137.039 475.819 137.039 475.819 196.47 613.195 c 0,13,14
EndSplineSet
EndChar

StartChar: uniFEEE
Encoding: 65262 65262 246
Width: 877
VWidth: 2401
GlyphClass: 2
Flags: W
AnchorPoint: "Anchor-10" 332.462 1153.38 basechar 0
AnchorPoint: "Anchor-7" 530.036 -708.926 basechar 0
LayerCount: 2
Fore
SplineSet
465.674 403.86 m 0,0,1
 348.567 401.472 348.567 401.472 328.124 257.911 c 0,2,3
 315.08 165.367 315.08 165.367 397.305 157.331 c 0,4,5
 536.955 143.681 536.955 143.681 643.123 161.31 c 1,6,7
 644.707 241.252 644.707 241.252 620.023 298.86 c 0,8,9
 574.205 405.8 574.205 405.8 465.674 403.86 c 0,0,1
759.915 166.492 m 1,10,11
 888.626 166.887 l 1,12,-1
 888.626 -21.0469 l 1,13,-1
 756.153 -21 l 0,14,15
 650.354 -466.254 650.354 -466.254 342.705 -488.955 c 0,16,17
 158.966 -502.515 158.966 -502.515 19.3838 -373.085 c 1,18,19
 553.138 -311.915 553.138 -311.915 633.85 -20.7373 c 1,20,21
 574.755 -31.6689 574.755 -31.6689 455.055 -25.5508 c 0,22,23
 312.836 -17.0039 312.836 -17.0039 267 53.7305 c 0,24,25
 215.557 134.045 215.557 134.045 228.15 252.602 c 0,26,27
 248.854 447.506 248.854 447.506 348.073 538.261 c 0,28,29
 415.717 600.537 415.717 600.537 501.374 593.276 c 0,30,31
 572.665 587.433 572.665 587.433 635.773 521.876 c 0,32,33
 737.942 416.111 737.942 416.111 753.042 246.764 c 0,34,35
 756.85 204.04 756.85 204.04 759.915 166.492 c 1,10,11
EndSplineSet
EndChar

StartChar: uniFEF0
Encoding: 65264 65264 248
Width: 1399
VWidth: 2416
GlyphClass: 2
Flags: W
AnchorPoint: "Anchor-10" 629.807 504.875 basechar 0
AnchorPoint: "Anchor-7" 218.775 -832.266 basechar 0
LayerCount: 2
Fore
SplineSet
1018.84 140.706 m 0,0,1
 1085.87 167.042 1085.87 167.042 1286.83 167.033 c 2,2,3
 1395.94 167.028 l 1,4,5
 1402.9 166.941 1402.9 166.941 1409.86 166.854 c 5,6,-1
 1409.86 -21.1045 l 5,7,-1
 1339.7 -21.6631 l 1,8,9
 1125.98 -21.6631 l 2,10,11
 1045.84 -21.6631 1045.84 -21.6631 1045.84 -52.2207 c 0,12,13
 1046.09 -77.6826 1046.09 -77.6826 1186.08 -88.4258 c 0,14,15
 1331.14 -99.5576 1331.14 -99.5576 1345.24 -194.16 c 0,16,17
 1350.51 -229.505 1350.51 -229.505 1328.67 -281.443 c 0,18,19
 1263.93 -431.427 1263.93 -431.427 1091.78 -510.755 c 0,20,21
 889.527 -603.951 889.527 -603.951 590.961 -587.081 c 0,22,23
 157.042 -562.563 157.042 -562.563 91.2773 -269.053 c 0,24,25
 66.1689 -155.368 66.1689 -155.368 106.86 12.7656 c 0,26,27
 121.964 75.5752 121.964 75.5752 179.434 212.603 c 0,28,29
 213.445 294.059 213.445 294.059 225.9 316.65 c 1,30,31
 313.72 260.459 l 1,32,33
 302.966 235.806 302.966 235.806 262.577 137.726 c 0,34,35
 222.956 41.5068 222.956 41.5068 212.065 -31.0244 c 0,36,37
 193.07 -165.078 193.07 -165.078 271.584 -264.687 c 0,38,39
 369.336 -389.81 369.336 -389.81 663.36 -404.924 c 0,40,41
 867.647 -415.333 867.647 -415.333 1005.15 -370.65 c 0,42,43
 1185.11 -311.017 1185.11 -311.017 1202.67 -255.341 c 0,44,45
 1209.31 -233.37 1209.31 -233.37 1196.1 -223.098 c 0,46,47
 1182.26 -211.462 1182.26 -211.462 1075.9 -198.611 c 0,48,49
 877.962 -173.752 877.962 -173.752 871.949 -76.4023 c 0,50,51
 862.68 80.3076 862.68 80.3076 1018.84 140.706 c 0,0,1
EndSplineSet
EndChar

StartChar: uniFEFB
Encoding: 65275 65275 259
Width: 1055
VWidth: 2359
GlyphClass: 3
Flags: W
AnchorPoint: "Anchor-9" 860.221 1589.16 baselig 0
AnchorPoint: "Anchor-6" 822.547 -246.035 baselig 0
AnchorPoint: "Anchor-6" 185.784 -275.825 baselig 1
AnchorPoint: "Anchor-9" 148.203 1475.8 baselig 1
LayerCount: 2
Fore
SplineSet
743.571 1335.36 m 1,0,1
 924.605 1479.62 l 1,2,-1
 924.605 503.749 l 2,3,4
 924.605 304.725 924.605 304.725 822.296 163.737 c 0,5,6
 687.987 -21.3473 687.987 -21.3473 435.979 -21.1377 c 2,7,-1
 270.453 -21 l 17,8,9
 114.206 45.0879 114.206 45.0879 109.704 153.237 c 1,10,11
 389.082 130.2 389.082 130.2 456.681 152.25 c 1,12,13
 297.753 626.428 297.753 626.428 179.48 915.536 c 0,14,15
 116.853 1068.63 116.853 1068.63 39.1533 1169.64 c 1,16,-1
 179.984 1353.8 l 1,17,-1
 582.204 186.9 l 1,18,19
 681.182 210.668 681.182 210.668 736.196 285.537 c 0,20,21
 796.328 367.344 796.328 367.344 793.384 484.44 c 2,22,23
 799.472 505.615 799.472 505.615 779.505 1036.35 c 0,24,25
 769.828 1293.56 769.828 1293.56 743.571 1335.36 c 1,0,1
EndSplineSet
LCarets2: 1 0 
Ligature2: "'rlig' Required Ligatures in Arabic lookup 16 subtable" uniFEDF uniFE8E
EndChar

StartChar: uniFEFC
Encoding: 65276 65276 260
Width: 1345
VWidth: 2359
GlyphClass: 3
Flags: W
AnchorPoint: "Anchor-9" 939.679 1542.47 baselig 0
AnchorPoint: "Anchor-6" 925.041 -266.036 baselig 0
AnchorPoint: "Anchor-6" 249.018 -294.082 baselig 1
AnchorPoint: "Anchor-9" 110.807 1431.73 baselig 1
LayerCount: 2
Fore
SplineSet
510.446 183.957 m 1,0,1
 409.437 505.888 409.437 505.888 226.34 953.454 c 0,2,3
 163.713 1106.54 163.713 1106.54 86.0137 1207.55 c 1,4,-1
 226.845 1391.71 l 1,5,-1
 629.064 224.817 l 1,6,7
 801.626 307.867 801.626 307.867 862.891 520.957 c 1,8,9
 882.917 598.923 882.917 598.923 869.484 893.917 c 2,10,-1
 857.691 1152.9 l 2,11,12
 852.342 1270.38 852.342 1270.38 839.205 1328.05 c 1,13,-1
 1019.19 1477.56 l 1,14,-1
 1019.19 681.799 l 2,15,16
 1019.19 475.519 1019.19 475.519 1064.41 314.614 c 0,17,18
 1106.07 166.347 1106.07 166.347 1285.71 166.347 c 2,19,-1
 1356.22 166.347 l 1,20,-1
 1356.22 -21.6172 l 1,21,-1
 1256.56 -21 l 2,22,23
 998.992 -19.405 998.992 -19.405 922.659 365.015 c 1,24,25
 888.588 254.809 888.588 254.809 798.001 154.78 c 0,26,27
 637.014 -23.2227 637.014 -23.2227 371.976 -21.6172 c 0,28,29
 319.613 -21.3086 319.613 -21.3086 267.25 -21 c 1,30,31
 105.404 23.4141 105.404 23.4141 102.608 153.965 c 1,32,33
 396.856 136.309 396.856 136.309 505.802 182.009 c 2,34,-1
 510.446 183.957 l 1,0,1
EndSplineSet
LCarets2: 1 0 
Ligature2: "'rlig' Required Ligatures in Arabic lookup 16 subtable" uniFEE0 uniFE8E
EndChar

StartChar: arabic_dot
Encoding: 65536 -1 261
Width: 157
VWidth: 2150
GlyphClass: 2
Flags: W
LayerCount: 2
Fore
SplineSet
95.5146 181.818 m 2,0,-1
 178.125 99.208 l 2,1,2
 185.905 91.4277 185.905 91.4277 185.959 86.6016 c 128,-1,3
 186.012 81.8584 186.012 81.8584 178.65 74.5674 c 2,4,-1
 92.0791 -12.0039 l 2,5,6
 83.5752 -20.1787 83.5752 -20.1787 78.209 -20.2334 c 0,7,8
 72.585 -20.2891 72.585 -20.2891 64.4248 -12.0576 c 2,9,-1
 -21.7285 74.0957 l 2,10,11
 -28.9473 80.9111 -28.9473 80.9111 -28.5977 86.5518 c 0,12,13
 -28.2197 92.6641 -28.2197 92.6641 -18.5254 102.357 c 2,14,-1
 61.8164 182.699 l 2,15,16
 71.1855 192.153 71.1855 192.153 78.2598 192.007 c 128,-1,17
 85.4756 191.858 85.4756 191.858 95.5146 181.818 c 2,0,-1
EndSplineSet
EndChar

StartChar: arabic_2dots
Encoding: 65537 -1 262
Width: 474
VWidth: 2150
GlyphClass: 2
Flags: W
LayerCount: 2
Fore
SplineSet
378.15 181.633 m 2,0,-1
 460.576 99.207 l 2,1,2
 468.355 91.4277 468.355 91.4277 468.409 86.6016 c 128,-1,3
 468.463 81.8584 468.463 81.8584 461.101 74.5674 c 2,4,-1
 375 -11.5322 l 2,5,6
 366.357 -20.1758 366.357 -20.1758 360.658 -20.2324 c 128,-1,7
 355.034 -20.2891 355.034 -20.2891 346.875 -12.0576 c 2,8,-1
 260.722 74.0957 l 2,9,10
 253.503 80.9121 253.503 80.9121 253.852 86.5518 c 0,11,12
 254.23 92.6631 254.23 92.6631 263.925 102.357 c 2,13,-1
 344.267 182.7 l 2,14,15
 353.635 192.153 353.635 192.153 360.711 192.006 c 128,-1,16
 367.927 191.857 367.927 191.857 378.15 181.633 c 2,0,-1
129.3 181.632 m 2,17,-1
 211.726 99.207 l 2,18,19
 219.506 91.4268 219.506 91.4268 219.56 86.6016 c 128,-1,20
 219.611 81.9287 219.611 81.9287 212.25 74.5674 c 2,21,-1
 126.151 -11.5322 l 2,22,23
 117.507 -20.1758 117.507 -20.1758 111.809 -20.2324 c 128,-1,24
 106.256 -20.2881 106.256 -20.2881 98.0244 -12.0576 c 2,25,-1
 11.501 74.4668 l 2,26,27
 4.69629 81.6152 4.69629 81.6152 5.00195 86.5527 c 0,28,29
 5.36035 92.3428 5.36035 92.3428 14.6006 101.884 c 2,30,-1
 95.3994 182.683 l 2,31,32
 104.869 192.152 104.869 192.152 111.86 192.006 c 0,33,34
 119.075 191.857 119.075 191.857 129.3 181.632 c 2,17,-1
EndSplineSet
EndChar

StartChar: arabic_3dots
Encoding: 65538 -1 263
Width: 477
VWidth: 2150
GlyphClass: 2
Flags: W
LayerCount: 2
Fore
SplineSet
254.499 371.776 m 2,0,-1
 337.637 288.638 l 2,1,2
 345.417 280.858 345.417 280.858 345.471 276.032 c 128,-1,3
 345.523 271.288 345.523 271.288 338.162 263.998 c 2,4,-1
 252.062 177.898 l 2,5,6
 243.419 169.255 243.419 169.255 237.721 169.198 c 128,-1,7
 232.096 169.142 232.096 169.142 223.937 177.373 c 2,8,-1
 137.783 263.525 l 2,9,10
 130.564 270.343 130.564 270.343 130.914 275.983 c 0,11,12
 131.293 282.095 131.293 282.095 140.986 291.788 c 2,13,-1
 221.312 372.112 l 2,14,15
 230.953 381.755 230.953 381.755 237.552 381.805 c 128,-1,16
 244.144 381.856 244.144 381.856 254.499 371.776 c 2,0,-1
382.351 169.032 m 2,17,-1
 464.775 86.6074 l 2,18,19
 472.556 78.8271 472.556 78.8271 472.609 74.002 c 128,-1,20
 472.66 69.3281 472.66 69.3281 465.3 61.9678 c 2,21,-1
 379.2 -24.1318 l 2,22,23
 370.557 -32.7754 370.557 -32.7754 364.858 -32.832 c 128,-1,24
 359.306 -32.8877 359.306 -32.8877 351.075 -24.6572 c 2,25,-1
 264.975 61.4424 l 2,26,27
 257.726 68.6914 257.726 68.6914 258.051 73.9521 c 0,28,29
 258.43 80.0625 258.43 80.0625 268.125 89.7568 c 2,30,-1
 348.449 170.082 l 2,31,32
 357.919 179.551 357.919 179.551 364.909 179.407 c 0,33,34
 372.125 179.258 372.125 179.258 382.351 169.032 c 2,17,-1
129.3 169.032 m 2,35,-1
 211.726 86.6074 l 2,36,37
 219.506 78.8262 219.506 78.8262 219.56 74.002 c 128,-1,38
 219.61 69.3281 219.61 69.3281 212.25 61.9678 c 2,39,-1
 126.151 -24.1318 l 2,40,41
 117.507 -32.7754 117.507 -32.7754 111.809 -32.832 c 128,-1,42
 106.256 -32.8877 106.256 -32.8877 98.0244 -24.6572 c 2,43,-1
 11.501 61.8662 l 2,44,45
 4.69629 69.0156 4.69629 69.0156 5.00195 73.9521 c 0,46,47
 5.38086 80.0635 5.38086 80.0635 15.0742 89.7568 c 2,48,-1
 95.3994 170.082 l 2,49,50
 104.868 179.551 104.868 179.551 111.859 179.407 c 0,51,52
 119.075 179.258 119.075 179.258 129.3 169.032 c 2,35,-1
EndSplineSet
EndChar

StartChar: arabic_3dots_a
Encoding: 65539 -1 264
Width: 476
VWidth: 2150
GlyphClass: 2
Flags: W
LayerCount: 2
Fore
SplineSet
248.947 -9.2959 m 6,0,-1
 331.688 -92.0371 l 6,1,2
 339.468 -99.8174 339.468 -99.8174 339.521 -104.644 c 132,-1,3
 339.574 -109.387 339.574 -109.387 332.214 -116.677 c 6,4,-1
 246.113 -202.777 l 6,5,6
 237.47 -211.421 237.47 -211.421 231.771 -211.478 c 132,-1,7
 226.146 -211.534 226.146 -211.534 217.986 -203.302 c 6,8,-1
 131.834 -117.149 l 6,9,10
 124.616 -110.333 124.616 -110.333 124.966 -104.692 c 4,11,12
 125.344 -98.5811 125.344 -98.5811 135.036 -88.8867 c 6,13,-1
 215.639 -8.28613 l 6,14,15
 225.419 1.00391 225.419 1.00391 232.056 0.756836 c 132,-1,16
 238.883 0.503906 238.883 0.503906 248.947 -9.2959 c 6,0,-1
381.154 190.179 m 2,17,-1
 463.727 107.607 l 2,18,19
 471.506 99.8281 471.506 99.8281 471.56 95.001 c 128,-1,20
 471.61 90.3281 471.61 90.3281 464.251 82.9678 c 2,21,-1
 378.151 -3.13281 l 2,22,23
 369.508 -11.7754 369.508 -11.7754 363.809 -11.833 c 128,-1,24
 358.255 -11.8887 358.255 -11.8887 350.023 -3.65723 c 2,25,-1
 263.871 82.4971 l 2,26,27
 256.676 89.6924 256.676 89.6924 257.002 94.9521 c 0,28,29
 257.38 101.063 257.38 101.063 267.074 110.757 c 2,30,-1
 347.416 191.099 l 2,31,32
 356.867 200.551 356.867 200.551 363.859 200.407 c 0,33,34
 371.075 200.258 371.075 200.258 381.154 190.179 c 2,17,-1
129.301 190.032 m 2,35,-1
 211.727 107.607 l 2,36,37
 219.506 99.8281 219.506 99.8281 219.56 95.001 c 128,-1,38
 219.61 90.3281 219.61 90.3281 212.251 82.9678 c 2,39,-1
 126.151 -3.13281 l 2,40,41
 117.508 -11.7754 117.508 -11.7754 111.809 -11.833 c 128,-1,42
 106.255 -11.8887 106.255 -11.8887 98.0244 -3.65723 c 2,43,-1
 11.8711 82.4961 l 2,44,45
 4.67676 89.6895 4.67676 89.6895 5.00195 94.9521 c 0,46,47
 5.37988 101.063 5.37988 101.063 15.0742 110.757 c 2,48,-1
 95.416 191.099 l 2,49,50
 104.868 200.551 104.868 200.551 111.859 200.407 c 0,51,52
 119.075 200.258 119.075 200.258 129.301 190.032 c 2,35,-1
EndSplineSet
EndChar

StartChar: uni066E.fina
Encoding: 65540 -1 265
Width: 1860
VWidth: 2384
GlyphClass: 2
Flags: W
AnchorPoint: "Anchor-10" 730.312 1137.65 basechar 0
AnchorPoint: "Anchor-7" 730.312 -241.908 basechar 0
LayerCount: 2
Fore
SplineSet
887.095 -21 m 4,0,1
 430.574 -25.1982 430.574 -25.1982 286.501 51.6943 c 4,2,3
 84.9443 157.867 84.9443 157.867 91.8682 479.429 c 4,4,5
 94.7002 612.312 94.7002 612.312 149.041 718.361 c 5,6,7
 207.745 688.384 l 5,8,9
 195.619 633.936 195.619 633.936 190.001 582.75 c 4,10,11
 184.521 533.422 184.521 533.422 186.553 476.252 c 4,12,13
 195.523 230.8 195.523 230.8 551.102 178.743 c 4,14,15
 638.3 165.979 638.3 165.979 1007.43 166.081 c 4,16,17
 1238.24 166.145 1238.24 166.145 1386.9 250.144 c 4,18,19
 1464.68 294.093 1464.68 294.093 1521.3 355.144 c 4,20,21
 1591.26 430.578 1591.26 430.578 1626.3 567.243 c 13,22,-1
 1680.89 554.472 l 5,23,24
 1673.54 500.531 1673.54 500.531 1674.95 421.05 c 4,25,26
 1678.94 196.427 1678.94 196.427 1836.83 170.09 c 6,27,-1
 1858.8 166.425 l 5,28,-1
 1871.55 166.84 l 5,29,-1
 1871.55 -21.124 l 5,30,-1
 1860.1 -21.3975 l 5,31,-1
 1856.54 -21.0742 l 6,32,33
 1599.44 2.27246 1599.44 2.27246 1596.2 291.56 c 5,34,35
 1567.35 211.132 1567.35 211.132 1428.89 116.62 c 4,36,37
 1229.58 -17.8506 1229.58 -17.8506 887.095 -21 c 4,0,1
EndSplineSet
EndChar

StartChar: uni06A1.fina
Encoding: 65543 -1 268
Width: 1983
VWidth: 2381
GlyphClass: 2
Flags: W
AnchorPoint: "Anchor-10" 530.682 1252.21 basechar 0
AnchorPoint: "Anchor-7" 649.773 -295.979 basechar 0
LayerCount: 2
Fore
SplineSet
1338.47 492.904 m 128,-1,1
 1338.47 427.666 1338.47 427.666 1390.1 377.45 c 128,-1,2
 1441.71 327.232 1441.71 327.232 1514.89 327.232 c 128,-1,3
 1588.05 327.232 1588.05 327.232 1639.68 377.449 c 128,-1,4
 1691.31 427.664 1691.31 427.664 1691.31 492.9 c 128,-1,5
 1691.31 558.138 1691.31 558.138 1639.76 614.251 c 128,-1,6
 1588.05 670.542 1588.05 670.542 1514.89 670.542 c 128,-1,7
 1441.72 670.542 1441.72 670.542 1390.01 614.251 c 128,-1,0
 1338.47 558.144 1338.47 558.144 1338.47 492.904 c 128,-1,1
1408.82 218.878 m 1,8,9
 1267.48 276.046 1267.48 276.046 1228.27 423.365 c 0,10,11
 1205.35 509.514 1205.35 509.514 1227.03 598.679 c 0,12,13
 1264.24 749.23 1264.24 749.23 1391.74 807.917 c 0,14,15
 1447.08 833.873 1447.08 833.873 1518.72 834.361 c 0,16,17
 1599.46 834.876 1599.46 834.876 1660.33 800.479 c 0,18,19
 1761.45 743.527 1761.45 743.527 1794.95 624.859 c 0,20,21
 1822.2 526.463 1822.2 526.463 1792.85 419.375 c 0,22,23
 1761.32 300.2 1761.32 300.2 1616.3 217.88 c 1,24,25
 1736.82 164.41 1736.82 164.41 1951.82 166.53 c 2,26,-1
 1995.05 166.956 l 1,27,-1
 1995.05 -21 l 1,28,-1
 1947.4 -21 l 2,29,30
 1673.04 -21 1673.04 -21 1504.62 96.1455 c 2,31,-1
 1501.54 98.2861 l 1,32,-1
 1498.4 96.2295 l 2,33,34
 1355.08 2.37402 1355.08 2.37402 1158.12 -9.99512 c 2,35,-1
 972.042 -21.6807 l 0,36,37
 463.11 -41.7158 463.11 -41.7158 286.501 51.6943 c 0,38,39
 84.9443 157.867 84.9443 157.867 91.8682 479.429 c 0,40,41
 94.7002 612.312 94.7002 612.312 149.041 718.361 c 1,42,-1
 207.021 688.384 l 1,43,44
 197.299 640.522 197.299 640.522 190.001 582.75 c 0,45,46
 184.355 538.055 184.355 538.055 186.553 476.252 c 0,47,48
 195.523 230.801 195.523 230.801 551.102 178.743 c 0,49,50
 638.3 165.979 638.3 165.979 1007.43 166.081 c 0,51,-1
 1052.05 166.53 l 2,52,53
 1296.15 168.988 1296.15 168.988 1408.82 218.878 c 1,8,9
EndSplineSet
EndChar

StartChar: uni06A1.init
Encoding: 65544 -1 269
Width: 709
VWidth: 2401
GlyphClass: 2
Flags: W
AnchorPoint: "Anchor-10" 457.484 1312.5 basechar 0
AnchorPoint: "Anchor-7" 357.313 -239.581 basechar 0
LayerCount: 2
Fore
SplineSet
324.815 786.034 m 4,0,1
 212.656 783.745 212.656 783.745 187.266 640.084 c 4,2,3
 170.183 540.22 170.183 540.22 247.903 514.313 c 4,4,5
 358.153 477.563 358.153 477.563 502.266 525.634 c 5,6,7
 503.889 608.193 503.889 608.193 473.915 674.1 c 4,8,9
 423.346 787.024 423.346 787.024 324.815 786.034 c 4,0,1
613.742 330.986 m 4,10,11
 586.779 142.178 586.779 142.178 404.157 38.6377 c 0,12,13
 297.17 -22.0205 297.17 -22.0205 153.154 -22.0205 c 2,14,-1
 -10.6113 -22.0205 l 1,15,-1
 -10.6113 166.055 l 1,16,-1
 60.666 166.055 l 2,17,18
 262.533 166.055 262.533 166.055 303.104 178.319 c 0,19,20
 468.278 229.532 468.278 229.532 492.992 343.586 c 5,21,22
 412.49 322.35 412.49 322.35 308.016 332.325 c 4,23,24
 184.021 345.683 184.021 345.683 126.142 435.903 c 4,25,26
 74.6963 516.219 74.6963 516.219 87.292 634.775 c 4,27,28
 106.044 822.659 106.044 822.659 207.216 920.435 c 4,29,30
 263.099 974.441 263.099 974.441 362.615 966 c 4,31,32
 434.552 959.535 434.552 959.535 505.415 879.9 c 4,33,34
 590.949 785.339 590.949 785.339 612.182 611.086 c 4,35,36
 630.838 449.99 630.838 449.99 613.742 330.986 c 4,10,11
EndSplineSet
EndChar

StartChar: uni06A1.medi
Encoding: 65545 -1 270
Width: 1018
VWidth: 2381
GlyphClass: 2
Flags: W
AnchorPoint: "Anchor-10" 536.592 1074.83 basechar 0
AnchorPoint: "Anchor-7" 536.592 -235.164 basechar 0
LayerCount: 2
Fore
SplineSet
327.662 494.431 m 128,-1,1
 327.662 429.191 327.662 429.191 379.288 378.976 c 128,-1,2
 430.915 328.759 430.915 328.759 504.084 328.759 c 128,-1,3
 577.253 328.759 577.253 328.759 628.879 378.975 c 128,-1,4
 680.504 429.189 680.504 429.189 680.504 494.426 c 128,-1,5
 680.504 559.664 680.504 559.664 628.962 615.776 c 128,-1,6
 577.251 672.067 577.251 672.067 504.084 672.067 c 128,-1,7
 430.916 672.067 430.916 672.067 379.205 615.776 c 128,-1,0
 327.662 559.67 327.662 559.67 327.662 494.431 c 128,-1,1
649.534 802.005 m 0,8,9
 750.64 745.053 750.64 745.053 784.15 626.386 c 0,10,11
 811.399 527.988 811.399 527.988 782.051 420.9 c 0,12,13
 750.518 301.726 750.518 301.726 605.493 219.406 c 1,14,15
 730.279 164.04 730.279 164.04 981.553 166.271 c 2,16,-1
 1029.63 166.697 l 1,17,-1
 1029.63 -21.2598 l 1,18,-1
 827.598 -21.8047 l 2,19,20
 669.784 -22.2304 669.784 -22.2304 499.697 95.8867 c 2,21,-1
 496.616 98.0264 l 1,22,-1
 493.476 95.9707 l 2,23,24
 313.539 -21.8047 313.539 -21.8047 153.196 -21.8047 c 2,25,-1
 -11.4834 -21.8047 l 5,26,-1
 -11.4834 166.271 l 5,27,-1
 47.1279 166.271 l 2,28,29
 275.894 166.271 275.894 166.271 398.013 220.403 c 1,30,31
 256.67 277.571 256.67 277.571 217.466 424.891 c 0,32,33
 194.54 511.039 194.54 511.039 216.229 600.204 c 0,34,35
 253.44 750.756 253.44 750.756 380.941 809.443 c 0,36,37
 436.28 835.398 436.28 835.398 507.914 835.887 c 0,38,39
 588.65 836.401 588.65 836.401 649.534 802.005 c 0,8,9
EndSplineSet
EndChar

StartChar: uni066F.fina
Encoding: 65546 -1 271
Width: 1451
VWidth: 2401
GlyphClass: 2
Flags: W
AnchorPoint: "Anchor-10" 345.685 976.408 basechar 0
AnchorPoint: "Anchor-7" 438.781 -825.338 basechar 0
LayerCount: 2
Fore
SplineSet
1052.52 405.722 m 4,0,1
 935.509 403.335 935.509 403.335 914.974 259.773 c 4,2,3
 902.242 168.408 902.242 168.408 979.053 160.848 c 4,4,5
 1119.14 145.687 1119.14 145.687 1229.97 163.171 c 5,6,7
 1231.56 243.114 1231.56 243.114 1206.87 300.722 c 4,8,9
 1161.05 407.661 1161.05 407.661 1052.52 405.722 c 4,0,1
1337.38 166.447 m 4,10,11
 1466.78 166.843 l 5,12,-1
 1466.78 -21.0908 l 5,13,-1
 1336.34 -21.0908 l 5,14,15
 1337.45 -77.8535 1337.45 -77.8535 1326.32 -132.161 c 4,16,17
 1237.67 -564.719 1237.67 -564.719 663.923 -576.374 c 4,18,19
 307.287 -583.282 307.287 -583.282 162.065 -380.99 c 4,20,21
 47.8418 -222.956 47.8418 -222.956 110.08 64.1719 c 4,22,23
 125.504 135.328 125.504 135.328 161.263 238.425 c 4,24,25
 201.899 356.085 201.899 356.085 207.308 369.735 c 5,26,-1
 288.154 321.93 l 5,27,28
 163.477 7.92676 163.477 7.92676 239.22 -184.362 c 4,29,30
 321.799 -394.007 321.799 -394.007 647.327 -398.037 c 4,31,32
 1179.34 -404.623 1179.34 -404.623 1220.7 -18.875 c 5,33,34
 1185.9 -21 1185.9 -21 1041.91 -19.4883 c 4,35,36
 900.857 -16.9961 900.857 -16.9961 853.85 55.5928 c 4,37,38
 802.406 135.908 802.406 135.908 815 254.464 c 4,39,40
 835.705 449.368 835.705 449.368 934.924 540.122 c 4,41,42
 1002.57 602.399 1002.57 602.399 1088.22 595.139 c 4,43,44
 1158.19 589.402 1158.19 589.402 1222.62 523.739 c 4,45,46
 1319.25 425.25 1319.25 425.25 1337.38 166.447 c 4,10,11
EndSplineSet
EndChar

StartChar: arabic_ring
Encoding: 65549 -1 274
Width: 459
VWidth: 2150
GlyphClass: 2
Flags: W
LayerCount: 2
Fore
SplineSet
331.8 231 m 4,0,1
 331.8 273 331.8 273 302.4 302.4 c 4,2,3
 273 332.85 273 332.85 229.95 332.85 c 132,-1,4
 186.9 332.85 186.9 332.85 157.5 303.45 c 132,-1,5
 128.1 274.05 128.1 274.05 128.1 231 c 4,6,7
 128.1 186.9 128.1 186.9 157.5 157.5 c 4,8,9
 186.9 129.15 186.9 129.15 229.95 129.15 c 132,-1,10
 273 129.15 273 129.15 302.4 158.55 c 132,-1,11
 331.8 187.95 331.8 187.95 331.8 231 c 4,0,1
459.9 231 m 132,-1,13
 459.9 134.4 459.9 134.4 393.75 67.2002 c 4,14,15
 326.55 0 326.55 0 229.95 0 c 132,-1,16
 133.35 0 133.35 0 67.2002 67.2002 c 4,17,18
 0 134.4 0 134.4 0 231 c 132,-1,19
 0 327.6 0 327.6 67.2002 394.8 c 4,20,21
 133.35 460.95 133.35 460.95 229.95 460.95 c 132,-1,22
 326.55 460.95 326.55 460.95 393.75 394.8 c 5,23,12
 459.9 327.6 459.9 327.6 459.9 231 c 132,-1,13
EndSplineSet
EndChar

StartChar: arabic_gaf_bar
Encoding: 65550 -1 275
Width: 707
VWidth: 2150
GlyphClass: 2
Flags: W
LayerCount: 2
Fore
SplineSet
652.05 1730.19 m 9,0,-1
 0 1387.05 l 1,1,2
 49.3496 1532.79 l 9,3,-1
 699.3 1871.1 l 1,4,5
 652.05 1730.19 l 9,0,-1
EndSplineSet
EndChar

StartChar: uni066E.init.math
Encoding: 65560 -1 285
Width: 954
VWidth: 2386
GlyphClass: 2
Flags: W
LayerCount: 2
Fore
SplineSet
617.467 64.0195 m 0,0,1
 537.123 -31.1641 537.123 -31.1641 360.16 -31.1641 c 2,2,-1
 -24.7148 -31.1641 l 1,3,-1
 -24.7148 147.896 l 1,4,-1
 294.66 147.896 l 2,5,6
 420.86 147.896 420.86 147.896 479.127 206.163 c 0,7,8
 543.35 270.386 543.35 270.386 543.35 404.921 c 2,9,-1
 543.35 643.314 l 1,10,-1
 722.408 643.314 l 1,11,-1
 722.408 404.921 l 2,12,13
 722.408 190.127 722.408 190.127 617.467 64.0195 c 0,0,1
EndSplineSet
EndChar

StartChar: guillemotleft
Encoding: 171 171 286
Width: 1044
VWidth: 2150
Flags: W
LayerCount: 2
Fore
SplineSet
497.552 977.653 m 5,0,-1
 470.783 930.581 l 6,1,2
 408.497 821.065 408.497 821.065 377.465 714.479 c 4,3,4
 345.508 604.713 345.508 604.713 345.508 492.048 c 132,-1,5
 345.508 379.359 345.508 379.359 377.478 268.819 c 4,6,7
 408.497 161.562 408.497 161.562 470.738 52.5557 c 6,8,-1
 497.643 5.43652 l 5,9,-1
 356.914 5.43652 l 5,10,-1
 347.634 20.0547 l 6,11,12
 271.343 140.218 271.343 140.218 233.174 256.492 c 4,13,14
 194.308 374.943 194.308 374.943 194.308 492.048 c 4,15,16
 194.308 608.706 194.308 608.706 233.184 726.627 c 4,17,18
 271.337 842.346 271.337 842.346 347.609 962.985 c 6,19,-1
 356.884 977.653 l 5,20,-1
 497.552 977.653 l 5,0,-1
892.352 977.653 m 5,21,-1
 865.583 930.581 l 6,22,23
 803.297 821.065 803.297 821.065 772.265 714.479 c 4,24,25
 740.308 604.713 740.308 604.713 740.308 492.048 c 132,-1,26
 740.308 379.359 740.308 379.359 772.277 268.819 c 4,27,28
 803.297 161.562 803.297 161.562 865.538 52.5557 c 6,29,-1
 892.442 5.43652 l 5,30,-1
 751.714 5.43652 l 5,31,-1
 742.434 20.0547 l 6,32,33
 666.143 140.218 666.143 140.218 627.974 256.492 c 4,34,35
 589.107 374.943 589.107 374.943 589.107 492.048 c 4,36,37
 589.107 608.706 589.107 608.706 627.984 726.627 c 4,38,39
 666.137 842.346 666.137 842.346 742.41 962.985 c 6,40,-1
 751.684 977.653 l 5,41,-1
 892.352 977.653 l 5,21,-1
EndSplineSet
EndChar

StartChar: guillemotright
Encoding: 187 187 287
Width: 1044
VWidth: 2150
Flags: W
LayerCount: 2
Fore
SplineSet
547.198 977.653 m 1,0,-1
 687.866 977.653 l 1,1,-1
 697.141 962.985 l 2,2,3
 773.413 842.346 773.413 842.346 811.566 726.627 c 0,4,5
 850.442 608.706 850.442 608.706 850.442 492.048 c 0,6,7
 850.442 374.943 850.442 374.943 811.576 256.492 c 0,8,9
 773.407 140.218 773.407 140.218 697.116 20.0547 c 2,10,-1
 687.836 5.43652 l 1,11,-1
 547.107 5.43652 l 1,12,-1
 574.012 52.5557 l 2,13,14
 636.253 161.562 636.253 161.562 667.272 268.819 c 0,15,16
 699.242 379.359 699.242 379.359 699.242 492.048 c 128,-1,17
 699.242 604.713 699.242 604.713 667.285 714.479 c 0,18,19
 636.253 821.065 636.253 821.065 573.967 930.581 c 2,20,-1
 547.198 977.653 l 1,0,-1
152.398 977.653 m 1,21,-1
 293.066 977.653 l 1,22,-1
 302.34 962.985 l 2,23,24
 378.613 842.346 378.613 842.346 416.766 726.627 c 0,25,26
 455.643 608.706 455.643 608.706 455.643 492.048 c 0,27,28
 455.643 374.943 455.643 374.943 416.776 256.492 c 0,29,30
 378.606 140.218 378.606 140.218 302.316 20.0547 c 2,31,-1
 293.036 5.43652 l 1,32,-1
 152.308 5.43652 l 1,33,-1
 179.212 52.5557 l 2,34,35
 241.453 161.562 241.453 161.562 272.473 268.819 c 0,36,37
 304.442 379.359 304.442 379.359 304.442 492.048 c 128,-1,38
 304.442 604.713 304.442 604.713 272.485 714.479 c 0,39,40
 241.453 821.065 241.453 821.065 179.167 930.581 c 2,41,-1
 152.398 977.653 l 1,21,-1
EndSplineSet
EndChar

StartChar: NameMe.337
Encoding: 65562 -1 294
Width: 645
VWidth: 2290
Flags: W
LayerCount: 2
Fore
SplineSet
286.986 99.2529 m 6,0,1
 198.108 -0 198.108 -0 84.7354 0 c 6,2,-1
 -21.4209 0 l 5,3,-1
 -21.4209 177.429 l 5,4,-1
 22.9424 177.429 l 6,5,6
 134.133 177.429 134.133 177.429 195.819 232.724 c 4,7,8
 265.699 295.449 265.699 295.449 259.654 420.325 c 6,9,-1
 218.704 1266.26 l 5,10,-1
 383.429 1339.76 l 5,11,-1
 383.429 420.325 l 6,12,13
 383.429 294.979 383.429 294.979 415.516 248.854 c 4,14,15
 465.203 177.429 465.203 177.429 624.341 177.429 c 6,16,-1
 667.653 177.429 l 5,17,-1
 667.653 0 l 5,18,-1
 562.548 0 l 6,19,20
 406.339 -0 406.339 -0 314.986 99.4326 c 6,21,-1
 300.888 114.777 l 5,22,-1
 286.986 99.2529 l 6,0,1
EndSplineSet
EndChar

StartChar: NameMe.338
Encoding: 65563 -1 295
Width: 558
VWidth: 2290
Flags: W
LayerCount: 2
Fore
SplineSet
412.828 458.524 m 2,0,1
 412.828 202.441 412.828 202.441 303.854 94.6016 c 4,2,3
 205.397 0 205.397 0 57.4355 0 c 2,4,-1
 -21.4209 0 l 1,5,-1
 -21.4209 177.429 l 1,6,-1
 13.4922 177.429 l 2,7,8
 159.6 177.429 159.6 177.429 226.755 261.339 c 0,9,10
 292.566 343.582 292.566 343.582 286.954 472.007 c 2,11,-1
 247.055 1384.98 l 1,12,-1
 412.828 1458.48 l 1,13,-1
 412.828 458.524 l 2,0,1
EndSplineSet
EndChar

StartChar: exclam
Encoding: 33 33 298
Width: 826
VWidth: 0
Flags: W
LayerCount: 2
Fore
SplineSet
515.416 193.914 m 2,0,-1
 515.416 22.7432 l 2,1,2
 515.416 8.79395 515.416 8.79395 511.918 4.39648 c 128,-1,3
 508.422 0 508.422 0 499.854 0 c 2,4,-1
 329.881 0 l 2,5,6
 318.988 0 318.988 0 314.858 4.60156 c 128,-1,7
 310.729 9.20312 310.729 9.20312 310.729 22.7432 c 2,8,-1
 310.729 192.717 l 2,9,10
 310.729 204.8 310.729 204.8 314.711 208.933 c 128,-1,11
 318.693 213.066 318.693 213.066 329.881 213.066 c 2,12,-1
 496.264 213.066 l 2,13,14
 507.601 213.066 507.601 213.066 511.508 209.158 c 128,-1,15
 515.416 205.251 515.416 205.251 515.416 193.914 c 2,0,-1
316.95 1474.2 m 1,16,-1
 509.1 1474.2 l 1,17,-1
 489.15 446.25 l 1,18,-1
 337.95 446.25 l 1,19,-1
 316.95 1474.2 l 1,16,-1
EndSplineSet
EndChar

StartChar: period
Encoding: 46 46 299
Width: 661
VWidth: 2156
Flags: W
LayerCount: 2
Fore
SplineSet
444.866 193.914 m 6,0,-1
 444.866 22.7432 l 6,1,2
 444.866 8.79395 444.866 8.79395 441.368 4.39648 c 132,-1,3
 437.872 0 437.872 0 429.305 0 c 6,4,-1
 259.331 0 l 6,5,6
 248.438 0 248.438 0 244.309 4.60156 c 132,-1,7
 240.179 9.20312 240.179 9.20312 240.179 22.7432 c 6,8,-1
 240.179 192.717 l 6,9,10
 240.179 204.8 240.179 204.8 244.161 208.933 c 132,-1,11
 248.143 213.066 248.143 213.066 259.331 213.066 c 6,12,-1
 425.714 213.066 l 6,13,14
 437.051 213.066 437.051 213.066 440.958 209.158 c 132,-1,15
 444.866 205.251 444.866 205.251 444.866 193.914 c 6,0,-1
EndSplineSet
EndChar

StartChar: colon
Encoding: 58 58 300
Width: 661
VWidth: 2156
Flags: W
LayerCount: 2
Fore
SplineSet
444.866 756.714 m 2,0,-1
 444.866 585.543 l 2,1,2
 444.866 571.594 444.866 571.594 441.368 567.197 c 128,-1,3
 437.872 562.8 437.872 562.8 429.305 562.8 c 2,4,-1
 259.331 562.8 l 2,5,6
 248.438 562.8 248.438 562.8 244.309 567.402 c 128,-1,7
 240.179 572.003 240.179 572.003 240.179 585.543 c 2,8,-1
 240.179 755.517 l 2,9,10
 240.179 767.6 240.179 767.6 244.161 771.732 c 128,-1,11
 248.143 775.866 248.143 775.866 259.331 775.866 c 2,12,-1
 425.714 775.866 l 2,13,14
 437.051 775.866 437.051 775.866 440.958 771.958 c 128,-1,15
 444.866 768.051 444.866 768.051 444.866 756.714 c 2,0,-1
444.866 193.914 m 2,16,-1
 444.866 22.7432 l 2,17,18
 444.866 8.79395 444.866 8.79395 441.368 4.39648 c 128,-1,19
 437.872 0 437.872 0 429.305 0 c 2,20,-1
 259.331 0 l 2,21,22
 248.438 0 248.438 0 244.309 4.60156 c 128,-1,23
 240.179 9.20312 240.179 9.20312 240.179 22.7432 c 2,24,-1
 240.179 192.717 l 2,25,26
 240.179 204.8 240.179 204.8 244.161 208.933 c 128,-1,27
 248.143 213.066 248.143 213.066 259.331 213.066 c 2,28,-1
 425.714 213.066 l 2,29,30
 437.051 213.066 437.051 213.066 440.958 209.158 c 128,-1,31
 444.866 205.251 444.866 205.251 444.866 193.914 c 2,16,-1
EndSplineSet
EndChar
